<?xml version="1.0" encoding="UTF-8" standalone="no"?>
<!DOCTYPE svg PUBLIC "-//W3C//DTD SVG 1.1//EN"
 "http://www.w3.org/Graphics/SVG/1.1/DTD/svg11.dtd">
<!-- Generated by graphviz version 2.36.0 (20140111.2315)
 -->
<!-- Title: topology Pages: 1 -->
<svg width="442pt" height="574pt"
 viewBox="0.00 0.00 442.32 573.54" xmlns="http://www.w3.org/2000/svg" xmlns:xlink="http://www.w3.org/1999/xlink">
<g id="graph0" class="graph" transform="scale(1 1) rotate(0) translate(4 569.54)">
<title>topology</title>
<polygon fill="white" stroke="none" points="-4,4 -4,-569.54 438.32,-569.54 438.32,4 -4,4"/>
<!-- s1 -->
<g id="1" class="node"><title>s1</title>
<ellipse fill="none" stroke="black" cx="105.47" cy="-213.85" rx="27" ry="18"/>
<text text-anchor="middle" x="105.47" y="-210.15" font-family="Times,serif" font-size="14.00">s1</text>
</g>
<!-- s2 -->
<g id="2" class="node"><title>s2</title>
<ellipse fill="none" stroke="black" cx="197.54" cy="-221.55" rx="27" ry="18"/>
<text text-anchor="middle" x="197.54" y="-217.85" font-family="Times,serif" font-size="14.00">s2</text>
</g>
<!-- s1&#45;&gt;s2 -->
<g id="edge1" class="edge"><title>s1&#45;&gt;s2</title>
<path fill="none" stroke="#91cf60" d="M129.64,-221.95C139.17,-223.42 150.33,-224.54 160.82,-225.11"/>
<polygon fill="#91cf60" stroke="#91cf60" points="160.873,-228.615 171,-225.5 161.141,-221.62 160.873,-228.615"/>
<text text-anchor="middle" x="154.23" y="-227.33" font-family="Times,serif" font-size="14.00">0.1</text>
</g>
<!-- h1 -->
<g id="node3" class="node"><title>h1</title>
<ellipse fill="none" stroke="black" cx="27" cy="-186.97" rx="27" ry="18"/>
<text text-anchor="middle" x="27" y="-183.27" font-family="Times,serif" font-size="14.00">h1</text>
</g>
<!-- s1&#45;&gt;h1 -->
<g id="edge2" class="edge"><title>s1&#45;&gt;h1</title>
<path fill="none" stroke="#91cf60" d="M86.406,-200.92C79.508,-197.94 71.473,-194.96 63.581,-192.41"/>
<polygon fill="#91cf60" stroke="#91cf60" points="64.3426,-188.984 53.758,-189.45 62.3229,-195.686 64.3426,-188.984"/>
<text text-anchor="middle" x="68.744" y="-185.46" font-family="Times,serif" font-size="14.00">0.01</text>
</g>
<!-- s2&#45;&gt;s1 -->
<g id="edge3" class="edge"><title>s2&#45;&gt;s1</title>
<path fill="none" stroke="#91cf60" d="M173.38,-213.45C163.84,-211.98 152.68,-210.87 142.19,-210.29"/>
<polygon fill="#91cf60" stroke="#91cf60" points="142.147,-206.786 132.02,-209.9 141.879,-213.781 142.147,-206.786"/>
<text text-anchor="middle" x="145.28" y="-200.67" font-family="Times,serif" font-size="14.00">0.13</text>
</g>
<!-- s5 -->
<g id="5" class="node"><title>s5</title>
<ellipse fill="none" stroke="black" cx="199.83" cy="-310.81" rx="27" ry="18"/>
<text text-anchor="middle" x="199.83" y="-307.11" font-family="Times,serif" font-size="14.00">s5</text>
</g>
<!-- s2&#45;&gt;s5 -->
<g id="edge4" class="edge"><title>s2&#45;&gt;s5</title>
<path fill="none" stroke="#91cf60" d="M192.49,-239.33C191.5,-251.75 191.65,-268.59 192.79,-282.8"/>
<polygon fill="#91cf60" stroke="#91cf60" points="189.339,-283.459 193.84,-293.05 196.303,-282.745 189.339,-283.459"/>
<text text-anchor="middle" x="180.14" y="-264.87" font-family="Times,serif" font-size="14.00">0.24</text>
</g>
<!-- s6 -->
<g id="6" class="node"><title>s6</title>
<ellipse fill="none" stroke="black" cx="285.1" cy="-234.6" rx="27" ry="18"/>
<text text-anchor="middle" x="285.1" y="-230.9" font-family="Times,serif" font-size="14.00">s6</text>
</g>
<!-- s2&#45;&gt;s6 -->
<g id="edge5" class="edge"><title>s2&#45;&gt;s6</title>
<path fill="none" stroke="#91cf60" d="M220.57,-231.14C228.94,-233 238.63,-234.64 247.92,-235.79"/>
<polygon fill="#91cf60" stroke="#91cf60" points="247.815,-239.299 258.13,-236.88 248.558,-232.338 247.815,-239.299"/>
<text text-anchor="middle" x="240.49" y="-222.27" font-family="Times,serif" font-size="14.00">0.24</text>
</g>
<!-- s12 -->
<g id="12" class="node"><title>s12</title>
<ellipse fill="none" stroke="black" cx="210.97" cy="-133.05" rx="27" ry="18"/>
<text text-anchor="middle" x="210.97" y="-129.35" font-family="Times,serif" font-size="14.00">s12</text>
</g>
<!-- s2&#45;&gt;s12 -->
<g id="edge6" class="edge"><title>s2&#45;&gt;s12</title>
<path fill="none" stroke="#cb181d" d="M205.85,-204.05C208.99,-191.82 211.74,-175.22 213.06,-161.14"/>
<polygon fill="#cb181d" stroke="#cb181d" points="216.564,-161.21 213.77,-150.99 209.581,-160.721 216.564,-161.21"/>
<text text-anchor="middle" x="196.96" y="-186.4" font-family="Times,serif" font-size="14.00">1.06</text>
</g>
<!-- h2 -->
<g id="node7" class="node"><title>h2</title>
<ellipse fill="none" stroke="black" cx="144.28" cy="-176.08" rx="27" ry="18"/>
<text text-anchor="middle" x="144.28" y="-172.38" font-family="Times,serif" font-size="14.00">h2</text>
</g>
<!-- s2&#45;&gt;h2 -->
<g id="edge7" class="edge"><title>s2&#45;&gt;h2</title>
<path fill="none" stroke="#91cf60" d="M187.2,-204.76C183.51,-200.97 179.18,-196.97 174.7,-193.18"/>
<polygon fill="#91cf60" stroke="#91cf60" points="176.579,-190.2 166.59,-186.67 172.197,-195.659 176.579,-190.2"/>
<text text-anchor="middle" x="176.45" y="-187.77" font-family="Times,serif" font-size="14.00">0.0</text>
</g>
<!-- h1&#45;&gt;s1 -->
<g id="edge8" class="edge"><title>h1&#45;&gt;s1</title>
<path fill="none" stroke="#91cf60" d="M46.066,-199.9C52.965,-202.88 60.999,-205.86 68.891,-208.41"/>
<polygon fill="#91cf60" stroke="#91cf60" points="68.1294,-211.836 78.714,-211.37 70.1491,-205.134 68.1294,-211.836"/>
<text text-anchor="middle" x="44.979" y="-207.95" font-family="Times,serif" font-size="14.00">0.01</text>
</g>
<!-- s5&#45;&gt;s2 -->
<g id="edge9" class="edge"><title>s5&#45;&gt;s2</title>
<path fill="none" stroke="#fc8d59" d="M204.88,-293.03C205.88,-280.61 205.72,-263.77 204.59,-249.56"/>
<polygon fill="#fc8d59" stroke="#fc8d59" points="208.04,-248.897 203.53,-239.31 201.077,-249.617 208.04,-248.897"/>
<text text-anchor="middle" x="217.24" y="-275.09" font-family="Times,serif" font-size="14.00">0.89</text>
</g>
<!-- s7 -->
<g id="7" class="node"><title>s7</title>
<ellipse fill="none" stroke="black" cx="286.97" cy="-322.29" rx="27" ry="18"/>
<text text-anchor="middle" x="286.97" y="-318.59" font-family="Times,serif" font-size="14.00">s7</text>
</g>
<!-- s5&#45;&gt;s7 -->
<g id="edge10" class="edge"><title>s5&#45;&gt;s7</title>
<path fill="none" stroke="#fee08b" d="M223.31,-320.08C231.57,-321.75 241.07,-323.18 250.17,-324.16"/>
<polygon fill="#fee08b" stroke="#fee08b" points="249.92,-327.651 260.19,-325.05 250.539,-320.679 249.92,-327.651"/>
<text text-anchor="middle" x="242.99" y="-310.92" font-family="Times,serif" font-size="14.00">0.68</text>
</g>
<!-- s8 -->
<g id="8" class="node"><title>s8</title>
<ellipse fill="none" stroke="black" cx="183.47" cy="-396.15" rx="27" ry="18"/>
<text text-anchor="middle" x="183.47" y="-392.45" font-family="Times,serif" font-size="14.00">s8</text>
</g>
<!-- s5&#45;&gt;s8 -->
<g id="edge11" class="edge"><title>s5&#45;&gt;s8</title>
<path fill="none" stroke="#fee08b" d="M190.83,-327.84C187.4,-339.36 184.2,-354.81 182.41,-368.11"/>
<polygon fill="#fee08b" stroke="#fee08b" points="178.915,-367.877 181.3,-378.2 185.873,-368.643 178.915,-367.877"/>
<text text-anchor="middle" x="174.12" y="-351.78" font-family="Times,serif" font-size="14.00">0.58</text>
</g>
<!-- h5 -->
<g id="node10" class="node"><title>h5</title>
<ellipse fill="none" stroke="black" cx="119.36" cy="-326.15" rx="27" ry="18"/>
<text text-anchor="middle" x="119.36" y="-322.45" font-family="Times,serif" font-size="14.00">h5</text>
</g>
<!-- s5&#45;&gt;h5 -->
<g id="edge12" class="edge"><title>s5&#45;&gt;h5</title>
<path fill="none" stroke="#91cf60" d="M172.74,-309.5C165.87,-310.42 158.44,-311.73 151.35,-313.27"/>
<polygon fill="#91cf60" stroke="#91cf60" points="150.248,-309.935 141.34,-315.67 151.88,-316.742 150.248,-309.935"/>
<text text-anchor="middle" x="162.05" y="-300.19" font-family="Times,serif" font-size="14.00">0.0</text>
</g>
<!-- s6&#45;&gt;s2 -->
<g id="edge13" class="edge"><title>s6&#45;&gt;s2</title>
<path fill="none" stroke="#fee08b" d="M262.07,-225.01C253.7,-223.15 244.01,-221.52 234.73,-220.36"/>
<polygon fill="#fee08b" stroke="#fee08b" points="234.825,-216.85 224.51,-219.27 234.082,-223.811 234.825,-216.85"/>
<text text-anchor="middle" x="248.4" y="-211.49" font-family="Times,serif" font-size="14.00">0.57</text>
</g>
<!-- s6&#45;&gt;s7 -->
<g id="edge14" class="edge"><title>s6&#45;&gt;s7</title>
<path fill="none" stroke="#d9ef8b" d="M279.93,-252.47C278.91,-264.62 279,-280.93 280.06,-294.74"/>
<polygon fill="#d9ef8b" stroke="#d9ef8b" points="276.577,-295.086 281.05,-304.69 283.543,-294.393 276.577,-295.086"/>
<text text-anchor="middle" x="267.49" y="-277.4" font-family="Times,serif" font-size="14.00">0.38</text>
</g>
<!-- s3 -->
<g id="3" class="node"><title>s3</title>
<ellipse fill="none" stroke="black" cx="329" cy="-158.44" rx="27" ry="18"/>
<text text-anchor="middle" x="329" y="-154.74" font-family="Times,serif" font-size="14.00">s3</text>
</g>
<!-- s6&#45;&gt;s3 -->
<g id="edge15" class="edge"><title>s6&#45;&gt;s3</title>
<path fill="none" stroke="#fee08b" d="M300.56,-219.47C307.36,-209.74 314.95,-196.88 320.72,-185.45"/>
<polygon fill="#fee08b" stroke="#fee08b" points="323.937,-186.834 325.07,-176.3 317.615,-183.829 323.937,-186.834"/>
<text text-anchor="middle" x="323.14" y="-191.26" font-family="Times,serif" font-size="14.00">0.72</text>
</g>
<!-- h6 -->
<g id="node12" class="node"><title>h6</title>
<ellipse fill="none" stroke="black" cx="365.79" cy="-229.83" rx="27" ry="18"/>
<text text-anchor="middle" x="365.79" y="-226.13" font-family="Times,serif" font-size="14.00">h6</text>
</g>
<!-- s6&#45;&gt;h6 -->
<g id="edge16" class="edge"><title>s6&#45;&gt;h6</title>
<path fill="none" stroke="#91cf60" d="M311.45,-239.41C317.76,-239.4 324.59,-239.11 331.21,-238.58"/>
<polygon fill="#91cf60" stroke="#91cf60" points="331.737,-242.045 341.34,-237.57 331.042,-235.079 331.737,-242.045"/>
<text text-anchor="middle" x="327.58" y="-227.79" font-family="Times,serif" font-size="14.00">0.01</text>
</g>
<!-- s12&#45;&gt;s2 -->
<g id="edge17" class="edge"><title>s12&#45;&gt;s2</title>
<path fill="none" stroke="#91cf60" d="M202.66,-150.55C199.52,-162.79 196.77,-179.39 195.45,-193.47"/>
<polygon fill="#91cf60" stroke="#91cf60" points="191.946,-193.4 194.74,-203.62 198.929,-193.889 191.946,-193.4"/>
<text text-anchor="middle" x="186.55" y="-160.81" font-family="Times,serif" font-size="14.00">0.17</text>
</g>
<!-- s9 -->
<g id="9" class="node"><title>s9</title>
<ellipse fill="none" stroke="black" cx="282.29" cy="-94.971" rx="27" ry="18"/>
<text text-anchor="middle" x="282.29" y="-91.271" font-family="Times,serif" font-size="14.00">s9</text>
</g>
<!-- s12&#45;&gt;s9 -->
<g id="edge18" class="edge"><title>s12&#45;&gt;s9</title>
<path fill="none" stroke="#91cf60" d="M236.51,-126.59C243.46,-123.39 250.96,-119.49 257.85,-115.5"/>
<polygon fill="#91cf60" stroke="#91cf60" points="260.037,-118.265 266.74,-110.06 256.383,-112.294 260.037,-118.265"/>
<text text-anchor="middle" x="259.68" y="-124.84" font-family="Times,serif" font-size="14.00">0.19</text>
</g>
<!-- h12 -->
<g id="node14" class="node"><title>h12</title>
<ellipse fill="none" stroke="black" cx="163.17" cy="-63.131" rx="27" ry="18"/>
<text text-anchor="middle" x="163.17" y="-59.431" font-family="Times,serif" font-size="14.00">h12</text>
</g>
<!-- s12&#45;&gt;h12 -->
<g id="edge19" class="edge"><title>s12&#45;&gt;h12</title>
<path fill="none" stroke="#91cf60" d="M205.48,-115.04C200.59,-106.01 193.45,-95.038 186.38,-85.486"/>
<polygon fill="#91cf60" stroke="#91cf60" points="189.131,-83.3217 180.25,-77.544 183.589,-87.5988 189.131,-83.3217"/>
<text text-anchor="middle" x="183.43" y="-104.07" font-family="Times,serif" font-size="14.00">0.13</text>
</g>
<!-- h2&#45;&gt;s2 -->
<g id="edge20" class="edge"><title>h2&#45;&gt;s2</title>
<path fill="none" stroke="#91cf60" d="M154.62,-192.88C158.31,-196.66 162.65,-200.67 167.13,-204.46"/>
<polygon fill="#91cf60" stroke="#91cf60" points="165.243,-207.434 175.23,-210.97 169.628,-201.977 165.243,-207.434"/>
<text text-anchor="middle" x="169.87" y="-202.47" font-family="Times,serif" font-size="14.00">0.0</text>
</g>
<!-- s7&#45;&gt;s5 -->
<g id="edge21" class="edge"><title>s7&#45;&gt;s5</title>
<path fill="none" stroke="#d9ef8b" d="M263.5,-313.02C255.23,-311.35 245.73,-309.92 236.63,-308.94"/>
<polygon fill="#d9ef8b" stroke="#d9ef8b" points="236.891,-305.449 226.62,-308.05 236.271,-312.422 236.891,-305.449"/>
<text text-anchor="middle" x="243.82" y="-299.78" font-family="Times,serif" font-size="14.00">0.25</text>
</g>
<!-- s7&#45;&gt;s6 -->
<g id="edge22" class="edge"><title>s7&#45;&gt;s6</title>
<path fill="none" stroke="#fee08b" d="M292.14,-304.43C293.16,-292.28 293.07,-275.96 292.02,-262.16"/>
<polygon fill="#fee08b" stroke="#fee08b" points="295.502,-261.8 291.02,-252.2 288.537,-262.5 295.502,-261.8"/>
<text text-anchor="middle" x="301.08" y="-287.09" font-family="Times,serif" font-size="14.00">0.7</text>
</g>
<!-- s4 -->
<g id="4" class="node"><title>s4</title>
<ellipse fill="none" stroke="black" cx="308.83" cy="-406.67" rx="27" ry="18"/>
<text text-anchor="middle" x="308.83" y="-402.97" font-family="Times,serif" font-size="14.00">s4</text>
</g>
<!-- s7&#45;&gt;s4 -->
<g id="edge23" class="edge"><title>s7&#45;&gt;s4</title>
<path fill="none" stroke="#d9ef8b" d="M285.96,-340.34C287.66,-351.96 291.31,-367.23 295.36,-380.2"/>
<polygon fill="#d9ef8b" stroke="#d9ef8b" points="292.154,-381.646 298.67,-390 298.786,-379.406 292.154,-381.646"/>
<text text-anchor="middle" x="278.16" y="-349.07" font-family="Times,serif" font-size="14.00">0.46</text>
</g>
<!-- h7 -->
<g id="node16" class="node"><title>h7</title>
<ellipse fill="none" stroke="black" cx="369.56" cy="-325.29" rx="27" ry="18"/>
<text text-anchor="middle" x="369.56" y="-321.59" font-family="Times,serif" font-size="14.00">h7</text>
</g>
<!-- s7&#45;&gt;h7 -->
<g id="edge24" class="edge"><title>s7&#45;&gt;h7</title>
<path fill="none" stroke="#91cf60" d="M311.97,-329.48C318.79,-330.15 326.32,-330.57 333.62,-330.69"/>
<polygon fill="#91cf60" stroke="#91cf60" points="333.701,-334.19 343.69,-330.66 333.68,-327.19 333.701,-334.19"/>
<text text-anchor="middle" x="329.05" y="-318.88" font-family="Times,serif" font-size="14.00">0.01</text>
</g>
<!-- s8&#45;&gt;s5 -->
<g id="edge25" class="edge"><title>s8&#45;&gt;s5</title>
<path fill="none" stroke="#91cf60" d="M192.48,-379.11C195.91,-367.6 199.11,-352.15 200.89,-338.85"/>
<polygon fill="#91cf60" stroke="#91cf60" points="204.385,-339.083 202,-328.76 197.427,-338.317 204.385,-339.083"/>
<text text-anchor="middle" x="209.19" y="-362.78" font-family="Times,serif" font-size="14.00">0.18</text>
</g>
<!-- s10 -->
<g id="10" class="node"><title>s10</title>
<ellipse fill="none" stroke="black" cx="243.42" cy="-453.29" rx="27" ry="18"/>
<text text-anchor="middle" x="243.42" y="-449.59" font-family="Times,serif" font-size="14.00">s10</text>
</g>
<!-- s8&#45;&gt;s10 -->
<g id="edge26" class="edge"><title>s8&#45;&gt;s10</title>
<path fill="none" stroke="#d9ef8b" d="M193.1,-413.29C199.02,-420.15 206.85,-428.01 214.58,-434.97"/>
<polygon fill="#d9ef8b" stroke="#d9ef8b" points="212.347,-437.666 222.2,-441.56 216.926,-432.371 212.347,-437.666"/>
<text text-anchor="middle" x="191.34" y="-427.93" font-family="Times,serif" font-size="14.00">0.35</text>
</g>
<!-- h8 -->
<g id="node18" class="node"><title>h8</title>
<ellipse fill="none" stroke="black" cx="110.25" cy="-439.56" rx="27" ry="18"/>
<text text-anchor="middle" x="110.25" y="-435.86" font-family="Times,serif" font-size="14.00">h8</text>
</g>
<!-- s8&#45;&gt;h8 -->
<g id="edge27" class="edge"><title>s8&#45;&gt;h8</title>
<path fill="none" stroke="#91cf60" d="M158.73,-403.59C150.49,-407.78 141.37,-413.08 133.27,-418.35"/>
<polygon fill="#91cf60" stroke="#91cf60" points="131.272,-415.476 124.98,-424 135.214,-421.26 131.272,-415.476"/>
<text text-anchor="middle" x="133.5" y="-399.77" font-family="Times,serif" font-size="14.00">0.03</text>
</g>
<!-- h5&#45;&gt;s5 -->
<g id="edge28" class="edge"><title>h5&#45;&gt;s5</title>
<path fill="none" stroke="#91cf60" d="M146.46,-327.45C153.32,-326.54 160.76,-325.23 167.84,-323.69"/>
<polygon fill="#91cf60" stroke="#91cf60" points="168.942,-327.025 177.85,-321.29 167.31,-320.218 168.942,-327.025"/>
<text text-anchor="middle" x="169.65" y="-329.37" font-family="Times,serif" font-size="14.00">0.15</text>
</g>
<!-- s3&#45;&gt;s6 -->
<g id="edge29" class="edge"><title>s3&#45;&gt;s6</title>
<path fill="none" stroke="#91cf60" d="M313.54,-173.58C306.74,-183.3 299.15,-196.17 293.38,-207.59"/>
<polygon fill="#91cf60" stroke="#91cf60" points="290.158,-206.215 289.03,-216.75 296.481,-209.218 290.158,-206.215"/>
<text text-anchor="middle" x="290.96" y="-194.38" font-family="Times,serif" font-size="14.00">0.09</text>
</g>
<!-- s3&#45;&gt;s9 -->
<g id="edge30" class="edge"><title>s3&#45;&gt;s9</title>
<path fill="none" stroke="#d9ef8b" d="M323.04,-140.63C318.69,-133.23 312.71,-124.62 306.64,-116.85"/>
<polygon fill="#d9ef8b" stroke="#d9ef8b" points="309.142,-114.381 300.1,-108.86 303.726,-118.815 309.142,-114.381"/>
<text text-anchor="middle" x="327.34" y="-117.54" font-family="Times,serif" font-size="14.00">0.43</text>
</g>
<!-- h3 -->
<g id="node19" class="node"><title>h3</title>
<ellipse fill="none" stroke="black" cx="407.32" cy="-125.85" rx="27" ry="18"/>
<text text-anchor="middle" x="407.32" y="-122.15" font-family="Times,serif" font-size="14.00">h3</text>
</g>
<!-- s3&#45;&gt;h3 -->
<g id="edge31" class="edge"><title>s3&#45;&gt;h3</title>
<path fill="none" stroke="#91cf60" d="M355.34,-154.28C363.42,-151.47 372.33,-147.87 380.45,-144.13"/>
<polygon fill="#91cf60" stroke="#91cf60" points="382.057,-147.241 389.53,-139.73 379.005,-140.941 382.057,-147.241"/>
<text text-anchor="middle" x="380.39" y="-153.01" font-family="Times,serif" font-size="14.00">0.04</text>
</g>
<!-- h6&#45;&gt;s6 -->
<g id="edge32" class="edge"><title>h6&#45;&gt;s6</title>
<path fill="none" stroke="#91cf60" d="M339.44,-225.02C333.13,-225.03 326.3,-225.32 319.68,-225.85"/>
<polygon fill="#91cf60" stroke="#91cf60" points="319.163,-222.384 309.56,-226.86 319.858,-229.35 319.163,-222.384"/>
<text text-anchor="middle" x="323.31" y="-214.23" font-family="Times,serif" font-size="14.00">0.08</text>
</g>
<!-- s9&#45;&gt;s12 -->
<g id="edge33" class="edge"><title>s9&#45;&gt;s12</title>
<path fill="none" stroke="#d9ef8b" d="M256.74,-101.44C249.8,-104.63 242.3,-108.54 235.41,-112.53"/>
<polygon fill="#d9ef8b" stroke="#d9ef8b" points="233.224,-109.764 226.51,-117.96 236.87,-115.739 233.224,-109.764"/>
<text text-anchor="middle" x="233.58" y="-95.784" font-family="Times,serif" font-size="14.00">0.48</text>
</g>
<!-- s9&#45;&gt;s3 -->
<g id="edge34" class="edge"><title>s9&#45;&gt;s3</title>
<path fill="none" stroke="#91cf60" d="M288.25,-112.79C292.61,-120.18 298.58,-128.8 304.65,-136.56"/>
<polygon fill="#91cf60" stroke="#91cf60" points="302.148,-139.029 311.19,-144.55 307.564,-134.595 302.148,-139.029"/>
<text text-anchor="middle" x="283.95" y="-128.48" font-family="Times,serif" font-size="14.00">0.21</text>
</g>
<!-- h9 -->
<g id="node20" class="node"><title>h9</title>
<ellipse fill="none" stroke="black" cx="304.6" cy="-18" rx="27" ry="18"/>
<text text-anchor="middle" x="304.6" y="-14.3" font-family="Times,serif" font-size="14.00">h9</text>
</g>
<!-- s9&#45;&gt;h9 -->
<g id="edge35" class="edge"><title>s9&#45;&gt;h9</title>
<path fill="none" stroke="#91cf60" d="M293.19,-78.356C296.92,-68.921 300.62,-56.874 303.18,-46.023"/>
<polygon fill="#91cf60" stroke="#91cf60" points="306.632,-46.614 305.24,-36.111 299.778,-45.1896 306.632,-46.614"/>
<text text-anchor="middle" x="307.18" y="-50.989" font-family="Times,serif" font-size="14.00">0.0</text>
</g>
<!-- h12&#45;&gt;s12 -->
<g id="edge36" class="edge"><title>h12&#45;&gt;s12</title>
<path fill="none" stroke="#91cf60" d="M168.65,-81.14C173.54,-90.17 180.68,-101.15 187.75,-110.7"/>
<polygon fill="#91cf60" stroke="#91cf60" points="185.004,-112.87 193.89,-118.64 190.541,-108.588 185.004,-112.87"/>
<text text-anchor="middle" x="190.7" y="-84.719" font-family="Times,serif" font-size="14.00">0.02</text>
</g>
<!-- s4&#45;&gt;s7 -->
<g id="edge39" class="edge"><title>s4&#45;&gt;s7</title>
<path fill="none" stroke="#d9ef8b" d="M309.84,-388.62C308.15,-377.01 304.5,-361.73 300.44,-348.76"/>
<polygon fill="#d9ef8b" stroke="#d9ef8b" points="303.651,-347.328 297.14,-338.97 297.018,-349.564 303.651,-347.328"/>
<text text-anchor="middle" x="296.14" y="-372.49" font-family="Times,serif" font-size="14.00">0.3</text>
</g>
<!-- s4&#45;&gt;s10 -->
<g id="edge40" class="edge"><title>s4&#45;&gt;s10</title>
<path fill="none" stroke="#91cf60" d="M285.21,-415.8C278.25,-420.12 270.71,-425.39 263.96,-430.62"/>
<polygon fill="#91cf60" stroke="#91cf60" points="261.48,-428.125 255.93,-437.15 265.897,-433.556 261.48,-428.125"/>
<text text-anchor="middle" x="262.08" y="-412.01" font-family="Times,serif" font-size="14.00">0.19</text>
</g>
<!-- s11 -->
<g id="11" class="node"><title>s11</title>
<ellipse fill="none" stroke="black" cx="310.96" cy="-483.5" rx="27" ry="18"/>
<text text-anchor="middle" x="310.96" y="-479.8" font-family="Times,serif" font-size="14.00">s11</text>
</g>
<!-- s4&#45;&gt;s11 -->
<g id="edge41" class="edge"><title>s4&#45;&gt;s11</title>
<path fill="none" stroke="#d9ef8b" d="M303.53,-424.65C302.84,-433.89 302.92,-445.35 303.67,-455.7"/>
<polygon fill="#d9ef8b" stroke="#d9ef8b" points="300.215,-456.332 304.68,-465.94 307.181,-455.645 300.215,-456.332"/>
<text text-anchor="middle" x="291.1" y="-443.98" font-family="Times,serif" font-size="14.00">0.28</text>
</g>
<!-- h4 -->
<g id="node22" class="node"><title>h4</title>
<ellipse fill="none" stroke="black" cx="392.28" cy="-428.02" rx="27" ry="18"/>
<text text-anchor="middle" x="392.28" y="-424.32" font-family="Times,serif" font-size="14.00">h4</text>
</g>
<!-- s4&#45;&gt;h4 -->
<g id="edge42" class="edge"><title>s4&#45;&gt;h4</title>
<path fill="none" stroke="#91cf60" d="M329.69,-418.26C337.39,-420.85 346.35,-423.36 355.05,-425.4"/>
<polygon fill="#91cf60" stroke="#91cf60" points="354.539,-428.87 365.05,-427.54 356.004,-422.025 354.539,-428.87"/>
<text text-anchor="middle" x="348.62" y="-410.63" font-family="Times,serif" font-size="14.00">0.01</text>
</g>
<!-- h7&#45;&gt;s7 -->
<g id="edge51" class="edge"><title>h7&#45;&gt;s7</title>
<path fill="none" stroke="#91cf60" d="M344.56,-318.11C337.74,-317.43 330.21,-317.02 322.92,-316.9"/>
<polygon fill="#91cf60" stroke="#91cf60" points="322.83,-313.4 312.84,-316.93 322.85,-320.4 322.83,-313.4"/>
<text text-anchor="middle" x="327.49" y="-306.3" font-family="Times,serif" font-size="14.00">0.02</text>
</g>
<!-- s10&#45;&gt;s8 -->
<g id="edge43" class="edge"><title>s10&#45;&gt;s8</title>
<path fill="none" stroke="#d9ef8b" d="M233.79,-436.15C227.87,-429.29 220.05,-421.43 212.32,-414.47"/>
<polygon fill="#d9ef8b" stroke="#d9ef8b" points="214.553,-411.774 204.7,-407.88 209.974,-417.069 214.553,-411.774"/>
<text text-anchor="middle" x="235.56" y="-414.11" font-family="Times,serif" font-size="14.00">0.26</text>
</g>
<!-- s10&#45;&gt;s4 -->
<g id="edge44" class="edge"><title>s10&#45;&gt;s4</title>
<path fill="none" stroke="#91cf60" d="M267.05,-444.16C274.01,-439.84 281.55,-434.58 288.3,-429.35"/>
<polygon fill="#91cf60" stroke="#91cf60" points="290.78,-431.845 296.33,-422.82 286.363,-426.414 290.78,-431.845"/>
<text text-anchor="middle" x="265.17" y="-425.55" font-family="Times,serif" font-size="14.00">0.18</text>
</g>
<!-- s10&#45;&gt;s11 -->
<g id="edge45" class="edge"><title>s10&#45;&gt;s11</title>
<path fill="none" stroke="#91cf60" d="M260.08,-467.48C264.74,-470.03 269.98,-472.59 275.28,-474.93"/>
<polygon fill="#91cf60" stroke="#91cf60" points="274.192,-478.268 284.77,-478.87 276.876,-471.803 274.192,-478.268"/>
<text text-anchor="middle" x="255.18" y="-475.01" font-family="Times,serif" font-size="14.00">0.24</text>
</g>
<!-- h10 -->
<g id="node23" class="node"><title>h10</title>
<ellipse fill="none" stroke="black" cx="210.84" cy="-529.12" rx="27" ry="18"/>
<text text-anchor="middle" x="210.84" y="-525.42" font-family="Times,serif" font-size="14.00">h10</text>
</g>
<!-- s10&#45;&gt;h10 -->
<g id="edge46" class="edge"><title>s10&#45;&gt;h10</title>
<path fill="none" stroke="#91cf60" d="M230.14,-469.33C225.08,-478.68 219.72,-490.71 215.74,-501.54"/>
<polygon fill="#91cf60" stroke="#91cf60" points="212.419,-500.436 212.51,-511.03 219.045,-502.691 212.419,-500.436"/>
<text text-anchor="middle" x="210.44" y="-489.23" font-family="Times,serif" font-size="14.00">0.01</text>
</g>
<!-- h8&#45;&gt;s8 -->
<g id="edge54" class="edge"><title>h8&#45;&gt;s8</title>
<path fill="none" stroke="#91cf60" d="M134.99,-432.12C143.23,-427.93 152.35,-422.64 160.45,-417.37"/>
<polygon fill="#91cf60" stroke="#91cf60" points="162.448,-420.244 168.74,-411.72 158.506,-414.46 162.448,-420.244"/>
<text text-anchor="middle" x="156.72" y="-428.54" font-family="Times,serif" font-size="14.00">0.0</text>
</g>
<!-- h3&#45;&gt;s3 -->
<g id="edge37" class="edge"><title>h3&#45;&gt;s3</title>
<path fill="none" stroke="#91cf60" d="M380.99,-130.01C372.9,-132.82 363.99,-136.42 355.87,-140.16"/>
<polygon fill="#91cf60" stroke="#91cf60" points="354.263,-137.049 346.79,-144.56 357.315,-143.349 354.263,-137.049"/>
<text text-anchor="middle" x="359.43" y="-123.88" font-family="Times,serif" font-size="14.00">0.0</text>
</g>
<!-- h9&#45;&gt;s9 -->
<g id="edge38" class="edge"><title>h9&#45;&gt;s9</title>
<path fill="none" stroke="#91cf60" d="M293.7,-34.616C289.96,-44.05 286.27,-56.097 283.71,-66.948"/>
<polygon fill="#91cf60" stroke="#91cf60" points="280.258,-66.357 281.65,-76.86 287.112,-67.7814 280.258,-66.357"/>
<text text-anchor="middle" x="276.21" y="-54.582" font-family="Times,serif" font-size="14.00">0.01</text>
</g>
<!-- s11&#45;&gt;s4 -->
<g id="edge47" class="edge"><title>s11&#45;&gt;s4</title>
<path fill="none" stroke="#91cf60" d="M316.27,-465.52C316.95,-456.28 316.88,-444.82 316.13,-434.47"/>
<polygon fill="#91cf60" stroke="#91cf60" points="319.585,-433.843 315.11,-424.24 312.62,-434.538 319.585,-433.843"/>
<text text-anchor="middle" x="328.7" y="-453.8" font-family="Times,serif" font-size="14.00">0.17</text>
</g>
<!-- s11&#45;&gt;s10 -->
<g id="edge48" class="edge"><title>s11&#45;&gt;s10</title>
<path fill="none" stroke="#91cf60" d="M294.3,-469.31C289.65,-466.76 284.41,-464.21 279.11,-461.86"/>
<polygon fill="#91cf60" stroke="#91cf60" points="280.188,-458.518 269.61,-457.92 277.506,-464.984 280.188,-458.518"/>
<text text-anchor="middle" x="299.21" y="-454.38" font-family="Times,serif" font-size="14.00">0.15</text>
</g>
<!-- h11 -->
<g id="node24" class="node"><title>h11</title>
<ellipse fill="none" stroke="black" cx="359.04" cy="-547.54" rx="27" ry="18"/>
<text text-anchor="middle" x="359.04" y="-543.84" font-family="Times,serif" font-size="14.00">h11</text>
</g>
<!-- s11&#45;&gt;h11 -->
<g id="edge49" class="edge"><title>s11&#45;&gt;h11</title>
<path fill="none" stroke="#91cf60" d="M317.06,-501.15C321.71,-508.89 328.18,-518.01 334.69,-526.13"/>
<polygon fill="#91cf60" stroke="#91cf60" points="332.035,-528.412 341.14,-533.83 337.402,-523.917 332.035,-528.412"/>
<text text-anchor="middle" x="313.37" y="-517.44" font-family="Times,serif" font-size="14.00">0.04</text>
</g>
<!-- h4&#45;&gt;s4 -->
<g id="edge50" class="edge"><title>h4&#45;&gt;s4</title>
<path fill="none" stroke="#91cf60" d="M371.42,-416.43C363.73,-413.84 354.76,-411.33 346.06,-409.3"/>
<polygon fill="#91cf60" stroke="#91cf60" points="346.572,-405.83 336.06,-407.15 345.101,-412.674 346.572,-405.83"/>
<text text-anchor="middle" x="367.74" y="-401.66" font-family="Times,serif" font-size="14.00">0.0</text>
</g>
<!-- h10&#45;&gt;s10 -->
<g id="edge52" class="edge"><title>h10&#45;&gt;s10</title>
<path fill="none" stroke="#91cf60" d="M224.13,-513.09C229.19,-503.73 234.54,-491.7 238.53,-480.87"/>
<polygon fill="#91cf60" stroke="#91cf60" points="241.851,-481.974 241.76,-471.38 235.225,-479.719 241.851,-481.974"/>
<text text-anchor="middle" x="243.83" y="-500.78" font-family="Times,serif" font-size="14.00">0.01</text>
</g>
<!-- h11&#45;&gt;s11 -->
<g id="edge53" class="edge"><title>h11&#45;&gt;s11</title>
<path fill="none" stroke="#91cf60" d="M352.95,-529.9C348.3,-522.15 341.82,-513.03 335.32,-504.91"/>
<polygon fill="#91cf60" stroke="#91cf60" points="337.972,-502.626 328.86,-497.22 332.612,-507.128 337.972,-502.626"/>
<text text-anchor="middle" x="356.63" y="-506.21" font-family="Times,serif" font-size="14.00">0.02</text>
</g>
</g>
</svg>
