<?xml version="1.0" encoding="utf-8" standalone="no"?>
<!DOCTYPE svg PUBLIC "-//W3C//DTD SVG 1.1//EN"
  "http://www.w3.org/Graphics/SVG/1.1/DTD/svg11.dtd">
<!-- Created with matplotlib (http://matplotlib.org/) -->
<svg height="432pt" version="1.1" viewBox="0 0 864 432" width="864pt" xmlns="http://www.w3.org/2000/svg" xmlns:xlink="http://www.w3.org/1999/xlink">
 <defs>
  <style type="text/css">
*{stroke-linecap:butt;stroke-linejoin:round;stroke-miterlimit:100000;}
  </style>
 </defs>
 <g id="figure_1">
  <g id="patch_1">
   <path d="M 0 432 
L 864 432 
L 864 0 
L 0 0 
z
" style="fill:#ffffff;"/>
  </g>
  <g id="axes_1">
   <g id="patch_2">
    <path d="M 86.4 388.8 
L 691.2 388.8 
L 691.2 43.2 
L 86.4 43.2 
z
" style="fill:#ffffff;"/>
   </g>
   <g id="LineCollection_1">
    <path clip-path="url(#p7a8d7b5b8b)" d="M 136.8 372.393878 
L 136.8 369.349816 
" style="fill:none;stroke:#ff0000;"/>
    <path clip-path="url(#p7a8d7b5b8b)" d="M 388.8 76.131437 
L 388.8 43.593359 
" style="fill:none;stroke:#ff0000;"/>
   </g>
   <g id="LineCollection_2">
    <path clip-path="url(#p7a8d7b5b8b)" d="M 136.8 338.658016 
L 136.8 330.974208 
" style="fill:none;stroke:#bf00bf;"/>
    <path clip-path="url(#p7a8d7b5b8b)" d="M 540 49.660337 
L 540 41.520699 
" style="fill:none;stroke:#bf00bf;"/>
   </g>
   <g id="LineCollection_3">
    <path clip-path="url(#p7a8d7b5b8b)" d="M 136.8 328.553452 
L 136.8 312.50503 
" style="fill:none;stroke:#00bfbf;"/>
    <path clip-path="url(#p7a8d7b5b8b)" d="M 388.8 76.131437 
L 388.8 43.593359 
" style="fill:none;stroke:#00bfbf;"/>
   </g>
   <g id="LineCollection_4">
    <path clip-path="url(#p7a8d7b5b8b)" d="M 136.8 327.385887 
L 136.8 310.677167 
" style="fill:none;stroke:#008000;"/>
    <path clip-path="url(#p7a8d7b5b8b)" d="M 640.8 56.56493 
L 640.8 39.588115 
" style="fill:none;stroke:#008000;"/>
   </g>
   <g id="line2d_1">
    <path clip-path="url(#p7a8d7b5b8b)" d="M 388.8 59.862398 
L 640.8 59.862398 
" style="fill:none;stroke:#ff0000;stroke-dasharray:1.000000,3.000000;stroke-dashoffset:0.0;"/>
   </g>
   <g id="line2d_2">
    <defs>
     <path d="M 3 0 
L -3 -0 
" id="mddb38bd64c" style="stroke:#ff0000;stroke-width:0.5;"/>
    </defs>
    <g clip-path="url(#p7a8d7b5b8b)">
     <use style="fill:#ff0000;stroke:#ff0000;stroke-width:0.5;" x="136.8" xlink:href="#mddb38bd64c" y="372.39387843"/>
     <use style="fill:#ff0000;stroke:#ff0000;stroke-width:0.5;" x="388.8" xlink:href="#mddb38bd64c" y="76.1314374339"/>
    </g>
   </g>
   <g id="line2d_3">
    <g clip-path="url(#p7a8d7b5b8b)">
     <use style="fill:#ff0000;stroke:#ff0000;stroke-width:0.5;" x="136.8" xlink:href="#mddb38bd64c" y="369.349815523"/>
     <use style="fill:#ff0000;stroke:#ff0000;stroke-width:0.5;" x="388.8" xlink:href="#mddb38bd64c" y="43.5933585821"/>
    </g>
   </g>
   <g id="line2d_4">
    <path clip-path="url(#p7a8d7b5b8b)" d="M 136.8 370.871847 
L 388.8 59.862398 
" style="fill:none;stroke:#ff0000;stroke-dasharray:1.000000,3.000000;stroke-dashoffset:0.0;"/>
    <defs>
     <path d="M -4 -0 
L 4 4 
L 4 -4 
z
" id="m14fdcb275f" style="stroke:#000000;stroke-linejoin:miter;stroke-width:0.5;"/>
    </defs>
    <g clip-path="url(#p7a8d7b5b8b)">
     <use style="fill:#ff0000;stroke:#000000;stroke-linejoin:miter;stroke-width:0.5;" x="136.8" xlink:href="#m14fdcb275f" y="370.871846977"/>
     <use style="fill:#ff0000;stroke:#000000;stroke-linejoin:miter;stroke-width:0.5;" x="388.8" xlink:href="#m14fdcb275f" y="59.862398008"/>
    </g>
   </g>
   <g id="line2d_5">
    <path clip-path="url(#p7a8d7b5b8b)" d="M 540 45.590518 
L 640.8 45.590518 
" style="fill:none;stroke:#bf00bf;stroke-dasharray:1.000000,3.000000;stroke-dashoffset:0.0;"/>
   </g>
   <g id="line2d_6">
    <defs>
     <path d="M 3 0 
L -3 -0 
" id="ma897b1f4fa" style="stroke:#bf00bf;stroke-width:0.5;"/>
    </defs>
    <g clip-path="url(#p7a8d7b5b8b)">
     <use style="fill:#bf00bf;stroke:#bf00bf;stroke-width:0.5;" x="136.8" xlink:href="#ma897b1f4fa" y="338.658016464"/>
     <use style="fill:#bf00bf;stroke:#bf00bf;stroke-width:0.5;" x="540.0" xlink:href="#ma897b1f4fa" y="49.6603371667"/>
    </g>
   </g>
   <g id="line2d_7">
    <g clip-path="url(#p7a8d7b5b8b)">
     <use style="fill:#bf00bf;stroke:#bf00bf;stroke-width:0.5;" x="136.8" xlink:href="#ma897b1f4fa" y="330.974208267"/>
     <use style="fill:#bf00bf;stroke:#bf00bf;stroke-width:0.5;" x="540.0" xlink:href="#ma897b1f4fa" y="41.5206992726"/>
    </g>
   </g>
   <g id="line2d_8">
    <path clip-path="url(#p7a8d7b5b8b)" d="M 136.8 334.816112 
L 540 45.590518 
" style="fill:none;stroke:#bf00bf;stroke-dasharray:1.000000,3.000000;stroke-dashoffset:0.0;"/>
    <defs>
     <path d="M 0 -4 
L -4 4 
L 4 4 
z
" id="mb8e1296838" style="stroke:#000000;stroke-linejoin:miter;stroke-width:0.5;"/>
    </defs>
    <g clip-path="url(#p7a8d7b5b8b)">
     <use style="fill:#bf00bf;stroke:#000000;stroke-linejoin:miter;stroke-width:0.5;" x="136.8" xlink:href="#mb8e1296838" y="334.816112366"/>
     <use style="fill:#bf00bf;stroke:#000000;stroke-linejoin:miter;stroke-width:0.5;" x="540.0" xlink:href="#mb8e1296838" y="45.5905182197"/>
    </g>
   </g>
   <g id="line2d_9">
    <path clip-path="url(#p7a8d7b5b8b)" d="M 388.8 59.862398 
L 640.8 59.862398 
" style="fill:none;stroke:#00bfbf;stroke-dasharray:1.000000,3.000000;stroke-dashoffset:0.0;"/>
   </g>
   <g id="line2d_10">
    <defs>
     <path d="M 3 0 
L -3 -0 
" id="mb1dfc672fc" style="stroke:#00bfbf;stroke-width:0.5;"/>
    </defs>
    <g clip-path="url(#p7a8d7b5b8b)">
     <use style="fill:#00bfbf;stroke:#00bfbf;stroke-width:0.5;" x="136.8" xlink:href="#mb1dfc672fc" y="328.553452078"/>
     <use style="fill:#00bfbf;stroke:#00bfbf;stroke-width:0.5;" x="388.8" xlink:href="#mb1dfc672fc" y="76.1314374339"/>
    </g>
   </g>
   <g id="line2d_11">
    <g clip-path="url(#p7a8d7b5b8b)">
     <use style="fill:#00bfbf;stroke:#00bfbf;stroke-width:0.5;" x="136.8" xlink:href="#mb1dfc672fc" y="312.505030168"/>
     <use style="fill:#00bfbf;stroke:#00bfbf;stroke-width:0.5;" x="388.8" xlink:href="#mb1dfc672fc" y="43.5933585821"/>
    </g>
   </g>
   <g id="line2d_12">
    <path clip-path="url(#p7a8d7b5b8b)" d="M 136.8 320.529241 
L 388.8 59.862398 
" style="fill:none;stroke:#00bfbf;stroke-dasharray:1.000000,3.000000;stroke-dashoffset:0.0;"/>
    <defs>
     <path d="M -0 4 
L 4 -4 
L -4 -4 
z
" id="m2bcd07f3ec" style="stroke:#000000;stroke-linejoin:miter;stroke-width:0.5;"/>
    </defs>
    <g clip-path="url(#p7a8d7b5b8b)">
     <use style="fill:#00bfbf;stroke:#000000;stroke-linejoin:miter;stroke-width:0.5;" x="136.8" xlink:href="#m2bcd07f3ec" y="320.529241123"/>
     <use style="fill:#00bfbf;stroke:#000000;stroke-linejoin:miter;stroke-width:0.5;" x="388.8" xlink:href="#m2bcd07f3ec" y="59.862398008"/>
    </g>
   </g>
   <g id="line2d_13">
    <path clip-path="url(#p7a8d7b5b8b)" d="M 640.8 48.076523 
L 640.8 48.076523 
" style="fill:none;stroke:#008000;stroke-dasharray:1.000000,3.000000;stroke-dashoffset:0.0;"/>
   </g>
   <g id="line2d_14">
    <defs>
     <path d="M 3 0 
L -3 -0 
" id="m648ef158d5" style="stroke:#008000;stroke-width:0.5;"/>
    </defs>
    <g clip-path="url(#p7a8d7b5b8b)">
     <use style="fill:#008000;stroke:#008000;stroke-width:0.5;" x="136.8" xlink:href="#m648ef158d5" y="327.385887444"/>
     <use style="fill:#008000;stroke:#008000;stroke-width:0.5;" x="640.8" xlink:href="#m648ef158d5" y="56.5649303062"/>
    </g>
   </g>
   <g id="line2d_15">
    <g clip-path="url(#p7a8d7b5b8b)">
     <use style="fill:#008000;stroke:#008000;stroke-width:0.5;" x="136.8" xlink:href="#m648ef158d5" y="310.67716745"/>
     <use style="fill:#008000;stroke:#008000;stroke-width:0.5;" x="640.8" xlink:href="#m648ef158d5" y="39.5881149126"/>
    </g>
   </g>
   <g id="line2d_16">
    <path clip-path="url(#p7a8d7b5b8b)" d="M 136.8 319.031527 
L 640.8 48.076523 
" style="fill:none;stroke:#008000;stroke-dasharray:1.000000,3.000000;stroke-dashoffset:0.0;"/>
    <defs>
     <path d="M 4 0 
L -4 -4 
L -4 4 
z
" id="mf9ece43cb3" style="stroke:#000000;stroke-linejoin:miter;stroke-width:0.5;"/>
    </defs>
    <g clip-path="url(#p7a8d7b5b8b)">
     <use style="fill:#008000;stroke:#000000;stroke-linejoin:miter;stroke-width:0.5;" x="136.8" xlink:href="#mf9ece43cb3" y="319.031527447"/>
     <use style="fill:#008000;stroke:#000000;stroke-linejoin:miter;stroke-width:0.5;" x="640.8" xlink:href="#mf9ece43cb3" y="48.0765226094"/>
    </g>
   </g>
   <g id="patch_3">
    <path d="M 86.4 43.2 
L 691.2 43.2 
" style="fill:none;stroke:#000000;stroke-linecap:square;stroke-linejoin:miter;"/>
   </g>
   <g id="patch_4">
    <path d="M 691.2 388.8 
L 691.2 43.2 
" style="fill:none;stroke:#000000;stroke-linecap:square;stroke-linejoin:miter;"/>
   </g>
   <g id="patch_5">
    <path d="M 86.4 388.8 
L 691.2 388.8 
" style="fill:none;stroke:#000000;stroke-linecap:square;stroke-linejoin:miter;"/>
   </g>
   <g id="patch_6">
    <path d="M 86.4 388.8 
L 86.4 43.2 
" style="fill:none;stroke:#000000;stroke-linecap:square;stroke-linejoin:miter;"/>
   </g>
   <g id="matplotlib.axis_1">
    <g id="xtick_1">
     <g id="line2d_17">
      <defs>
       <path d="M 0 0 
L 0 -4 
" id="mafad2009dc" style="stroke:#000000;stroke-width:0.5;"/>
      </defs>
      <g>
       <use style="stroke:#000000;stroke-width:0.5;" x="86.4" xlink:href="#mafad2009dc" y="388.8"/>
      </g>
     </g>
     <g id="line2d_18">
      <defs>
       <path d="M 0 0 
L 0 4 
" id="m717fc22a95" style="stroke:#000000;stroke-width:0.5;"/>
      </defs>
      <g>
       <use style="stroke:#000000;stroke-width:0.5;" x="86.4" xlink:href="#m717fc22a95" y="43.2"/>
      </g>
     </g>
     <g id="text_1">
      <!-- 2 -->
      <defs>
       <path d="M 19.1875 8.296875 
L 53.609375 8.296875 
L 53.609375 0 
L 7.328125 0 
L 7.328125 8.296875 
Q 12.9375 14.109375 22.625 23.890625 
Q 32.328125 33.6875 34.8125 36.53125 
Q 39.546875 41.84375 41.421875 45.53125 
Q 43.3125 49.21875 43.3125 52.78125 
Q 43.3125 58.59375 39.234375 62.25 
Q 35.15625 65.921875 28.609375 65.921875 
Q 23.96875 65.921875 18.8125 64.3125 
Q 13.671875 62.703125 7.8125 59.421875 
L 7.8125 69.390625 
Q 13.765625 71.78125 18.9375 73 
Q 24.125 74.21875 28.421875 74.21875 
Q 39.75 74.21875 46.484375 68.546875 
Q 53.21875 62.890625 53.21875 53.421875 
Q 53.21875 48.921875 51.53125 44.890625 
Q 49.859375 40.875 45.40625 35.40625 
Q 44.1875 33.984375 37.640625 27.21875 
Q 31.109375 20.453125 19.1875 8.296875 
" id="BitstreamVeraSans-Roman-32"/>
      </defs>
      <g transform="translate(81.628125 404.19765625)scale(0.15 -0.15)">
       <use xlink:href="#BitstreamVeraSans-Roman-32"/>
      </g>
     </g>
    </g>
    <g id="xtick_2">
     <g id="line2d_19">
      <g>
       <use style="stroke:#000000;stroke-width:0.5;" x="187.2" xlink:href="#mafad2009dc" y="388.8"/>
      </g>
     </g>
     <g id="line2d_20">
      <g>
       <use style="stroke:#000000;stroke-width:0.5;" x="187.2" xlink:href="#m717fc22a95" y="43.2"/>
      </g>
     </g>
     <g id="text_2">
      <!-- 4 -->
      <defs>
       <path d="M 37.796875 64.3125 
L 12.890625 25.390625 
L 37.796875 25.390625 
z
M 35.203125 72.90625 
L 47.609375 72.90625 
L 47.609375 25.390625 
L 58.015625 25.390625 
L 58.015625 17.1875 
L 47.609375 17.1875 
L 47.609375 0 
L 37.796875 0 
L 37.796875 17.1875 
L 4.890625 17.1875 
L 4.890625 26.703125 
z
" id="BitstreamVeraSans-Roman-34"/>
      </defs>
      <g transform="translate(182.428125 404.19765625)scale(0.15 -0.15)">
       <use xlink:href="#BitstreamVeraSans-Roman-34"/>
      </g>
     </g>
    </g>
    <g id="xtick_3">
     <g id="line2d_21">
      <g>
       <use style="stroke:#000000;stroke-width:0.5;" x="288.0" xlink:href="#mafad2009dc" y="388.8"/>
      </g>
     </g>
     <g id="line2d_22">
      <g>
       <use style="stroke:#000000;stroke-width:0.5;" x="288.0" xlink:href="#m717fc22a95" y="43.2"/>
      </g>
     </g>
     <g id="text_3">
      <!-- 6 -->
      <defs>
       <path d="M 33.015625 40.375 
Q 26.375 40.375 22.484375 35.828125 
Q 18.609375 31.296875 18.609375 23.390625 
Q 18.609375 15.53125 22.484375 10.953125 
Q 26.375 6.390625 33.015625 6.390625 
Q 39.65625 6.390625 43.53125 10.953125 
Q 47.40625 15.53125 47.40625 23.390625 
Q 47.40625 31.296875 43.53125 35.828125 
Q 39.65625 40.375 33.015625 40.375 
M 52.59375 71.296875 
L 52.59375 62.3125 
Q 48.875 64.0625 45.09375 64.984375 
Q 41.3125 65.921875 37.59375 65.921875 
Q 27.828125 65.921875 22.671875 59.328125 
Q 17.53125 52.734375 16.796875 39.40625 
Q 19.671875 43.65625 24.015625 45.921875 
Q 28.375 48.1875 33.59375 48.1875 
Q 44.578125 48.1875 50.953125 41.515625 
Q 57.328125 34.859375 57.328125 23.390625 
Q 57.328125 12.15625 50.6875 5.359375 
Q 44.046875 -1.421875 33.015625 -1.421875 
Q 20.359375 -1.421875 13.671875 8.265625 
Q 6.984375 17.96875 6.984375 36.375 
Q 6.984375 53.65625 15.1875 63.9375 
Q 23.390625 74.21875 37.203125 74.21875 
Q 40.921875 74.21875 44.703125 73.484375 
Q 48.484375 72.75 52.59375 71.296875 
" id="BitstreamVeraSans-Roman-36"/>
      </defs>
      <g transform="translate(283.228125 404.19765625)scale(0.15 -0.15)">
       <use xlink:href="#BitstreamVeraSans-Roman-36"/>
      </g>
     </g>
    </g>
    <g id="xtick_4">
     <g id="line2d_23">
      <g>
       <use style="stroke:#000000;stroke-width:0.5;" x="388.8" xlink:href="#mafad2009dc" y="388.8"/>
      </g>
     </g>
     <g id="line2d_24">
      <g>
       <use style="stroke:#000000;stroke-width:0.5;" x="388.8" xlink:href="#m717fc22a95" y="43.2"/>
      </g>
     </g>
     <g id="text_4">
      <!-- 8 -->
      <defs>
       <path d="M 31.78125 34.625 
Q 24.75 34.625 20.71875 30.859375 
Q 16.703125 27.09375 16.703125 20.515625 
Q 16.703125 13.921875 20.71875 10.15625 
Q 24.75 6.390625 31.78125 6.390625 
Q 38.8125 6.390625 42.859375 10.171875 
Q 46.921875 13.96875 46.921875 20.515625 
Q 46.921875 27.09375 42.890625 30.859375 
Q 38.875 34.625 31.78125 34.625 
M 21.921875 38.8125 
Q 15.578125 40.375 12.03125 44.71875 
Q 8.5 49.078125 8.5 55.328125 
Q 8.5 64.0625 14.71875 69.140625 
Q 20.953125 74.21875 31.78125 74.21875 
Q 42.671875 74.21875 48.875 69.140625 
Q 55.078125 64.0625 55.078125 55.328125 
Q 55.078125 49.078125 51.53125 44.71875 
Q 48 40.375 41.703125 38.8125 
Q 48.828125 37.15625 52.796875 32.3125 
Q 56.78125 27.484375 56.78125 20.515625 
Q 56.78125 9.90625 50.3125 4.234375 
Q 43.84375 -1.421875 31.78125 -1.421875 
Q 19.734375 -1.421875 13.25 4.234375 
Q 6.78125 9.90625 6.78125 20.515625 
Q 6.78125 27.484375 10.78125 32.3125 
Q 14.796875 37.15625 21.921875 38.8125 
M 18.3125 54.390625 
Q 18.3125 48.734375 21.84375 45.5625 
Q 25.390625 42.390625 31.78125 42.390625 
Q 38.140625 42.390625 41.71875 45.5625 
Q 45.3125 48.734375 45.3125 54.390625 
Q 45.3125 60.0625 41.71875 63.234375 
Q 38.140625 66.40625 31.78125 66.40625 
Q 25.390625 66.40625 21.84375 63.234375 
Q 18.3125 60.0625 18.3125 54.390625 
" id="BitstreamVeraSans-Roman-38"/>
      </defs>
      <g transform="translate(384.028125 404.19765625)scale(0.15 -0.15)">
       <use xlink:href="#BitstreamVeraSans-Roman-38"/>
      </g>
     </g>
    </g>
    <g id="xtick_5">
     <g id="line2d_25">
      <g>
       <use style="stroke:#000000;stroke-width:0.5;" x="489.6" xlink:href="#mafad2009dc" y="388.8"/>
      </g>
     </g>
     <g id="line2d_26">
      <g>
       <use style="stroke:#000000;stroke-width:0.5;" x="489.6" xlink:href="#m717fc22a95" y="43.2"/>
      </g>
     </g>
     <g id="text_5">
      <!-- 10 -->
      <defs>
       <path d="M 31.78125 66.40625 
Q 24.171875 66.40625 20.328125 58.90625 
Q 16.5 51.421875 16.5 36.375 
Q 16.5 21.390625 20.328125 13.890625 
Q 24.171875 6.390625 31.78125 6.390625 
Q 39.453125 6.390625 43.28125 13.890625 
Q 47.125 21.390625 47.125 36.375 
Q 47.125 51.421875 43.28125 58.90625 
Q 39.453125 66.40625 31.78125 66.40625 
M 31.78125 74.21875 
Q 44.046875 74.21875 50.515625 64.515625 
Q 56.984375 54.828125 56.984375 36.375 
Q 56.984375 17.96875 50.515625 8.265625 
Q 44.046875 -1.421875 31.78125 -1.421875 
Q 19.53125 -1.421875 13.0625 8.265625 
Q 6.59375 17.96875 6.59375 36.375 
Q 6.59375 54.828125 13.0625 64.515625 
Q 19.53125 74.21875 31.78125 74.21875 
" id="BitstreamVeraSans-Roman-30"/>
       <path d="M 12.40625 8.296875 
L 28.515625 8.296875 
L 28.515625 63.921875 
L 10.984375 60.40625 
L 10.984375 69.390625 
L 28.421875 72.90625 
L 38.28125 72.90625 
L 38.28125 8.296875 
L 54.390625 8.296875 
L 54.390625 0 
L 12.40625 0 
z
" id="BitstreamVeraSans-Roman-31"/>
      </defs>
      <g transform="translate(480.05625 404.19765625)scale(0.15 -0.15)">
       <use xlink:href="#BitstreamVeraSans-Roman-31"/>
       <use x="63.623046875" xlink:href="#BitstreamVeraSans-Roman-30"/>
      </g>
     </g>
    </g>
    <g id="xtick_6">
     <g id="line2d_27">
      <g>
       <use style="stroke:#000000;stroke-width:0.5;" x="590.4" xlink:href="#mafad2009dc" y="388.8"/>
      </g>
     </g>
     <g id="line2d_28">
      <g>
       <use style="stroke:#000000;stroke-width:0.5;" x="590.4" xlink:href="#m717fc22a95" y="43.2"/>
      </g>
     </g>
     <g id="text_6">
      <!-- 12 -->
      <g transform="translate(580.85625 404.19765625)scale(0.15 -0.15)">
       <use xlink:href="#BitstreamVeraSans-Roman-31"/>
       <use x="63.623046875" xlink:href="#BitstreamVeraSans-Roman-32"/>
      </g>
     </g>
    </g>
    <g id="xtick_7">
     <g id="line2d_29">
      <g>
       <use style="stroke:#000000;stroke-width:0.5;" x="691.2" xlink:href="#mafad2009dc" y="388.8"/>
      </g>
     </g>
     <g id="line2d_30">
      <g>
       <use style="stroke:#000000;stroke-width:0.5;" x="691.2" xlink:href="#m717fc22a95" y="43.2"/>
      </g>
     </g>
     <g id="text_7">
      <!-- 14 -->
      <g transform="translate(681.65625 404.19765625)scale(0.15 -0.15)">
       <use xlink:href="#BitstreamVeraSans-Roman-31"/>
       <use x="63.623046875" xlink:href="#BitstreamVeraSans-Roman-34"/>
      </g>
     </g>
    </g>
    <g id="text_8">
     <!-- Path Length -->
     <defs>
      <path id="BitstreamVeraSans-Roman-20"/>
      <path d="M 9.8125 72.90625 
L 19.671875 72.90625 
L 19.671875 8.296875 
L 55.171875 8.296875 
L 55.171875 0 
L 9.8125 0 
z
" id="BitstreamVeraSans-Roman-4c"/>
      <path d="M 54.890625 33.015625 
L 54.890625 0 
L 45.90625 0 
L 45.90625 32.71875 
Q 45.90625 40.484375 42.875 44.328125 
Q 39.84375 48.1875 33.796875 48.1875 
Q 26.515625 48.1875 22.3125 43.546875 
Q 18.109375 38.921875 18.109375 30.90625 
L 18.109375 0 
L 9.078125 0 
L 9.078125 54.6875 
L 18.109375 54.6875 
L 18.109375 46.1875 
Q 21.34375 51.125 25.703125 53.5625 
Q 30.078125 56 35.796875 56 
Q 45.21875 56 50.046875 50.171875 
Q 54.890625 44.34375 54.890625 33.015625 
" id="BitstreamVeraSans-Roman-6e"/>
      <path d="M 19.671875 64.796875 
L 19.671875 37.40625 
L 32.078125 37.40625 
Q 38.96875 37.40625 42.71875 40.96875 
Q 46.484375 44.53125 46.484375 51.125 
Q 46.484375 57.671875 42.71875 61.234375 
Q 38.96875 64.796875 32.078125 64.796875 
z
M 9.8125 72.90625 
L 32.078125 72.90625 
Q 44.34375 72.90625 50.609375 67.359375 
Q 56.890625 61.8125 56.890625 51.125 
Q 56.890625 40.328125 50.609375 34.8125 
Q 44.34375 29.296875 32.078125 29.296875 
L 19.671875 29.296875 
L 19.671875 0 
L 9.8125 0 
z
" id="BitstreamVeraSans-Roman-50"/>
      <path d="M 54.890625 33.015625 
L 54.890625 0 
L 45.90625 0 
L 45.90625 32.71875 
Q 45.90625 40.484375 42.875 44.328125 
Q 39.84375 48.1875 33.796875 48.1875 
Q 26.515625 48.1875 22.3125 43.546875 
Q 18.109375 38.921875 18.109375 30.90625 
L 18.109375 0 
L 9.078125 0 
L 9.078125 75.984375 
L 18.109375 75.984375 
L 18.109375 46.1875 
Q 21.34375 51.125 25.703125 53.5625 
Q 30.078125 56 35.796875 56 
Q 45.21875 56 50.046875 50.171875 
Q 54.890625 44.34375 54.890625 33.015625 
" id="BitstreamVeraSans-Roman-68"/>
      <path d="M 56.203125 29.59375 
L 56.203125 25.203125 
L 14.890625 25.203125 
Q 15.484375 15.921875 20.484375 11.0625 
Q 25.484375 6.203125 34.421875 6.203125 
Q 39.59375 6.203125 44.453125 7.46875 
Q 49.3125 8.734375 54.109375 11.28125 
L 54.109375 2.78125 
Q 49.265625 0.734375 44.1875 -0.34375 
Q 39.109375 -1.421875 33.890625 -1.421875 
Q 20.796875 -1.421875 13.15625 6.1875 
Q 5.515625 13.8125 5.515625 26.8125 
Q 5.515625 40.234375 12.765625 48.109375 
Q 20.015625 56 32.328125 56 
Q 43.359375 56 49.78125 48.890625 
Q 56.203125 41.796875 56.203125 29.59375 
M 47.21875 32.234375 
Q 47.125 39.59375 43.09375 43.984375 
Q 39.0625 48.390625 32.421875 48.390625 
Q 24.90625 48.390625 20.390625 44.140625 
Q 15.875 39.890625 15.1875 32.171875 
z
" id="BitstreamVeraSans-Roman-65"/>
      <path d="M 18.3125 70.21875 
L 18.3125 54.6875 
L 36.8125 54.6875 
L 36.8125 47.703125 
L 18.3125 47.703125 
L 18.3125 18.015625 
Q 18.3125 11.328125 20.140625 9.421875 
Q 21.96875 7.515625 27.59375 7.515625 
L 36.8125 7.515625 
L 36.8125 0 
L 27.59375 0 
Q 17.1875 0 13.234375 3.875 
Q 9.28125 7.765625 9.28125 18.015625 
L 9.28125 47.703125 
L 2.6875 47.703125 
L 2.6875 54.6875 
L 9.28125 54.6875 
L 9.28125 70.21875 
z
" id="BitstreamVeraSans-Roman-74"/>
      <path d="M 34.28125 27.484375 
Q 23.390625 27.484375 19.1875 25 
Q 14.984375 22.515625 14.984375 16.5 
Q 14.984375 11.71875 18.140625 8.90625 
Q 21.296875 6.109375 26.703125 6.109375 
Q 34.1875 6.109375 38.703125 11.40625 
Q 43.21875 16.703125 43.21875 25.484375 
L 43.21875 27.484375 
z
M 52.203125 31.203125 
L 52.203125 0 
L 43.21875 0 
L 43.21875 8.296875 
Q 40.140625 3.328125 35.546875 0.953125 
Q 30.953125 -1.421875 24.3125 -1.421875 
Q 15.921875 -1.421875 10.953125 3.296875 
Q 6 8.015625 6 15.921875 
Q 6 25.140625 12.171875 29.828125 
Q 18.359375 34.515625 30.609375 34.515625 
L 43.21875 34.515625 
L 43.21875 35.40625 
Q 43.21875 41.609375 39.140625 45 
Q 35.0625 48.390625 27.6875 48.390625 
Q 23 48.390625 18.546875 47.265625 
Q 14.109375 46.140625 10.015625 43.890625 
L 10.015625 52.203125 
Q 14.9375 54.109375 19.578125 55.046875 
Q 24.21875 56 28.609375 56 
Q 40.484375 56 46.34375 49.84375 
Q 52.203125 43.703125 52.203125 31.203125 
" id="BitstreamVeraSans-Roman-61"/>
      <path d="M 45.40625 27.984375 
Q 45.40625 37.75 41.375 43.109375 
Q 37.359375 48.484375 30.078125 48.484375 
Q 22.859375 48.484375 18.828125 43.109375 
Q 14.796875 37.75 14.796875 27.984375 
Q 14.796875 18.265625 18.828125 12.890625 
Q 22.859375 7.515625 30.078125 7.515625 
Q 37.359375 7.515625 41.375 12.890625 
Q 45.40625 18.265625 45.40625 27.984375 
M 54.390625 6.78125 
Q 54.390625 -7.171875 48.1875 -13.984375 
Q 42 -20.796875 29.203125 -20.796875 
Q 24.46875 -20.796875 20.265625 -20.09375 
Q 16.0625 -19.390625 12.109375 -17.921875 
L 12.109375 -9.1875 
Q 16.0625 -11.328125 19.921875 -12.34375 
Q 23.78125 -13.375 27.78125 -13.375 
Q 36.625 -13.375 41.015625 -8.765625 
Q 45.40625 -4.15625 45.40625 5.171875 
L 45.40625 9.625 
Q 42.625 4.78125 38.28125 2.390625 
Q 33.9375 0 27.875 0 
Q 17.828125 0 11.671875 7.65625 
Q 5.515625 15.328125 5.515625 27.984375 
Q 5.515625 40.671875 11.671875 48.328125 
Q 17.828125 56 27.875 56 
Q 33.9375 56 38.28125 53.609375 
Q 42.625 51.21875 45.40625 46.390625 
L 45.40625 54.6875 
L 54.390625 54.6875 
z
" id="BitstreamVeraSans-Roman-67"/>
     </defs>
     <g transform="translate(343.608984375 423.71484375)scale(0.15 -0.15)">
      <use xlink:href="#BitstreamVeraSans-Roman-50"/>
      <use x="60.240234375" xlink:href="#BitstreamVeraSans-Roman-61"/>
      <use x="121.51953125" xlink:href="#BitstreamVeraSans-Roman-74"/>
      <use x="160.728515625" xlink:href="#BitstreamVeraSans-Roman-68"/>
      <use x="224.107421875" xlink:href="#BitstreamVeraSans-Roman-20"/>
      <use x="255.89453125" xlink:href="#BitstreamVeraSans-Roman-4c"/>
      <use x="311.591796875" xlink:href="#BitstreamVeraSans-Roman-65"/>
      <use x="373.115234375" xlink:href="#BitstreamVeraSans-Roman-6e"/>
      <use x="436.494140625" xlink:href="#BitstreamVeraSans-Roman-67"/>
      <use x="499.970703125" xlink:href="#BitstreamVeraSans-Roman-74"/>
      <use x="539.1796875" xlink:href="#BitstreamVeraSans-Roman-68"/>
     </g>
    </g>
   </g>
   <g id="matplotlib.axis_2">
    <g id="ytick_1">
     <g id="line2d_31">
      <defs>
       <path d="M 0 0 
L 4 0 
" id="m4a48e85048" style="stroke:#000000;stroke-width:0.5;"/>
      </defs>
      <g>
       <use style="stroke:#000000;stroke-width:0.5;" x="86.4" xlink:href="#m4a48e85048" y="388.8"/>
      </g>
     </g>
     <g id="line2d_32">
      <defs>
       <path d="M 0 0 
L -4 0 
" id="m9f38d48f21" style="stroke:#000000;stroke-width:0.5;"/>
      </defs>
      <g>
       <use style="stroke:#000000;stroke-width:0.5;" x="691.2" xlink:href="#m9f38d48f21" y="388.8"/>
      </g>
     </g>
     <g id="text_9">
      <!-- 0.0 -->
      <defs>
       <path d="M 10.6875 12.40625 
L 21 12.40625 
L 21 0 
L 10.6875 0 
z
" id="BitstreamVeraSans-Roman-2e"/>
      </defs>
      <g transform="translate(58.5453125 392.9390625)scale(0.15 -0.15)">
       <use xlink:href="#BitstreamVeraSans-Roman-30"/>
       <use x="63.623046875" xlink:href="#BitstreamVeraSans-Roman-2e"/>
       <use x="95.41015625" xlink:href="#BitstreamVeraSans-Roman-30"/>
      </g>
     </g>
    </g>
    <g id="ytick_2">
     <g id="line2d_33">
      <g>
       <use style="stroke:#000000;stroke-width:0.5;" x="86.4" xlink:href="#m4a48e85048" y="319.68"/>
      </g>
     </g>
     <g id="line2d_34">
      <g>
       <use style="stroke:#000000;stroke-width:0.5;" x="691.2" xlink:href="#m9f38d48f21" y="319.68"/>
      </g>
     </g>
     <g id="text_10">
      <!-- 0.2 -->
      <g transform="translate(58.5453125 323.8190625)scale(0.15 -0.15)">
       <use xlink:href="#BitstreamVeraSans-Roman-30"/>
       <use x="63.623046875" xlink:href="#BitstreamVeraSans-Roman-2e"/>
       <use x="95.41015625" xlink:href="#BitstreamVeraSans-Roman-32"/>
      </g>
     </g>
    </g>
    <g id="ytick_3">
     <g id="line2d_35">
      <g>
       <use style="stroke:#000000;stroke-width:0.5;" x="86.4" xlink:href="#m4a48e85048" y="250.56"/>
      </g>
     </g>
     <g id="line2d_36">
      <g>
       <use style="stroke:#000000;stroke-width:0.5;" x="691.2" xlink:href="#m9f38d48f21" y="250.56"/>
      </g>
     </g>
     <g id="text_11">
      <!-- 0.4 -->
      <g transform="translate(58.5453125 254.6990625)scale(0.15 -0.15)">
       <use xlink:href="#BitstreamVeraSans-Roman-30"/>
       <use x="63.623046875" xlink:href="#BitstreamVeraSans-Roman-2e"/>
       <use x="95.41015625" xlink:href="#BitstreamVeraSans-Roman-34"/>
      </g>
     </g>
    </g>
    <g id="ytick_4">
     <g id="line2d_37">
      <g>
       <use style="stroke:#000000;stroke-width:0.5;" x="86.4" xlink:href="#m4a48e85048" y="181.44"/>
      </g>
     </g>
     <g id="line2d_38">
      <g>
       <use style="stroke:#000000;stroke-width:0.5;" x="691.2" xlink:href="#m9f38d48f21" y="181.44"/>
      </g>
     </g>
     <g id="text_12">
      <!-- 0.6 -->
      <g transform="translate(58.5453125 185.5790625)scale(0.15 -0.15)">
       <use xlink:href="#BitstreamVeraSans-Roman-30"/>
       <use x="63.623046875" xlink:href="#BitstreamVeraSans-Roman-2e"/>
       <use x="95.41015625" xlink:href="#BitstreamVeraSans-Roman-36"/>
      </g>
     </g>
    </g>
    <g id="ytick_5">
     <g id="line2d_39">
      <g>
       <use style="stroke:#000000;stroke-width:0.5;" x="86.4" xlink:href="#m4a48e85048" y="112.32"/>
      </g>
     </g>
     <g id="line2d_40">
      <g>
       <use style="stroke:#000000;stroke-width:0.5;" x="691.2" xlink:href="#m9f38d48f21" y="112.32"/>
      </g>
     </g>
     <g id="text_13">
      <!-- 0.8 -->
      <g transform="translate(58.5453125 116.4590625)scale(0.15 -0.15)">
       <use xlink:href="#BitstreamVeraSans-Roman-30"/>
       <use x="63.623046875" xlink:href="#BitstreamVeraSans-Roman-2e"/>
       <use x="95.41015625" xlink:href="#BitstreamVeraSans-Roman-38"/>
      </g>
     </g>
    </g>
    <g id="ytick_6">
     <g id="line2d_41">
      <g>
       <use style="stroke:#000000;stroke-width:0.5;" x="86.4" xlink:href="#m4a48e85048" y="43.2"/>
      </g>
     </g>
     <g id="line2d_42">
      <g>
       <use style="stroke:#000000;stroke-width:0.5;" x="691.2" xlink:href="#m9f38d48f21" y="43.2"/>
      </g>
     </g>
     <g id="text_14">
      <!-- 1.0 -->
      <g transform="translate(58.5453125 47.3390625)scale(0.15 -0.15)">
       <use xlink:href="#BitstreamVeraSans-Roman-31"/>
       <use x="63.623046875" xlink:href="#BitstreamVeraSans-Roman-2e"/>
       <use x="95.41015625" xlink:href="#BitstreamVeraSans-Roman-30"/>
      </g>
     </g>
    </g>
    <g id="text_15">
     <!-- CDF (fraction of demand delivered) -->
     <defs>
      <path d="M 52 44.1875 
Q 55.375 50.25 60.0625 53.125 
Q 64.75 56 71.09375 56 
Q 79.640625 56 84.28125 50.015625 
Q 88.921875 44.046875 88.921875 33.015625 
L 88.921875 0 
L 79.890625 0 
L 79.890625 32.71875 
Q 79.890625 40.578125 77.09375 44.375 
Q 74.3125 48.1875 68.609375 48.1875 
Q 61.625 48.1875 57.5625 43.546875 
Q 53.515625 38.921875 53.515625 30.90625 
L 53.515625 0 
L 44.484375 0 
L 44.484375 32.71875 
Q 44.484375 40.625 41.703125 44.40625 
Q 38.921875 48.1875 33.109375 48.1875 
Q 26.21875 48.1875 22.15625 43.53125 
Q 18.109375 38.875 18.109375 30.90625 
L 18.109375 0 
L 9.078125 0 
L 9.078125 54.6875 
L 18.109375 54.6875 
L 18.109375 46.1875 
Q 21.1875 51.21875 25.484375 53.609375 
Q 29.78125 56 35.6875 56 
Q 41.65625 56 45.828125 52.96875 
Q 50 49.953125 52 44.1875 
" id="BitstreamVeraSans-Roman-6d"/>
      <path d="M 8.015625 75.875 
L 15.828125 75.875 
Q 23.140625 64.359375 26.78125 53.3125 
Q 30.421875 42.28125 30.421875 31.390625 
Q 30.421875 20.453125 26.78125 9.375 
Q 23.140625 -1.703125 15.828125 -13.1875 
L 8.015625 -13.1875 
Q 14.5 -2 17.703125 9.0625 
Q 20.90625 20.125 20.90625 31.390625 
Q 20.90625 42.671875 17.703125 53.65625 
Q 14.5 64.65625 8.015625 75.875 
" id="BitstreamVeraSans-Roman-29"/>
      <path d="M 31 75.875 
Q 24.46875 64.65625 21.28125 53.65625 
Q 18.109375 42.671875 18.109375 31.390625 
Q 18.109375 20.125 21.3125 9.0625 
Q 24.515625 -2 31 -13.1875 
L 23.1875 -13.1875 
Q 15.875 -1.703125 12.234375 9.375 
Q 8.59375 20.453125 8.59375 31.390625 
Q 8.59375 42.28125 12.203125 53.3125 
Q 15.828125 64.359375 23.1875 75.875 
z
" id="BitstreamVeraSans-Roman-28"/>
      <path d="M 30.609375 48.390625 
Q 23.390625 48.390625 19.1875 42.75 
Q 14.984375 37.109375 14.984375 27.296875 
Q 14.984375 17.484375 19.15625 11.84375 
Q 23.34375 6.203125 30.609375 6.203125 
Q 37.796875 6.203125 41.984375 11.859375 
Q 46.1875 17.53125 46.1875 27.296875 
Q 46.1875 37.015625 41.984375 42.703125 
Q 37.796875 48.390625 30.609375 48.390625 
M 30.609375 56 
Q 42.328125 56 49.015625 48.375 
Q 55.71875 40.765625 55.71875 27.296875 
Q 55.71875 13.875 49.015625 6.21875 
Q 42.328125 -1.421875 30.609375 -1.421875 
Q 18.84375 -1.421875 12.171875 6.21875 
Q 5.515625 13.875 5.515625 27.296875 
Q 5.515625 40.765625 12.171875 48.375 
Q 18.84375 56 30.609375 56 
" id="BitstreamVeraSans-Roman-6f"/>
      <path d="M 9.421875 75.984375 
L 18.40625 75.984375 
L 18.40625 0 
L 9.421875 0 
z
" id="BitstreamVeraSans-Roman-6c"/>
      <path d="M 9.8125 72.90625 
L 51.703125 72.90625 
L 51.703125 64.59375 
L 19.671875 64.59375 
L 19.671875 43.109375 
L 48.578125 43.109375 
L 48.578125 34.8125 
L 19.671875 34.8125 
L 19.671875 0 
L 9.8125 0 
z
" id="BitstreamVeraSans-Roman-46"/>
      <path d="M 19.671875 64.796875 
L 19.671875 8.109375 
L 31.59375 8.109375 
Q 46.6875 8.109375 53.6875 14.9375 
Q 60.6875 21.78125 60.6875 36.53125 
Q 60.6875 51.171875 53.6875 57.984375 
Q 46.6875 64.796875 31.59375 64.796875 
z
M 9.8125 72.90625 
L 30.078125 72.90625 
Q 51.265625 72.90625 61.171875 64.09375 
Q 71.09375 55.28125 71.09375 36.53125 
Q 71.09375 17.671875 61.125 8.828125 
Q 51.171875 0 30.078125 0 
L 9.8125 0 
z
" id="BitstreamVeraSans-Roman-44"/>
      <path d="M 64.40625 67.28125 
L 64.40625 56.890625 
Q 59.421875 61.53125 53.78125 63.8125 
Q 48.140625 66.109375 41.796875 66.109375 
Q 29.296875 66.109375 22.65625 58.46875 
Q 16.015625 50.828125 16.015625 36.375 
Q 16.015625 21.96875 22.65625 14.328125 
Q 29.296875 6.6875 41.796875 6.6875 
Q 48.140625 6.6875 53.78125 8.984375 
Q 59.421875 11.28125 64.40625 15.921875 
L 64.40625 5.609375 
Q 59.234375 2.09375 53.4375 0.328125 
Q 47.65625 -1.421875 41.21875 -1.421875 
Q 24.65625 -1.421875 15.125 8.703125 
Q 5.609375 18.84375 5.609375 36.375 
Q 5.609375 53.953125 15.125 64.078125 
Q 24.65625 74.21875 41.21875 74.21875 
Q 47.75 74.21875 53.53125 72.484375 
Q 59.328125 70.75 64.40625 67.28125 
" id="BitstreamVeraSans-Roman-43"/>
      <path d="M 45.40625 46.390625 
L 45.40625 75.984375 
L 54.390625 75.984375 
L 54.390625 0 
L 45.40625 0 
L 45.40625 8.203125 
Q 42.578125 3.328125 38.25 0.953125 
Q 33.9375 -1.421875 27.875 -1.421875 
Q 17.96875 -1.421875 11.734375 6.484375 
Q 5.515625 14.40625 5.515625 27.296875 
Q 5.515625 40.1875 11.734375 48.09375 
Q 17.96875 56 27.875 56 
Q 33.9375 56 38.25 53.625 
Q 42.578125 51.265625 45.40625 46.390625 
M 14.796875 27.296875 
Q 14.796875 17.390625 18.875 11.75 
Q 22.953125 6.109375 30.078125 6.109375 
Q 37.203125 6.109375 41.296875 11.75 
Q 45.40625 17.390625 45.40625 27.296875 
Q 45.40625 37.203125 41.296875 42.84375 
Q 37.203125 48.484375 30.078125 48.484375 
Q 22.953125 48.484375 18.875 42.84375 
Q 14.796875 37.203125 14.796875 27.296875 
" id="BitstreamVeraSans-Roman-64"/>
      <path d="M 2.984375 54.6875 
L 12.5 54.6875 
L 29.59375 8.796875 
L 46.6875 54.6875 
L 56.203125 54.6875 
L 35.6875 0 
L 23.484375 0 
z
" id="BitstreamVeraSans-Roman-76"/>
      <path d="M 9.421875 54.6875 
L 18.40625 54.6875 
L 18.40625 0 
L 9.421875 0 
z
M 9.421875 75.984375 
L 18.40625 75.984375 
L 18.40625 64.59375 
L 9.421875 64.59375 
z
" id="BitstreamVeraSans-Roman-69"/>
      <path d="M 37.109375 75.984375 
L 37.109375 68.5 
L 28.515625 68.5 
Q 23.6875 68.5 21.796875 66.546875 
Q 19.921875 64.59375 19.921875 59.515625 
L 19.921875 54.6875 
L 34.71875 54.6875 
L 34.71875 47.703125 
L 19.921875 47.703125 
L 19.921875 0 
L 10.890625 0 
L 10.890625 47.703125 
L 2.296875 47.703125 
L 2.296875 54.6875 
L 10.890625 54.6875 
L 10.890625 58.5 
Q 10.890625 67.625 15.140625 71.796875 
Q 19.390625 75.984375 28.609375 75.984375 
z
" id="BitstreamVeraSans-Roman-66"/>
      <path d="M 41.109375 46.296875 
Q 39.59375 47.171875 37.8125 47.578125 
Q 36.03125 48 33.890625 48 
Q 26.265625 48 22.1875 43.046875 
Q 18.109375 38.09375 18.109375 28.8125 
L 18.109375 0 
L 9.078125 0 
L 9.078125 54.6875 
L 18.109375 54.6875 
L 18.109375 46.1875 
Q 20.953125 51.171875 25.484375 53.578125 
Q 30.03125 56 36.53125 56 
Q 37.453125 56 38.578125 55.875 
Q 39.703125 55.765625 41.0625 55.515625 
z
" id="BitstreamVeraSans-Roman-72"/>
      <path d="M 48.78125 52.59375 
L 48.78125 44.1875 
Q 44.96875 46.296875 41.140625 47.34375 
Q 37.3125 48.390625 33.40625 48.390625 
Q 24.65625 48.390625 19.8125 42.84375 
Q 14.984375 37.3125 14.984375 27.296875 
Q 14.984375 17.28125 19.8125 11.734375 
Q 24.65625 6.203125 33.40625 6.203125 
Q 37.3125 6.203125 41.140625 7.25 
Q 44.96875 8.296875 48.78125 10.40625 
L 48.78125 2.09375 
Q 45.015625 0.34375 40.984375 -0.53125 
Q 36.96875 -1.421875 32.421875 -1.421875 
Q 20.0625 -1.421875 12.78125 6.34375 
Q 5.515625 14.109375 5.515625 27.296875 
Q 5.515625 40.671875 12.859375 48.328125 
Q 20.21875 56 33.015625 56 
Q 37.15625 56 41.109375 55.140625 
Q 45.0625 54.296875 48.78125 52.59375 
" id="BitstreamVeraSans-Roman-63"/>
     </defs>
     <g transform="translate(50.42578125 348.59765625)rotate(-90.0)scale(0.15 -0.15)">
      <use xlink:href="#BitstreamVeraSans-Roman-43"/>
      <use x="69.82421875" xlink:href="#BitstreamVeraSans-Roman-44"/>
      <use x="146.826171875" xlink:href="#BitstreamVeraSans-Roman-46"/>
      <use x="204.345703125" xlink:href="#BitstreamVeraSans-Roman-20"/>
      <use x="236.1328125" xlink:href="#BitstreamVeraSans-Roman-28"/>
      <use x="275.146484375" xlink:href="#BitstreamVeraSans-Roman-66"/>
      <use x="310.3515625" xlink:href="#BitstreamVeraSans-Roman-72"/>
      <use x="351.46484375" xlink:href="#BitstreamVeraSans-Roman-61"/>
      <use x="412.744140625" xlink:href="#BitstreamVeraSans-Roman-63"/>
      <use x="467.724609375" xlink:href="#BitstreamVeraSans-Roman-74"/>
      <use x="506.93359375" xlink:href="#BitstreamVeraSans-Roman-69"/>
      <use x="534.716796875" xlink:href="#BitstreamVeraSans-Roman-6f"/>
      <use x="595.8984375" xlink:href="#BitstreamVeraSans-Roman-6e"/>
      <use x="659.27734375" xlink:href="#BitstreamVeraSans-Roman-20"/>
      <use x="691.064453125" xlink:href="#BitstreamVeraSans-Roman-6f"/>
      <use x="752.24609375" xlink:href="#BitstreamVeraSans-Roman-66"/>
      <use x="787.451171875" xlink:href="#BitstreamVeraSans-Roman-20"/>
      <use x="819.23828125" xlink:href="#BitstreamVeraSans-Roman-64"/>
      <use x="882.71484375" xlink:href="#BitstreamVeraSans-Roman-65"/>
      <use x="944.23828125" xlink:href="#BitstreamVeraSans-Roman-6d"/>
      <use x="1041.65039062" xlink:href="#BitstreamVeraSans-Roman-61"/>
      <use x="1102.9296875" xlink:href="#BitstreamVeraSans-Roman-6e"/>
      <use x="1166.30859375" xlink:href="#BitstreamVeraSans-Roman-64"/>
      <use x="1229.78515625" xlink:href="#BitstreamVeraSans-Roman-20"/>
      <use x="1261.57226562" xlink:href="#BitstreamVeraSans-Roman-64"/>
      <use x="1325.04882812" xlink:href="#BitstreamVeraSans-Roman-65"/>
      <use x="1386.57226562" xlink:href="#BitstreamVeraSans-Roman-6c"/>
      <use x="1414.35546875" xlink:href="#BitstreamVeraSans-Roman-69"/>
      <use x="1442.13867188" xlink:href="#BitstreamVeraSans-Roman-76"/>
      <use x="1501.31835938" xlink:href="#BitstreamVeraSans-Roman-65"/>
      <use x="1562.84179688" xlink:href="#BitstreamVeraSans-Roman-72"/>
      <use x="1603.92382812" xlink:href="#BitstreamVeraSans-Roman-65"/>
      <use x="1665.44726562" xlink:href="#BitstreamVeraSans-Roman-64"/>
      <use x="1728.92382812" xlink:href="#BitstreamVeraSans-Roman-29"/>
     </g>
    </g>
   </g>
   <g id="legend_1">
    <g id="patch_7">
     <path d="M 706.8 136.42625 
L 840.663437 136.42625 
Q 843.263438 136.42625 843.263438 133.82625 
L 843.263438 58.8 
Q 843.263438 56.2 840.663437 56.2 
L 706.8 56.2 
Q 704.2 56.2 704.2 58.8 
L 704.2 133.82625 
Q 704.2 136.42625 706.8 136.42625 
z
" style="fill:#ffffff;stroke:#000000;stroke-linejoin:miter;"/>
    </g>
    <g id="LineCollection_5">
     <path d="M 713.3 73.227969 
L 713.3 60.227969 
" style="fill:none;stroke:#ff0000;"/>
     <path d="M 731.5 73.227969 
L 731.5 60.227969 
" style="fill:none;stroke:#ff0000;"/>
    </g>
    <g id="line2d_43">
     <g>
      <use style="fill:#ff0000;stroke:#ff0000;stroke-width:0.5;" x="713.3" xlink:href="#mddb38bd64c" y="73.22796875"/>
      <use style="fill:#ff0000;stroke:#ff0000;stroke-width:0.5;" x="731.5" xlink:href="#mddb38bd64c" y="73.22796875"/>
     </g>
    </g>
    <g id="line2d_44">
     <g>
      <use style="fill:#ff0000;stroke:#ff0000;stroke-width:0.5;" x="713.3" xlink:href="#mddb38bd64c" y="60.22796875"/>
      <use style="fill:#ff0000;stroke:#ff0000;stroke-width:0.5;" x="731.5" xlink:href="#mddb38bd64c" y="60.22796875"/>
     </g>
    </g>
    <g id="line2d_45">
     <path d="M 713.3 66.727969 
L 731.5 66.727969 
" style="fill:none;stroke:#ff0000;stroke-dasharray:1.000000,3.000000;stroke-dashoffset:0.0;"/>
    </g>
    <g id="line2d_46">
     <g>
      <use style="fill:#ff0000;stroke:#000000;stroke-linejoin:miter;stroke-width:0.5;" x="713.3" xlink:href="#m14fdcb275f" y="66.72796875"/>
      <use style="fill:#ff0000;stroke:#000000;stroke-linejoin:miter;stroke-width:0.5;" x="731.5" xlink:href="#m14fdcb275f" y="66.72796875"/>
     </g>
    </g>
    <g id="text_16">
     <!-- ksp -->
     <defs>
      <path d="M 44.28125 53.078125 
L 44.28125 44.578125 
Q 40.484375 46.53125 36.375 47.5 
Q 32.28125 48.484375 27.875 48.484375 
Q 21.1875 48.484375 17.84375 46.4375 
Q 14.5 44.390625 14.5 40.28125 
Q 14.5 37.15625 16.890625 35.375 
Q 19.28125 33.59375 26.515625 31.984375 
L 29.59375 31.296875 
Q 39.15625 29.25 43.1875 25.515625 
Q 47.21875 21.78125 47.21875 15.09375 
Q 47.21875 7.46875 41.1875 3.015625 
Q 35.15625 -1.421875 24.609375 -1.421875 
Q 20.21875 -1.421875 15.453125 -0.5625 
Q 10.6875 0.296875 5.421875 2 
L 5.421875 11.28125 
Q 10.40625 8.6875 15.234375 7.390625 
Q 20.0625 6.109375 24.8125 6.109375 
Q 31.15625 6.109375 34.5625 8.28125 
Q 37.984375 10.453125 37.984375 14.40625 
Q 37.984375 18.0625 35.515625 20.015625 
Q 33.0625 21.96875 24.703125 23.78125 
L 21.578125 24.515625 
Q 13.234375 26.265625 9.515625 29.90625 
Q 5.8125 33.546875 5.8125 39.890625 
Q 5.8125 47.609375 11.28125 51.796875 
Q 16.75 56 26.8125 56 
Q 31.78125 56 36.171875 55.265625 
Q 40.578125 54.546875 44.28125 53.078125 
" id="BitstreamVeraSans-Roman-73"/>
      <path d="M 18.109375 8.203125 
L 18.109375 -20.796875 
L 9.078125 -20.796875 
L 9.078125 54.6875 
L 18.109375 54.6875 
L 18.109375 46.390625 
Q 20.953125 51.265625 25.265625 53.625 
Q 29.59375 56 35.59375 56 
Q 45.5625 56 51.78125 48.09375 
Q 58.015625 40.1875 58.015625 27.296875 
Q 58.015625 14.40625 51.78125 6.484375 
Q 45.5625 -1.421875 35.59375 -1.421875 
Q 29.59375 -1.421875 25.265625 0.953125 
Q 20.953125 3.328125 18.109375 8.203125 
M 48.6875 27.296875 
Q 48.6875 37.203125 44.609375 42.84375 
Q 40.53125 48.484375 33.40625 48.484375 
Q 26.265625 48.484375 22.1875 42.84375 
Q 18.109375 37.203125 18.109375 27.296875 
Q 18.109375 17.390625 22.1875 11.75 
Q 26.265625 6.109375 33.40625 6.109375 
Q 40.53125 6.109375 44.609375 11.75 
Q 48.6875 17.390625 48.6875 27.296875 
" id="BitstreamVeraSans-Roman-70"/>
      <path d="M 9.078125 75.984375 
L 18.109375 75.984375 
L 18.109375 31.109375 
L 44.921875 54.6875 
L 56.390625 54.6875 
L 27.390625 29.109375 
L 57.625 0 
L 45.90625 0 
L 18.109375 26.703125 
L 18.109375 0 
L 9.078125 0 
z
" id="BitstreamVeraSans-Roman-6b"/>
     </defs>
     <g transform="translate(745.8 71.27796875)scale(0.13 -0.13)">
      <use xlink:href="#BitstreamVeraSans-Roman-6b"/>
      <use x="57.91015625" xlink:href="#BitstreamVeraSans-Roman-73"/>
      <use x="110.009765625" xlink:href="#BitstreamVeraSans-Roman-70"/>
     </g>
    </g>
    <g id="LineCollection_6">
     <path d="M 713.3 92.309531 
L 713.3 79.309531 
" style="fill:none;stroke:#bf00bf;"/>
     <path d="M 731.5 92.309531 
L 731.5 79.309531 
" style="fill:none;stroke:#bf00bf;"/>
    </g>
    <g id="line2d_47">
     <g>
      <use style="fill:#bf00bf;stroke:#bf00bf;stroke-width:0.5;" x="713.3" xlink:href="#ma897b1f4fa" y="92.30953125"/>
      <use style="fill:#bf00bf;stroke:#bf00bf;stroke-width:0.5;" x="731.5" xlink:href="#ma897b1f4fa" y="92.30953125"/>
     </g>
    </g>
    <g id="line2d_48">
     <g>
      <use style="fill:#bf00bf;stroke:#bf00bf;stroke-width:0.5;" x="713.3" xlink:href="#ma897b1f4fa" y="79.30953125"/>
      <use style="fill:#bf00bf;stroke:#bf00bf;stroke-width:0.5;" x="731.5" xlink:href="#ma897b1f4fa" y="79.30953125"/>
     </g>
    </g>
    <g id="line2d_49">
     <path d="M 713.3 85.809531 
L 731.5 85.809531 
" style="fill:none;stroke:#bf00bf;stroke-dasharray:1.000000,3.000000;stroke-dashoffset:0.0;"/>
    </g>
    <g id="line2d_50">
     <g>
      <use style="fill:#bf00bf;stroke:#000000;stroke-linejoin:miter;stroke-width:0.5;" x="713.3" xlink:href="#mb8e1296838" y="85.80953125"/>
      <use style="fill:#bf00bf;stroke:#000000;stroke-linejoin:miter;stroke-width:0.5;" x="731.5" xlink:href="#mb8e1296838" y="85.80953125"/>
     </g>
    </g>
    <g id="text_17">
     <!-- raeke -->
     <g transform="translate(745.8 90.35953125)scale(0.13 -0.13)">
      <use xlink:href="#BitstreamVeraSans-Roman-72"/>
      <use x="41.11328125" xlink:href="#BitstreamVeraSans-Roman-61"/>
      <use x="102.392578125" xlink:href="#BitstreamVeraSans-Roman-65"/>
      <use x="163.916015625" xlink:href="#BitstreamVeraSans-Roman-6b"/>
      <use x="221.779296875" xlink:href="#BitstreamVeraSans-Roman-65"/>
     </g>
    </g>
    <g id="LineCollection_7">
     <path d="M 713.3 111.391094 
L 713.3 98.391094 
" style="fill:none;stroke:#00bfbf;"/>
     <path d="M 731.5 111.391094 
L 731.5 98.391094 
" style="fill:none;stroke:#00bfbf;"/>
    </g>
    <g id="line2d_51">
     <g>
      <use style="fill:#00bfbf;stroke:#00bfbf;stroke-width:0.5;" x="713.3" xlink:href="#mb1dfc672fc" y="111.39109375"/>
      <use style="fill:#00bfbf;stroke:#00bfbf;stroke-width:0.5;" x="731.5" xlink:href="#mb1dfc672fc" y="111.39109375"/>
     </g>
    </g>
    <g id="line2d_52">
     <g>
      <use style="fill:#00bfbf;stroke:#00bfbf;stroke-width:0.5;" x="713.3" xlink:href="#mb1dfc672fc" y="98.39109375"/>
      <use style="fill:#00bfbf;stroke:#00bfbf;stroke-width:0.5;" x="731.5" xlink:href="#mb1dfc672fc" y="98.39109375"/>
     </g>
    </g>
    <g id="line2d_53">
     <path d="M 713.3 104.891094 
L 731.5 104.891094 
" style="fill:none;stroke:#00bfbf;stroke-dasharray:1.000000,3.000000;stroke-dashoffset:0.0;"/>
    </g>
    <g id="line2d_54">
     <g>
      <use style="fill:#00bfbf;stroke:#000000;stroke-linejoin:miter;stroke-width:0.5;" x="713.3" xlink:href="#m2bcd07f3ec" y="104.89109375"/>
      <use style="fill:#00bfbf;stroke:#000000;stroke-linejoin:miter;stroke-width:0.5;" x="731.5" xlink:href="#m2bcd07f3ec" y="104.89109375"/>
     </g>
    </g>
    <g id="text_18">
     <!-- semimcfksp -->
     <g transform="translate(745.8 109.44109375)scale(0.13 -0.13)">
      <use xlink:href="#BitstreamVeraSans-Roman-73"/>
      <use x="52.099609375" xlink:href="#BitstreamVeraSans-Roman-65"/>
      <use x="113.623046875" xlink:href="#BitstreamVeraSans-Roman-6d"/>
      <use x="211.03515625" xlink:href="#BitstreamVeraSans-Roman-69"/>
      <use x="238.818359375" xlink:href="#BitstreamVeraSans-Roman-6d"/>
      <use x="336.23046875" xlink:href="#BitstreamVeraSans-Roman-63"/>
      <use x="391.2109375" xlink:href="#BitstreamVeraSans-Roman-66"/>
      <use x="426.416015625" xlink:href="#BitstreamVeraSans-Roman-6b"/>
      <use x="484.326171875" xlink:href="#BitstreamVeraSans-Roman-73"/>
      <use x="536.42578125" xlink:href="#BitstreamVeraSans-Roman-70"/>
     </g>
    </g>
    <g id="LineCollection_8">
     <path d="M 713.3 130.472656 
L 713.3 117.472656 
" style="fill:none;stroke:#008000;"/>
     <path d="M 731.5 130.472656 
L 731.5 117.472656 
" style="fill:none;stroke:#008000;"/>
    </g>
    <g id="line2d_55">
     <g>
      <use style="fill:#008000;stroke:#008000;stroke-width:0.5;" x="713.3" xlink:href="#m648ef158d5" y="130.47265625"/>
      <use style="fill:#008000;stroke:#008000;stroke-width:0.5;" x="731.5" xlink:href="#m648ef158d5" y="130.47265625"/>
     </g>
    </g>
    <g id="line2d_56">
     <g>
      <use style="fill:#008000;stroke:#008000;stroke-width:0.5;" x="713.3" xlink:href="#m648ef158d5" y="117.47265625"/>
      <use style="fill:#008000;stroke:#008000;stroke-width:0.5;" x="731.5" xlink:href="#m648ef158d5" y="117.47265625"/>
     </g>
    </g>
    <g id="line2d_57">
     <path d="M 713.3 123.972656 
L 731.5 123.972656 
" style="fill:none;stroke:#008000;stroke-dasharray:1.000000,3.000000;stroke-dashoffset:0.0;"/>
    </g>
    <g id="line2d_58">
     <g>
      <use style="fill:#008000;stroke:#000000;stroke-linejoin:miter;stroke-width:0.5;" x="713.3" xlink:href="#mf9ece43cb3" y="123.97265625"/>
      <use style="fill:#008000;stroke:#000000;stroke-linejoin:miter;stroke-width:0.5;" x="731.5" xlink:href="#mf9ece43cb3" y="123.97265625"/>
     </g>
    </g>
    <g id="text_19">
     <!-- semimcfraeke -->
     <g transform="translate(745.8 128.52265625)scale(0.13 -0.13)">
      <use xlink:href="#BitstreamVeraSans-Roman-73"/>
      <use x="52.099609375" xlink:href="#BitstreamVeraSans-Roman-65"/>
      <use x="113.623046875" xlink:href="#BitstreamVeraSans-Roman-6d"/>
      <use x="211.03515625" xlink:href="#BitstreamVeraSans-Roman-69"/>
      <use x="238.818359375" xlink:href="#BitstreamVeraSans-Roman-6d"/>
      <use x="336.23046875" xlink:href="#BitstreamVeraSans-Roman-63"/>
      <use x="391.2109375" xlink:href="#BitstreamVeraSans-Roman-66"/>
      <use x="426.416015625" xlink:href="#BitstreamVeraSans-Roman-72"/>
      <use x="467.529296875" xlink:href="#BitstreamVeraSans-Roman-61"/>
      <use x="528.80859375" xlink:href="#BitstreamVeraSans-Roman-65"/>
      <use x="590.33203125" xlink:href="#BitstreamVeraSans-Roman-6b"/>
      <use x="648.1953125" xlink:href="#BitstreamVeraSans-Roman-65"/>
     </g>
    </g>
   </g>
  </g>
 </g>
 <defs>
  <clipPath id="p7a8d7b5b8b">
   <rect height="345.6" width="604.8" x="86.4" y="43.2"/>
  </clipPath>
 </defs>
</svg>
