<?xml version="1.0" encoding="UTF-8" standalone="no"?>
<!DOCTYPE svg PUBLIC "-//W3C//DTD SVG 1.1//EN"
 "http://www.w3.org/Graphics/SVG/1.1/DTD/svg11.dtd">
<!-- Generated by graphviz version 2.36.0 (20140111.2315)
 -->
<!-- Title: Abilene Pages: 1 -->
<svg width="458pt" height="562pt"
 viewBox="0.00 0.00 458.47 561.60" xmlns="http://www.w3.org/2000/svg" xmlns:xlink="http://www.w3.org/1999/xlink">
<g id="graph0" class="graph" transform="scale(1 1) rotate(0) translate(4 557.6)">
<title>Abilene</title>
<polygon fill="white" stroke="none" points="-4,4 -4,-557.6 454.47,-557.6 454.47,4 -4,4"/>
<!-- h8 -->
<g id="node1" class="node"><title>h8</title>
<ellipse fill="none" stroke="black" cx="87.849" cy="-223.93" rx="27" ry="18"/>
<text text-anchor="middle" x="87.849" y="-220.23" font-family="Times,serif" font-size="14.00">h8</text>
</g>
<!-- s8 -->
<g id="8" class="node"><title>s8</title>
<ellipse fill="none" stroke="black" cx="164.94" cy="-257.16" rx="27" ry="18"/>
<text text-anchor="middle" x="164.94" y="-253.46" font-family="Times,serif" font-size="14.00">s8</text>
</g>
<!-- h8&#45;&gt;s8 -->
<g id="edge1" class="edge"><title>h8&#45;&gt;s8</title>
<path fill="none" stroke="#91cf60" d="M105.33,-237.99C112.39,-241.73 120.79,-245.61 129.03,-248.97"/>
<polygon fill="#91cf60" stroke="#91cf60" points="127.95,-252.305 138.54,-252.64 130.471,-245.774 127.95,-252.305"/>
<text text-anchor="middle" x="108.18" y="-247.28" font-family="Times,serif" font-size="14.00">0.0</text>
</g>
<!-- s8&#45;&gt;h8 -->
<g id="edge2" class="edge"><title>s8&#45;&gt;h8</title>
<path fill="none" stroke="#91cf60" d="M147.46,-243.1C140.4,-239.36 132,-235.48 123.76,-232.12"/>
<polygon fill="#91cf60" stroke="#91cf60" points="124.84,-228.785 114.25,-228.45 122.319,-235.316 124.84,-228.785"/>
<text text-anchor="middle" x="126.61" y="-241.41" font-family="Times,serif" font-size="14.00">0.0</text>
</g>
<!-- s9 -->
<g id="9" class="node"><title>s9</title>
<ellipse fill="none" stroke="black" cx="205.99" cy="-180.64" rx="27" ry="18"/>
<text text-anchor="middle" x="205.99" y="-176.94" font-family="Times,serif" font-size="14.00">s9</text>
</g>
<!-- s8&#45;&gt;s9 -->
<g id="edge3" class="edge"><title>s8&#45;&gt;s9</title>
<path fill="none" stroke="#91cf60" d="M179.82,-241.79C186.13,-232.15 193.12,-219.49 198.43,-208.17"/>
<polygon fill="#91cf60" stroke="#91cf60" points="201.781,-209.243 202.6,-198.68 195.373,-206.427 201.781,-209.243"/>
<text text-anchor="middle" x="180.12" y="-228.78" font-family="Times,serif" font-size="14.00">0.0</text>
</g>
<!-- s7 -->
<g id="7" class="node"><title>s7</title>
<ellipse fill="none" stroke="black" cx="241" cy="-302.53" rx="27" ry="18"/>
<text text-anchor="middle" x="241" y="-298.83" font-family="Times,serif" font-size="14.00">s7</text>
</g>
<!-- s8&#45;&gt;s7 -->
<g id="edge4" class="edge"><title>s8&#45;&gt;s7</title>
<path fill="none" stroke="#91cf60" d="M179.61,-272.67C187.49,-278.36 197.51,-284.66 207.16,-290.06"/>
<polygon fill="#91cf60" stroke="#91cf60" points="205.763,-293.282 216.23,-294.92 209.069,-287.112 205.763,-293.282"/>
<text text-anchor="middle" x="184.39" y="-285.16" font-family="Times,serif" font-size="14.00">0.0</text>
</g>
<!-- s5 -->
<g id="5" class="node"><title>s5</title>
<ellipse fill="none" stroke="black" cx="111.34" cy="-323.76" rx="27" ry="18"/>
<text text-anchor="middle" x="111.34" y="-320.06" font-family="Times,serif" font-size="14.00">s5</text>
</g>
<!-- s8&#45;&gt;s5 -->
<g id="edge5" class="edge"><title>s8&#45;&gt;s5</title>
<path fill="none" stroke="#91cf60" d="M146.47,-270.56C139.06,-278.4 130.76,-288.5 124.03,-297.81"/>
<polygon fill="#91cf60" stroke="#91cf60" points="121.144,-295.83 118.35,-306.05 126.907,-299.803 121.144,-295.83"/>
<text text-anchor="middle" x="126.25" y="-287.98" font-family="Times,serif" font-size="14.00">0.0</text>
</g>
<!-- s9&#45;&gt;s8 -->
<g id="edge6" class="edge"><title>s9&#45;&gt;s8</title>
<path fill="none" stroke="#91cf60" d="M191.11,-196.02C184.8,-205.66 177.81,-218.32 172.51,-229.63"/>
<polygon fill="#91cf60" stroke="#91cf60" points="169.158,-228.558 168.33,-239.12 175.564,-231.379 169.158,-228.558"/>
<text text-anchor="middle" x="172.81" y="-201.63" font-family="Times,serif" font-size="14.00">0.0</text>
</g>
<!-- h9 -->
<g id="node6" class="node"><title>h9</title>
<ellipse fill="none" stroke="black" cx="138.52" cy="-130.89" rx="27" ry="18"/>
<text text-anchor="middle" x="138.52" y="-127.19" font-family="Times,serif" font-size="14.00">h9</text>
</g>
<!-- s9&#45;&gt;h9 -->
<g id="edge7" class="edge"><title>s9&#45;&gt;h9</title>
<path fill="none" stroke="#91cf60" d="M193.78,-164.43C187.04,-158.42 178.39,-151.69 169.93,-145.79"/>
<polygon fill="#91cf60" stroke="#91cf60" points="171.871,-142.878 161.61,-140.24 167.987,-148.701 171.871,-142.878"/>
<text text-anchor="middle" x="190.86" y="-143.91" font-family="Times,serif" font-size="14.00">0.0</text>
</g>
<!-- s2 -->
<g id="2" class="node"><title>s2</title>
<ellipse fill="none" stroke="black" cx="230.07" cy="-98.732" rx="27" ry="18"/>
<text text-anchor="middle" x="230.07" y="-95.032" font-family="Times,serif" font-size="14.00">s2</text>
</g>
<!-- s9&#45;&gt;s2 -->
<g id="edge8" class="edge"><title>s9&#45;&gt;s2</title>
<path fill="none" stroke="#91cf60" d="M216.82,-164.08C221.14,-153.35 225.54,-139.12 228.46,-126.67"/>
<polygon fill="#91cf60" stroke="#91cf60" points="231.913,-127.255 230.54,-116.75 225.062,-125.819 231.913,-127.255"/>
<text text-anchor="middle" x="213.64" y="-149.18" font-family="Times,serif" font-size="14.00">0.0</text>
</g>
<!-- s10 -->
<g id="10" class="node"><title>s10</title>
<ellipse fill="none" stroke="black" cx="281.96" cy="-225.36" rx="27" ry="18"/>
<text text-anchor="middle" x="281.96" y="-221.66" font-family="Times,serif" font-size="14.00">s10</text>
</g>
<!-- s9&#45;&gt;s10 -->
<g id="edge9" class="edge"><title>s9&#45;&gt;s10</title>
<path fill="none" stroke="#91cf60" d="M220.67,-196.01C228.53,-201.64 238.54,-207.85 248.19,-213.17"/>
<polygon fill="#91cf60" stroke="#91cf60" points="246.763,-216.374 257.24,-217.95 250.032,-210.185 246.763,-216.374"/>
<text text-anchor="middle" x="225.43" y="-208.39" font-family="Times,serif" font-size="14.00">0.0</text>
</g>
<!-- s7&#45;&gt;s8 -->
<g id="edge10" class="edge"><title>s7&#45;&gt;s8</title>
<path fill="none" stroke="#91cf60" d="M226.33,-287.02C218.46,-281.33 208.44,-275.03 198.78,-269.63"/>
<polygon fill="#91cf60" stroke="#91cf60" points="200.187,-266.413 189.72,-264.77 196.878,-272.581 200.187,-266.413"/>
<text text-anchor="middle" x="203.56" y="-282.12" font-family="Times,serif" font-size="14.00">0.0</text>
</g>
<!-- s7&#45;&gt;s10 -->
<g id="edge11" class="edge"><title>s7&#45;&gt;s10</title>
<path fill="none" stroke="#91cf60" d="M255.63,-287.35C262.06,-277.48 269.22,-264.36 274.6,-252.73"/>
<polygon fill="#91cf60" stroke="#91cf60" points="277.878,-253.967 278.64,-243.4 271.455,-251.186 277.878,-253.967"/>
<text text-anchor="middle" x="274.11" y="-258.84" font-family="Times,serif" font-size="14.00">0.0</text>
</g>
<!-- s6 -->
<g id="6" class="node"><title>s6</title>
<ellipse fill="none" stroke="black" cx="222.47" cy="-387.42" rx="27" ry="18"/>
<text text-anchor="middle" x="222.47" y="-383.72" font-family="Times,serif" font-size="14.00">s6</text>
</g>
<!-- s7&#45;&gt;s6 -->
<g id="edge12" class="edge"><title>s7&#45;&gt;s6</title>
<path fill="none" stroke="#91cf60" d="M231.43,-319.74C227.76,-331.11 224.23,-346.26 222.13,-359.35"/>
<polygon fill="#91cf60" stroke="#91cf60" points="218.657,-358.918 220.77,-369.3 225.592,-359.866 218.657,-358.918"/>
<text text-anchor="middle" x="214.28" y="-343.34" font-family="Times,serif" font-size="14.00">0.01</text>
</g>
<!-- h7 -->
<g id="node10" class="node"><title>h7</title>
<ellipse fill="none" stroke="black" cx="314.75" cy="-339.53" rx="27" ry="18"/>
<text text-anchor="middle" x="314.75" y="-335.83" font-family="Times,serif" font-size="14.00">h7</text>
</g>
<!-- s7&#45;&gt;h7 -->
<g id="edge13" class="edge"><title>s7&#45;&gt;h7</title>
<path fill="none" stroke="#91cf60" d="M256.94,-317.19C263.7,-321.32 271.83,-325.68 279.85,-329.51"/>
<polygon fill="#91cf60" stroke="#91cf60" points="278.557,-332.767 289.11,-333.71 281.449,-326.392 278.557,-332.767"/>
<text text-anchor="middle" x="259.39" y="-327.15" font-family="Times,serif" font-size="14.00">0.0</text>
</g>
<!-- s5&#45;&gt;s8 -->
<g id="edge14" class="edge"><title>s5&#45;&gt;s8</title>
<path fill="none" stroke="#91cf60" d="M129.81,-310.37C137.22,-302.52 145.52,-292.43 152.26,-283.11"/>
<polygon fill="#91cf60" stroke="#91cf60" points="155.145,-285.092 157.93,-274.87 149.378,-281.124 155.145,-285.092"/>
<text text-anchor="middle" x="150.03" y="-300.54" font-family="Times,serif" font-size="14.00">0.0</text>
</g>
<!-- s4 -->
<g id="4" class="node"><title>s4</title>
<ellipse fill="none" stroke="black" cx="142.08" cy="-400.29" rx="27" ry="18"/>
<text text-anchor="middle" x="142.08" y="-396.59" font-family="Times,serif" font-size="14.00">s4</text>
</g>
<!-- s5&#45;&gt;s4 -->
<g id="edge15" class="edge"><title>s5&#45;&gt;s4</title>
<path fill="none" stroke="#91cf60" d="M112.63,-342.09C115.43,-351.97 120.06,-364.29 124.92,-375.05"/>
<polygon fill="#91cf60" stroke="#91cf60" points="121.923,-376.894 129.41,-384.39 128.232,-373.861 121.923,-376.894"/>
<text text-anchor="middle" x="109.78" y="-362.37" font-family="Times,serif" font-size="14.00">0.0</text>
</g>
<!-- h5 -->
<g id="node12" class="node"><title>h5</title>
<ellipse fill="none" stroke="black" cx="27" cy="-325.02" rx="27" ry="18"/>
<text text-anchor="middle" x="27" y="-321.32" font-family="Times,serif" font-size="14.00">h5</text>
</g>
<!-- s5&#45;&gt;h5 -->
<g id="edge16" class="edge"><title>s5&#45;&gt;h5</title>
<path fill="none" stroke="#91cf60" d="M85.482,-317.87C78.215,-317.54 70.184,-317.52 62.461,-317.81"/>
<polygon fill="#91cf60" stroke="#91cf60" points="62.0041,-314.33 52.222,-318.4 62.4068,-321.319 62.0041,-314.33"/>
<text text-anchor="middle" x="64.972" y="-306.64" font-family="Times,serif" font-size="14.00">0.0</text>
</g>
<!-- h9&#45;&gt;s9 -->
<g id="edge17" class="edge"><title>h9&#45;&gt;s9</title>
<path fill="none" stroke="#91cf60" d="M150.72,-147.09C157.46,-153.11 166.12,-159.84 174.58,-165.74"/>
<polygon fill="#91cf60" stroke="#91cf60" points="172.639,-168.652 182.9,-171.29 176.523,-162.829 172.639,-168.652"/>
<text text-anchor="middle" x="153.65" y="-160.22" font-family="Times,serif" font-size="14.00">0.0</text>
</g>
<!-- s2&#45;&gt;s9 -->
<g id="edge18" class="edge"><title>s2&#45;&gt;s9</title>
<path fill="none" stroke="#91cf60" d="M219.24,-115.3C214.92,-126.03 210.52,-140.26 207.59,-152.7"/>
<polygon fill="#91cf60" stroke="#91cf60" points="204.137,-152.116 205.52,-162.62 210.989,-153.546 204.137,-152.116"/>
<text text-anchor="middle" x="204.41" y="-122.8" font-family="Times,serif" font-size="14.00">0.0</text>
</g>
<!-- h2 -->
<g id="node13" class="node"><title>h2</title>
<ellipse fill="none" stroke="black" cx="192.79" cy="-24.535" rx="27" ry="18"/>
<text text-anchor="middle" x="192.79" y="-20.835" font-family="Times,serif" font-size="14.00">h2</text>
</g>
<!-- s2&#45;&gt;h2 -->
<g id="edge19" class="edge"><title>s2&#45;&gt;h2</title>
<path fill="none" stroke="#91cf60" d="M227.2,-80.467C223.61,-70.933 218.03,-59.169 212.34,-48.881"/>
<polygon fill="#91cf60" stroke="#91cf60" points="215.193,-46.8265 207.13,-39.954 209.148,-50.3549 215.193,-46.8265"/>
<text text-anchor="middle" x="210.77" y="-68.474" font-family="Times,serif" font-size="14.00">0.0</text>
</g>
<!-- s0 -->
<g id="0" class="node"><title>s0</title>
<ellipse fill="none" stroke="black" cx="310.28" cy="-86.551" rx="27" ry="18"/>
<text text-anchor="middle" x="310.28" y="-82.851" font-family="Times,serif" font-size="14.00">s0</text>
</g>
<!-- s2&#45;&gt;s0 -->
<g id="edge20" class="edge"><title>s2&#45;&gt;s0</title>
<path fill="none" stroke="#91cf60" d="M256.84,-101.09C263.33,-100.48 270.34,-99.53 277.09,-98.353"/>
<polygon fill="#91cf60" stroke="#91cf60" points="278.212,-101.699 287.35,-96.337 276.863,-94.8308 278.212,-101.699"/>
<text text-anchor="middle" x="271.47" y="-88.523" font-family="Times,serif" font-size="14.00">0.0</text>
</g>
<!-- s10&#45;&gt;s9 -->
<g id="edge21" class="edge"><title>s10&#45;&gt;s9</title>
<path fill="none" stroke="#91cf60" d="M267.28,-209.99C259.41,-204.36 249.4,-198.15 239.76,-192.83"/>
<polygon fill="#91cf60" stroke="#91cf60" points="241.178,-189.621 230.7,-188.05 237.911,-195.812 241.178,-189.621"/>
<text text-anchor="middle" x="244.52" y="-205.21" font-family="Times,serif" font-size="14.00">0.0</text>
</g>
<!-- s10&#45;&gt;s7 -->
<g id="edge22" class="edge"><title>s10&#45;&gt;s7</title>
<path fill="none" stroke="#91cf60" d="M267.33,-240.53C260.9,-250.41 253.74,-263.52 248.37,-275.16"/>
<polygon fill="#91cf60" stroke="#91cf60" points="245.095,-273.914 244.32,-284.48 251.516,-276.703 245.095,-273.914"/>
<text text-anchor="middle" x="248.85" y="-261.65" font-family="Times,serif" font-size="14.00">0.0</text>
</g>
<!-- s1 -->
<g id="1" class="node"><title>s1</title>
<ellipse fill="none" stroke="black" cx="339.88" cy="-162.29" rx="27" ry="18"/>
<text text-anchor="middle" x="339.88" y="-158.59" font-family="Times,serif" font-size="14.00">s1</text>
</g>
<!-- s10&#45;&gt;s1 -->
<g id="edge23" class="edge"><title>s10&#45;&gt;s1</title>
<path fill="none" stroke="#91cf60" d="M301.61,-212.86C309.32,-205.66 317.97,-196.44 325.14,-187.82"/>
<polygon fill="#91cf60" stroke="#91cf60" points="328.014,-189.829 331.49,-179.82 322.532,-185.477 328.014,-189.829"/>
<text text-anchor="middle" x="322.38" y="-204.14" font-family="Times,serif" font-size="14.00">0.0</text>
</g>
<!-- h10 -->
<g id="node16" class="node"><title>h10</title>
<ellipse fill="none" stroke="black" cx="361.32" cy="-251.77" rx="27" ry="18"/>
<text text-anchor="middle" x="361.32" y="-248.07" font-family="Times,serif" font-size="14.00">h10</text>
</g>
<!-- s10&#45;&gt;h10 -->
<g id="edge24" class="edge"><title>s10&#45;&gt;h10</title>
<path fill="none" stroke="#91cf60" d="M301.31,-238.18C308.37,-241.15 316.6,-244.11 324.67,-246.63"/>
<polygon fill="#91cf60" stroke="#91cf60" points="323.75,-250.007 334.33,-249.45 325.711,-243.288 323.75,-250.007"/>
<text text-anchor="middle" x="321.99" y="-246.21" font-family="Times,serif" font-size="14.00">0.0</text>
</g>
<!-- s6&#45;&gt;s7 -->
<g id="edge25" class="edge"><title>s6&#45;&gt;s7</title>
<path fill="none" stroke="#91cf60" d="M232.04,-370.21C235.72,-358.84 239.24,-343.68 241.35,-330.59"/>
<polygon fill="#91cf60" stroke="#91cf60" points="244.822,-331.03 242.7,-320.65 237.886,-330.088 244.822,-331.03"/>
<text text-anchor="middle" x="245.69" y="-354.2" font-family="Times,serif" font-size="14.00">0.0</text>
</g>
<!-- s6&#45;&gt;s4 -->
<g id="edge26" class="edge"><title>s6&#45;&gt;s4</title>
<path fill="none" stroke="#91cf60" d="M195.59,-385.29C188.87,-385.97 181.58,-387.03 174.62,-388.33"/>
<polygon fill="#91cf60" stroke="#91cf60" points="173.835,-384.918 164.75,-390.37 175.251,-391.773 173.835,-384.918"/>
<text text-anchor="middle" x="185.1" y="-375.61" font-family="Times,serif" font-size="14.00">0.0</text>
</g>
<!-- s3 -->
<g id="3" class="node"><title>s3</title>
<ellipse fill="none" stroke="black" cx="189.67" cy="-456.32" rx="27" ry="18"/>
<text text-anchor="middle" x="189.67" y="-452.62" font-family="Times,serif" font-size="14.00">s3</text>
</g>
<!-- s6&#45;&gt;s3 -->
<g id="edge27" class="edge"><title>s6&#45;&gt;s3</title>
<path fill="none" stroke="#91cf60" d="M208.41,-402.93C203.98,-410.49 199.37,-419.78 195.7,-428.49"/>
<polygon fill="#91cf60" stroke="#91cf60" points="192.379,-427.372 192,-437.96 198.899,-429.919 192.379,-427.372"/>
<text text-anchor="middle" x="193.06" y="-404.51" font-family="Times,serif" font-size="14.00">0.0</text>
</g>
<!-- h6 -->
<g id="node18" class="node"><title>h6</title>
<ellipse fill="none" stroke="black" cx="288.16" cy="-442.97" rx="27" ry="18"/>
<text text-anchor="middle" x="288.16" y="-439.27" font-family="Times,serif" font-size="14.00">h6</text>
</g>
<!-- s6&#45;&gt;h6 -->
<g id="edge28" class="edge"><title>s6&#45;&gt;h6</title>
<path fill="none" stroke="#91cf60" d="M233.36,-404.11C240.21,-411.15 249.34,-419.25 258.19,-426.27"/>
<polygon fill="#91cf60" stroke="#91cf60" points="256.097,-429.076 266.17,-432.36 260.344,-423.511 256.097,-429.076"/>
<text text-anchor="middle" x="254.77" y="-418.99" font-family="Times,serif" font-size="14.00">0.0</text>
</g>
<!-- h7&#45;&gt;s7 -->
<g id="edge29" class="edge"><title>h7&#45;&gt;s7</title>
<path fill="none" stroke="#91cf60" d="M298.81,-324.87C292.06,-320.73 283.92,-316.37 275.91,-312.55"/>
<polygon fill="#91cf60" stroke="#91cf60" points="277.203,-309.293 266.65,-308.35 274.311,-315.668 277.203,-309.293"/>
<text text-anchor="middle" x="278.36" y="-322.51" font-family="Times,serif" font-size="14.00">0.0</text>
</g>
<!-- s4&#45;&gt;s5 -->
<g id="edge30" class="edge"><title>s4&#45;&gt;s5</title>
<path fill="none" stroke="#91cf60" d="M140.79,-381.96C137.99,-372.08 133.36,-359.77 128.5,-349"/>
<polygon fill="#91cf60" stroke="#91cf60" points="131.504,-347.17 124.02,-339.67 125.193,-350.2 131.504,-347.17"/>
<text text-anchor="middle" x="143.65" y="-369.28" font-family="Times,serif" font-size="14.00">0.0</text>
</g>
<!-- s4&#45;&gt;s6 -->
<g id="edge31" class="edge"><title>s4&#45;&gt;s6</title>
<path fill="none" stroke="#91cf60" d="M168.97,-402.42C175.69,-401.73 182.97,-400.67 189.93,-399.38"/>
<polygon fill="#91cf60" stroke="#91cf60" points="190.715,-402.792 199.8,-397.34 189.299,-395.937 190.715,-402.792"/>
<text text-anchor="middle" x="179.45" y="-389.7" font-family="Times,serif" font-size="14.00">0.0</text>
</g>
<!-- s4&#45;&gt;s3 -->
<g id="edge32" class="edge"><title>s4&#45;&gt;s3</title>
<path fill="none" stroke="#91cf60" d="M149.34,-417.97C153.29,-423.67 158.32,-430 163.5,-435.87"/>
<polygon fill="#91cf60" stroke="#91cf60" points="161.193,-438.529 170.56,-443.48 166.325,-433.769 161.193,-438.529"/>
<text text-anchor="middle" x="147.42" y="-430.72" font-family="Times,serif" font-size="14.00">0.0</text>
</g>
<!-- h4 -->
<g id="node19" class="node"><title>h4</title>
<ellipse fill="none" stroke="black" cx="78.043" cy="-452.23" rx="27" ry="18"/>
<text text-anchor="middle" x="78.043" y="-448.53" font-family="Times,serif" font-size="14.00">h4</text>
</g>
<!-- s4&#45;&gt;h4 -->
<g id="edge33" class="edge"><title>s4&#45;&gt;h4</title>
<path fill="none" stroke="#91cf60" d="M119.66,-410.51C112.1,-415.82 103.78,-422.45 96.545,-428.88"/>
<polygon fill="#91cf60" stroke="#91cf60" points="94.1535,-426.324 89.219,-435.7 98.9232,-431.448 94.1535,-426.324"/>
<text text-anchor="middle" x="99.105" y="-423.49" font-family="Times,serif" font-size="14.00">0.0</text>
</g>
<!-- h5&#45;&gt;s5 -->
<g id="edge34" class="edge"><title>h5&#45;&gt;s5</title>
<path fill="none" stroke="#91cf60" d="M52.856,-330.91C60.123,-331.24 68.154,-331.26 75.877,-330.97"/>
<polygon fill="#91cf60" stroke="#91cf60" points="76.3349,-334.45 86.117,-330.38 75.9322,-327.461 76.3349,-334.45"/>
<text text-anchor="middle" x="73.367" y="-334.74" font-family="Times,serif" font-size="14.00">0.0</text>
</g>
<!-- h2&#45;&gt;s2 -->
<g id="edge35" class="edge"><title>h2&#45;&gt;s2</title>
<path fill="none" stroke="#91cf60" d="M195.66,-42.801C199.26,-52.335 204.83,-64.098 210.52,-74.387"/>
<polygon fill="#91cf60" stroke="#91cf60" points="207.667,-76.4415 215.73,-83.314 213.712,-72.9131 207.667,-76.4415"/>
<text text-anchor="middle" x="194.09" y="-47.394" font-family="Times,serif" font-size="14.00">0.0</text>
</g>
<!-- s0&#45;&gt;s2 -->
<g id="edge36" class="edge"><title>s0&#45;&gt;s2</title>
<path fill="none" stroke="#91cf60" d="M283.51,-84.19C277.02,-84.8 270.01,-85.753 263.26,-86.93"/>
<polygon fill="#91cf60" stroke="#91cf60" points="262.138,-83.5835 253,-88.946 263.487,-90.4522 262.138,-83.5835"/>
<text text-anchor="middle" x="268.88" y="-74.36" font-family="Times,serif" font-size="14.00">0.0</text>
</g>
<!-- s0&#45;&gt;s1 -->
<g id="edge37" class="edge"><title>s0&#45;&gt;s1</title>
<path fill="none" stroke="#91cf60" d="M311.31,-104.66C313.94,-114.36 318.35,-126.45 323.01,-137.05"/>
<polygon fill="#91cf60" stroke="#91cf60" points="319.911,-138.686 327.32,-146.26 326.251,-135.719 319.911,-138.686"/>
<text text-anchor="middle" x="308.16" y="-124.66" font-family="Times,serif" font-size="14.00">0.0</text>
</g>
<!-- h0 -->
<g id="node20" class="node"><title>h0</title>
<ellipse fill="none" stroke="black" cx="350.39" cy="-18" rx="27" ry="18"/>
<text text-anchor="middle" x="350.39" y="-14.3" font-family="Times,serif" font-size="14.00">h0</text>
</g>
<!-- s0&#45;&gt;h0 -->
<g id="edge38" class="edge"><title>s0&#45;&gt;h0</title>
<path fill="none" stroke="#91cf60" d="M326.02,-71.582C331.45,-63.852 337.26,-54.214 341.95,-45.239"/>
<polygon fill="#91cf60" stroke="#91cf60" points="345.106,-46.7522 346.37,-36.233 338.822,-43.6681 345.106,-46.7522"/>
<text text-anchor="middle" x="342.99" y="-47.21" font-family="Times,serif" font-size="14.00">0.0</text>
</g>
<!-- s1&#45;&gt;s10 -->
<g id="edge39" class="edge"><title>s1&#45;&gt;s10</title>
<path fill="none" stroke="#91cf60" d="M320.23,-174.78C312.52,-181.98 303.87,-191.2 296.7,-199.82"/>
<polygon fill="#91cf60" stroke="#91cf60" points="293.826,-197.811 290.35,-207.82 299.308,-202.163 293.826,-197.811"/>
<text text-anchor="middle" x="299.46" y="-191.1" font-family="Times,serif" font-size="14.00">0.0</text>
</g>
<!-- s1&#45;&gt;s0 -->
<g id="edge40" class="edge"><title>s1&#45;&gt;s0</title>
<path fill="none" stroke="#91cf60" d="M338.85,-144.17C336.22,-134.47 331.81,-122.39 327.15,-111.79"/>
<polygon fill="#91cf60" stroke="#91cf60" points="330.249,-110.154 322.84,-102.58 323.909,-113.121 330.249,-110.154"/>
<text text-anchor="middle" x="342" y="-131.78" font-family="Times,serif" font-size="14.00">0.0</text>
</g>
<!-- h1 -->
<g id="node21" class="node"><title>h1</title>
<ellipse fill="none" stroke="black" cx="423.47" cy="-155.2" rx="27" ry="18"/>
<text text-anchor="middle" x="423.47" y="-151.5" font-family="Times,serif" font-size="14.00">h1</text>
</g>
<!-- s1&#45;&gt;h1 -->
<g id="edge41" class="edge"><title>s1&#45;&gt;h1</title>
<path fill="none" stroke="#91cf60" d="M366.4,-166.36C373.69,-166.18 381.69,-165.62 389.34,-164.78"/>
<polygon fill="#91cf60" stroke="#91cf60" points="389.983,-168.226 399.45,-163.47 389.083,-161.284 389.983,-168.226"/>
<text text-anchor="middle" x="386.87" y="-169.37" font-family="Times,serif" font-size="14.00">0.0</text>
</g>
<!-- h10&#45;&gt;s10 -->
<g id="edge42" class="edge"><title>h10&#45;&gt;s10</title>
<path fill="none" stroke="#91cf60" d="M341.96,-238.94C334.9,-235.97 326.67,-233.01 318.61,-230.49"/>
<polygon fill="#91cf60" stroke="#91cf60" points="319.52,-227.11 308.94,-227.67 317.56,-233.83 319.52,-227.11"/>
<text text-anchor="middle" x="321.29" y="-223.52" font-family="Times,serif" font-size="14.00">0.0</text>
</g>
<!-- s3&#45;&gt;s6 -->
<g id="edge45" class="edge"><title>s3&#45;&gt;s6</title>
<path fill="none" stroke="#91cf60" d="M203.73,-440.81C208.16,-433.25 212.77,-423.96 216.45,-415.24"/>
<polygon fill="#91cf60" stroke="#91cf60" points="219.767,-416.368 220.14,-405.78 213.245,-413.824 219.767,-416.368"/>
<text text-anchor="middle" x="219.09" y="-416.82" font-family="Times,serif" font-size="14.00">0.0</text>
</g>
<!-- s3&#45;&gt;s4 -->
<g id="edge46" class="edge"><title>s3&#45;&gt;s4</title>
<path fill="none" stroke="#91cf60" d="M182.42,-438.64C178.47,-432.94 173.44,-426.61 168.26,-420.74"/>
<polygon fill="#91cf60" stroke="#91cf60" points="170.561,-418.074 161.19,-413.13 165.432,-422.838 170.561,-418.074"/>
<text text-anchor="middle" x="184.34" y="-418.49" font-family="Times,serif" font-size="14.00">0.0</text>
</g>
<!-- h3 -->
<g id="node22" class="node"><title>h3</title>
<ellipse fill="none" stroke="black" cx="197.04" cy="-535.6" rx="27" ry="18"/>
<text text-anchor="middle" x="197.04" y="-531.9" font-family="Times,serif" font-size="14.00">h3</text>
</g>
<!-- s3&#45;&gt;h3 -->
<g id="edge47" class="edge"><title>s3&#45;&gt;h3</title>
<path fill="none" stroke="#91cf60" d="M185.61,-474.45C185.5,-484.36 186.4,-496.85 187.95,-507.95"/>
<polygon fill="#91cf60" stroke="#91cf60" points="184.533,-508.741 189.61,-518.04 191.44,-507.604 184.533,-508.741"/>
<text text-anchor="middle" x="174.28" y="-480" font-family="Times,serif" font-size="14.00">0.01</text>
</g>
<!-- h6&#45;&gt;s6 -->
<g id="edge48" class="edge"><title>h6&#45;&gt;s6</title>
<path fill="none" stroke="#91cf60" d="M277.28,-426.27C270.42,-419.24 261.3,-411.14 252.45,-404.11"/>
<polygon fill="#91cf60" stroke="#91cf60" points="254.546,-401.306 244.47,-398.03 250.303,-406.874 254.546,-401.306"/>
<text text-anchor="middle" x="273.86" y="-403.99" font-family="Times,serif" font-size="14.00">0.0</text>
</g>
<!-- h4&#45;&gt;s4 -->
<g id="edge49" class="edge"><title>h4&#45;&gt;s4</title>
<path fill="none" stroke="#91cf60" d="M100.46,-442.01C108.02,-436.69 116.35,-430.07 123.58,-423.64"/>
<polygon fill="#91cf60" stroke="#91cf60" points="125.973,-426.194 130.91,-416.82 121.205,-421.069 125.973,-426.194"/>
<text text-anchor="middle" x="121.02" y="-436.63" font-family="Times,serif" font-size="14.00">0.0</text>
</g>
<!-- h0&#45;&gt;s0 -->
<g id="edge43" class="edge"><title>h0&#45;&gt;s0</title>
<path fill="none" stroke="#91cf60" d="M334.66,-32.969C329.22,-40.699 323.41,-50.337 318.72,-59.312"/>
<polygon fill="#91cf60" stroke="#91cf60" points="315.564,-57.7977 314.31,-68.318 321.851,-60.8762 315.564,-57.7977"/>
<text text-anchor="middle" x="317.69" y="-49.941" font-family="Times,serif" font-size="14.00">0.0</text>
</g>
<!-- h1&#45;&gt;s1 -->
<g id="edge50" class="edge"><title>h1&#45;&gt;s1</title>
<path fill="none" stroke="#91cf60" d="M396.94,-151.12C389.66,-151.31 381.66,-151.87 374.01,-152.71"/>
<polygon fill="#91cf60" stroke="#91cf60" points="373.367,-149.264 363.9,-154.02 374.267,-156.206 373.367,-149.264"/>
<text text-anchor="middle" x="376.48" y="-140.72" font-family="Times,serif" font-size="14.00">0.0</text>
</g>
<!-- h3&#45;&gt;s3 -->
<g id="edge44" class="edge"><title>h3&#45;&gt;s3</title>
<path fill="none" stroke="#91cf60" d="M201.1,-517.48C201.21,-507.57 200.31,-495.08 198.77,-483.97"/>
<polygon fill="#91cf60" stroke="#91cf60" points="202.186,-483.174 197.1,-473.88 195.28,-484.317 202.186,-483.174"/>
<text text-anchor="middle" x="190.94" y="-504.53" font-family="Times,serif" font-size="14.00">0.0</text>
</g>
</g>
</svg>
