<?xml version="1.0" encoding="UTF-8" standalone="no"?>
<!DOCTYPE svg PUBLIC "-//W3C//DTD SVG 1.1//EN"
 "http://www.w3.org/Graphics/SVG/1.1/DTD/svg11.dtd">
<!-- Generated by graphviz version 2.36.0 (20140111.2315)
 -->
<!-- Title: grid5h0 Pages: 1 -->
<svg width="575pt" height="562pt"
 viewBox="0.00 0.00 575.42 562.39" xmlns="http://www.w3.org/2000/svg" xmlns:xlink="http://www.w3.org/1999/xlink">
<g id="graph0" class="graph" transform="scale(1 1) rotate(0) translate(4 558.39)">
<title>grid5h0</title>
<polygon fill="white" stroke="none" points="-4,4 -4,-558.39 571.42,-558.39 571.42,4 -4,4"/>
<!-- s0 -->
<g id="0" class="node"><title>s0</title>
<ellipse fill="none" stroke="black" cx="441.99" cy="-111.21" rx="27" ry="18"/>
<text text-anchor="middle" x="441.99" y="-107.51" font-family="Times,serif" font-size="14.00">s0</text>
</g>
<!-- s1 -->
<g id="1" class="node"><title>s1</title>
<ellipse fill="none" stroke="black" cx="358.65" cy="-111.83" rx="27" ry="18"/>
<text text-anchor="middle" x="358.65" y="-108.13" font-family="Times,serif" font-size="14.00">s1</text>
</g>
<!-- s0&#45;&gt;s1 -->
<g id="edge1" class="edge"><title>s0&#45;&gt;s1</title>
<path fill="none" stroke="#fc8d59" d="M416.48,-105.12C409.37,-104.74 401.51,-104.66 393.95,-104.88"/>
<polygon fill="#fc8d59" stroke="#fc8d59" points="393.718,-101.387 383.9,-105.37 394.059,-108.379 393.718,-101.387"/>
<text text-anchor="middle" x="398.96" y="-93.803" font-family="Times,serif" font-size="14.00">0.77</text>
</g>
<!-- s5 -->
<g id="5" class="node"><title>s5</title>
<ellipse fill="none" stroke="black" cx="444.53" cy="-193.88" rx="27" ry="18"/>
<text text-anchor="middle" x="444.53" y="-190.18" font-family="Times,serif" font-size="14.00">s5</text>
</g>
<!-- s0&#45;&gt;s5 -->
<g id="edge2" class="edge"><title>s0&#45;&gt;s5</title>
<path fill="none" stroke="#aaaaaa" d="M436.89,-128.91C436.08,-139.73 436.25,-153.79 437.24,-166.06"/>
<polygon fill="#aaaaaa" stroke="#aaaaaa" points="433.786,-166.684 438.32,-176.26 440.748,-165.947 433.786,-166.684"/>
<text text-anchor="middle" x="428.07" y="-151.29" font-family="Times,serif" font-size="14.00">0.0</text>
</g>
<!-- s1&#45;&gt;s0 -->
<g id="edge3" class="edge"><title>s1&#45;&gt;s0</title>
<path fill="none" stroke="#aaaaaa" d="M384.15,-117.91C391.26,-118.3 399.12,-118.37 406.69,-118.15"/>
<polygon fill="#aaaaaa" stroke="#aaaaaa" points="406.913,-121.643 416.73,-117.66 406.571,-114.652 406.913,-121.643"/>
<text text-anchor="middle" x="404.42" y="-121.83" font-family="Times,serif" font-size="14.00">0.0</text>
</g>
<!-- s2 -->
<g id="2" class="node"><title>s2</title>
<ellipse fill="none" stroke="black" cx="270.73" cy="-99.826" rx="27" ry="18"/>
<text text-anchor="middle" x="270.73" y="-96.126" font-family="Times,serif" font-size="14.00">s2</text>
</g>
<!-- s1&#45;&gt;s2 -->
<g id="edge4" class="edge"><title>s1&#45;&gt;s2</title>
<path fill="none" stroke="#cb181d" d="M335.45,-102.51C327.03,-100.76 317.3,-99.237 307.98,-98.19"/>
<polygon fill="#cb181d" stroke="#cb181d" points="308.015,-94.6778 297.73,-97.222 307.357,-101.647 308.015,-94.6778"/>
<text text-anchor="middle" x="315.46" y="-89.152" font-family="Times,serif" font-size="14.00">1.55</text>
</g>
<!-- s6 -->
<g id="6" class="node"><title>s6</title>
<ellipse fill="none" stroke="black" cx="359.34" cy="-196.9" rx="27" ry="18"/>
<text text-anchor="middle" x="359.34" y="-193.2" font-family="Times,serif" font-size="14.00">s6</text>
</g>
<!-- s1&#45;&gt;s6 -->
<g id="edge5" class="edge"><title>s1&#45;&gt;s6</title>
<path fill="none" stroke="#fc8d59" d="M353.2,-129.5C352.09,-140.84 351.95,-155.82 352.71,-168.77"/>
<polygon fill="#fc8d59" stroke="#fc8d59" points="349.248,-169.377 353.57,-179.05 356.224,-168.793 349.248,-169.377"/>
<text text-anchor="middle" x="340.46" y="-152.93" font-family="Times,serif" font-size="14.00">0.77</text>
</g>
<!-- s5&#45;&gt;s0 -->
<g id="edge6" class="edge"><title>s5&#45;&gt;s0</title>
<path fill="none" stroke="#fc8d59" d="M449.63,-176.17C450.44,-165.36 450.27,-151.3 449.27,-139.02"/>
<polygon fill="#fc8d59" stroke="#fc8d59" points="452.724,-138.396 448.19,-128.82 445.762,-139.133 452.724,-138.396"/>
<text text-anchor="middle" x="461.95" y="-161.4" font-family="Times,serif" font-size="14.00">0.77</text>
</g>
<!-- s5&#45;&gt;s6 -->
<g id="edge7" class="edge"><title>s5&#45;&gt;s6</title>
<path fill="none" stroke="#fc8d59" d="M418.29,-188.53C410.79,-188.35 402.49,-188.51 394.54,-188.98"/>
<polygon fill="#fc8d59" stroke="#fc8d59" points="394.094,-185.504 384.4,-189.78 394.644,-192.483 394.094,-185.504"/>
<text text-anchor="middle" x="400.16" y="-177.56" font-family="Times,serif" font-size="14.00">0.77</text>
</g>
<!-- s10 -->
<g id="10" class="node"><title>s10</title>
<ellipse fill="none" stroke="black" cx="450.08" cy="-278.02" rx="27" ry="18"/>
<text text-anchor="middle" x="450.08" y="-274.32" font-family="Times,serif" font-size="14.00">s10</text>
</g>
<!-- s5&#45;&gt;s10 -->
<g id="edge8" class="edge"><title>s5&#45;&gt;s10</title>
<path fill="none" stroke="#fc8d59" d="M440.1,-211.68C439.65,-222.89 440.35,-237.59 441.83,-250.31"/>
<polygon fill="#fc8d59" stroke="#fc8d59" points="438.391,-250.99 443.26,-260.4 445.322,-250.008 438.391,-250.99"/>
<text text-anchor="middle" x="428.47" y="-234.79" font-family="Times,serif" font-size="14.00">0.77</text>
</g>
<!-- s2&#45;&gt;s1 -->
<g id="edge9" class="edge"><title>s2&#45;&gt;s1</title>
<path fill="none" stroke="#fc8d59" d="M293.93,-109.14C302.34,-110.9 312.07,-112.42 321.39,-113.46"/>
<polygon fill="#fc8d59" stroke="#fc8d59" points="321.365,-116.973 331.65,-114.43 322.024,-110.004 321.365,-116.973"/>
<text text-anchor="middle" x="320.16" y="-115.1" font-family="Times,serif" font-size="14.00">0.77</text>
</g>
<!-- h0 -->
<g id="node7" class="node"><title>h0</title>
<ellipse fill="none" stroke="black" cx="270.92" cy="-18" rx="27" ry="18"/>
<text text-anchor="middle" x="270.92" y="-14.3" font-family="Times,serif" font-size="14.00">h0</text>
</g>
<!-- s2&#45;&gt;h0 -->
<g id="edge10" class="edge"><title>s2&#45;&gt;h0</title>
<path fill="none" stroke="#91cf60" d="M276.45,-82.084C277.58,-71.472 277.86,-57.755 277.28,-45.737"/>
<polygon fill="#91cf60" stroke="#91cf60" points="280.769,-45.4527 276.55,-35.734 273.787,-45.9623 280.769,-45.4527"/>
<text text-anchor="middle" x="264.37" y="-67.711" font-family="Times,serif" font-size="14.00">0.01</text>
</g>
<!-- s3 -->
<g id="3" class="node"><title>s3</title>
<ellipse fill="none" stroke="black" cx="174.86" cy="-116.6" rx="27" ry="18"/>
<text text-anchor="middle" x="174.86" y="-112.9" font-family="Times,serif" font-size="14.00">s3</text>
</g>
<!-- s2&#45;&gt;s3 -->
<g id="edge11" class="edge"><title>s2&#45;&gt;s3</title>
<path fill="none" stroke="#fc8d59" d="M243.74,-98.382C232.46,-99.608 219.26,-101.78 207.45,-104.32"/>
<polygon fill="#fc8d59" stroke="#fc8d59" points="206.458,-100.957 197.51,-106.63 208.043,-107.775 206.458,-100.957"/>
<text text-anchor="middle" x="225.59" y="-90.151" font-family="Times,serif" font-size="14.00">0.77</text>
</g>
<!-- s7 -->
<g id="7" class="node"><title>s7</title>
<ellipse fill="none" stroke="black" cx="272.3" cy="-191.88" rx="27" ry="18"/>
<text text-anchor="middle" x="272.3" y="-188.18" font-family="Times,serif" font-size="14.00">s7</text>
</g>
<!-- s2&#45;&gt;s7 -->
<g id="edge12" class="edge"><title>s2&#45;&gt;s7</title>
<path fill="none" stroke="#fc8d59" d="M265.57,-117.67C264.41,-130.81 264.45,-148.93 265.55,-163.98"/>
<polygon fill="#fc8d59" stroke="#fc8d59" points="262.099,-164.661 266.54,-174.28 269.067,-163.991 262.099,-164.661"/>
<text text-anchor="middle" x="278.06" y="-144.62" font-family="Times,serif" font-size="14.00">0.77</text>
</g>
<!-- s6&#45;&gt;s1 -->
<g id="edge13" class="edge"><title>s6&#45;&gt;s1</title>
<path fill="none" stroke="#fc8d59" d="M364.79,-179.23C365.89,-167.89 366.04,-152.91 365.27,-139.96"/>
<polygon fill="#fc8d59" stroke="#fc8d59" points="368.732,-139.353 364.41,-129.68 361.756,-139.937 368.732,-139.353"/>
<text text-anchor="middle" x="377.53" y="-148.39" font-family="Times,serif" font-size="14.00">0.77</text>
</g>
<!-- s6&#45;&gt;s5 -->
<g id="edge14" class="edge"><title>s6&#45;&gt;s5</title>
<path fill="none" stroke="#fc8d59" d="M385.59,-202.25C393.09,-202.43 401.39,-202.27 409.33,-201.8"/>
<polygon fill="#fc8d59" stroke="#fc8d59" points="409.776,-205.276 419.47,-201 409.226,-198.297 409.776,-205.276"/>
<text text-anchor="middle" x="403.71" y="-190.82" font-family="Times,serif" font-size="14.00">0.77</text>
</g>
<!-- s6&#45;&gt;s7 -->
<g id="edge15" class="edge"><title>s6&#45;&gt;s7</title>
<path fill="none" stroke="#fc8d59" d="M334.52,-189.27C326.39,-188.27 317.2,-187.58 308.41,-187.3"/>
<polygon fill="#fc8d59" stroke="#fc8d59" points="308.431,-183.8 298.38,-187.15 308.327,-190.799 308.431,-183.8"/>
<text text-anchor="middle" x="315.22" y="-177.09" font-family="Times,serif" font-size="14.00">0.77</text>
</g>
<!-- s11 -->
<g id="11" class="node"><title>s11</title>
<ellipse fill="none" stroke="black" cx="364.63" cy="-283.11" rx="27" ry="18"/>
<text text-anchor="middle" x="364.63" y="-279.41" font-family="Times,serif" font-size="14.00">s11</text>
</g>
<!-- s6&#45;&gt;s11 -->
<g id="edge16" class="edge"><title>s6&#45;&gt;s11</title>
<path fill="none" stroke="#fc8d59" d="M354.87,-214.69C354.34,-226.41 355.02,-242.01 356.54,-255.35"/>
<polygon fill="#fc8d59" stroke="#fc8d59" points="353.098,-256.011 357.93,-265.44 360.032,-255.056 353.098,-256.011"/>
<text text-anchor="middle" x="343.21" y="-238.82" font-family="Times,serif" font-size="14.00">0.77</text>
</g>
<!-- s10&#45;&gt;s5 -->
<g id="edge17" class="edge"><title>s10&#45;&gt;s5</title>
<path fill="none" stroke="#cb181d" d="M454.51,-260.22C454.97,-249.01 454.27,-234.31 452.78,-221.59"/>
<polygon fill="#cb181d" stroke="#cb181d" points="456.22,-220.915 451.36,-211.5 449.288,-221.89 456.22,-220.915"/>
<text text-anchor="middle" x="466.15" y="-244.7" font-family="Times,serif" font-size="14.00">1.55</text>
</g>
<!-- s10&#45;&gt;s11 -->
<g id="edge18" class="edge"><title>s10&#45;&gt;s11</title>
<path fill="none" stroke="#aaaaaa" d="M423.61,-273.31C415.92,-273.31 407.4,-273.69 399.29,-274.38"/>
<polygon fill="#aaaaaa" stroke="#aaaaaa" points="398.912,-270.9 389.33,-275.42 399.639,-277.862 398.912,-270.9"/>
<text text-anchor="middle" x="402.45" y="-262.65" font-family="Times,serif" font-size="14.00">0.0</text>
</g>
<!-- s15 -->
<g id="15" class="node"><title>s15</title>
<ellipse fill="none" stroke="black" cx="459.12" cy="-362.96" rx="27" ry="18"/>
<text text-anchor="middle" x="459.12" y="-359.26" font-family="Times,serif" font-size="14.00">s15</text>
</g>
<!-- s10&#45;&gt;s15 -->
<g id="edge19" class="edge"><title>s10&#45;&gt;s15</title>
<path fill="none" stroke="#cb181d" d="M446.39,-296.21C446.41,-307.58 447.71,-322.43 449.73,-335.24"/>
<polygon fill="#cb181d" stroke="#cb181d" points="446.344,-336.184 451.57,-345.4 453.232,-334.936 446.344,-336.184"/>
<text text-anchor="middle" x="435.56" y="-319.52" font-family="Times,serif" font-size="14.00">1.55</text>
</g>
<!-- h0&#45;&gt;s2 -->
<g id="edge20" class="edge"><title>h0&#45;&gt;s2</title>
<path fill="none" stroke="#91cf60" d="M265.2,-35.742C264.07,-46.355 263.79,-60.071 264.37,-72.089"/>
<polygon fill="#91cf60" stroke="#91cf60" points="260.881,-72.3743 265.1,-82.093 267.863,-71.8648 260.881,-72.3743"/>
<text text-anchor="middle" x="252.28" y="-42.716" font-family="Times,serif" font-size="14.00">0.01</text>
</g>
<!-- s3&#45;&gt;s2 -->
<g id="edge21" class="edge"><title>s3&#45;&gt;s2</title>
<path fill="none" stroke="#aaaaaa" d="M201.85,-118.04C213.13,-116.82 226.33,-114.64 238.14,-112.1"/>
<polygon fill="#aaaaaa" stroke="#aaaaaa" points="239.132,-115.463 248.08,-109.79 237.547,-108.645 239.132,-115.463"/>
<text text-anchor="middle" x="211" y="-118.87" font-family="Times,serif" font-size="14.00">0.0</text>
</g>
<!-- s4 -->
<g id="4" class="node"><title>s4</title>
<ellipse fill="none" stroke="black" cx="89.478" cy="-124.55" rx="27" ry="18"/>
<text text-anchor="middle" x="89.478" y="-120.85" font-family="Times,serif" font-size="14.00">s4</text>
</g>
<!-- s3&#45;&gt;s4 -->
<g id="edge22" class="edge"><title>s3&#45;&gt;s4</title>
<path fill="none" stroke="#aaaaaa" d="M148.2,-112.78C140.36,-113.04 131.68,-113.73 123.45,-114.72"/>
<polygon fill="#aaaaaa" stroke="#aaaaaa" points="122.789,-111.278 113.37,-116.13 123.758,-118.211 122.789,-111.278"/>
<text text-anchor="middle" x="126.83" y="-102.55" font-family="Times,serif" font-size="14.00">0.0</text>
</g>
<!-- s8 -->
<g id="8" class="node"><title>s8</title>
<ellipse fill="none" stroke="black" cx="183.12" cy="-203.59" rx="27" ry="18"/>
<text text-anchor="middle" x="183.12" y="-199.89" font-family="Times,serif" font-size="14.00">s8</text>
</g>
<!-- s3&#45;&gt;s8 -->
<g id="edge23" class="edge"><title>s3&#45;&gt;s8</title>
<path fill="none" stroke="#fc8d59" d="M171.01,-134.73C170.88,-146.68 172.11,-162.55 174.11,-176.05"/>
<polygon fill="#fc8d59" stroke="#fc8d59" points="170.719,-176.982 175.87,-186.24 177.617,-175.79 170.719,-176.982"/>
<text text-anchor="middle" x="160.06" y="-159.19" font-family="Times,serif" font-size="14.00">0.77</text>
</g>
<!-- s7&#45;&gt;s2 -->
<g id="edge24" class="edge"><title>s7&#45;&gt;s2</title>
<path fill="none" stroke="#fc8d59" d="M277.45,-174.04C278.62,-160.9 278.58,-142.77 277.47,-127.73"/>
<polygon fill="#fc8d59" stroke="#fc8d59" points="280.921,-127.049 276.48,-117.43 273.953,-127.719 280.921,-127.049"/>
<text text-anchor="middle" x="264.96" y="-154.68" font-family="Times,serif" font-size="14.00">0.77</text>
</g>
<!-- s7&#45;&gt;s6 -->
<g id="edge25" class="edge"><title>s7&#45;&gt;s6</title>
<path fill="none" stroke="#fc8d59" d="M297.12,-199.51C305.24,-200.51 314.44,-201.2 323.23,-201.48"/>
<polygon fill="#fc8d59" stroke="#fc8d59" points="323.209,-204.98 333.26,-201.63 323.313,-197.981 323.209,-204.98"/>
<text text-anchor="middle" x="322.67" y="-204.29" font-family="Times,serif" font-size="14.00">0.77</text>
</g>
<!-- s7&#45;&gt;s8 -->
<g id="edge26" class="edge"><title>s7&#45;&gt;s8</title>
<path fill="none" stroke="#fc8d59" d="M245.21,-189.17C236.16,-189.8 225.96,-191.01 216.49,-192.56"/>
<polygon fill="#fc8d59" stroke="#fc8d59" points="215.788,-189.13 206.58,-194.37 217.046,-196.016 215.788,-189.13"/>
<text text-anchor="middle" x="230.85" y="-179.66" font-family="Times,serif" font-size="14.00">0.77</text>
</g>
<!-- h2 -->
<g id="node14" class="node"><title>h2</title>
<ellipse fill="none" stroke="black" cx="247.69" cy="-131.48" rx="27" ry="18"/>
<text text-anchor="middle" x="247.69" y="-127.78" font-family="Times,serif" font-size="14.00">h2</text>
</g>
<!-- s7&#45;&gt;h2 -->
<g id="edge27" class="edge"><title>s7&#45;&gt;h2</title>
<path fill="none" stroke="#91cf60" d="M271.41,-173.74C269.82,-168.33 267.62,-162.31 265.16,-156.54"/>
<polygon fill="#91cf60" stroke="#91cf60" points="268.227,-154.834 260.85,-147.23 261.875,-157.775 268.227,-154.834"/>
<text text-anchor="middle" x="255.79" y="-168.94" font-family="Times,serif" font-size="14.00">0.01</text>
</g>
<!-- s12 -->
<g id="12" class="node"><title>s12</title>
<ellipse fill="none" stroke="black" cx="277.62" cy="-278.39" rx="27" ry="18"/>
<text text-anchor="middle" x="277.62" y="-274.69" font-family="Times,serif" font-size="14.00">s12</text>
</g>
<!-- s7&#45;&gt;s12 -->
<g id="edge28" class="edge"><title>s7&#45;&gt;s12</title>
<path fill="none" stroke="#fc8d59" d="M267.83,-209.73C267.31,-221.49 267.99,-237.14 269.52,-250.53"/>
<polygon fill="#fc8d59" stroke="#fc8d59" points="266.083,-251.229 270.91,-260.66 273.018,-250.277 266.083,-251.229"/>
<text text-anchor="middle" x="256.18" y="-233.93" font-family="Times,serif" font-size="14.00">0.77</text>
</g>
<!-- s11&#45;&gt;s6 -->
<g id="edge29" class="edge"><title>s11&#45;&gt;s6</title>
<path fill="none" stroke="#fc8d59" d="M369.1,-265.33C369.63,-253.6 368.95,-238.01 367.43,-224.67"/>
<polygon fill="#fc8d59" stroke="#fc8d59" points="370.871,-223.999 366.04,-214.57 363.936,-224.954 370.871,-223.999"/>
<text text-anchor="middle" x="380.77" y="-248.8" font-family="Times,serif" font-size="14.00">0.77</text>
</g>
<!-- s11&#45;&gt;s10 -->
<g id="edge30" class="edge"><title>s11&#45;&gt;s10</title>
<path fill="none" stroke="#fc8d59" d="M391.11,-287.82C398.8,-287.82 407.31,-287.44 415.42,-286.75"/>
<polygon fill="#fc8d59" stroke="#fc8d59" points="415.807,-290.229 425.39,-285.71 415.081,-283.266 415.807,-290.229"/>
<text text-anchor="middle" x="409.51" y="-276.09" font-family="Times,serif" font-size="14.00">0.77</text>
</g>
<!-- s11&#45;&gt;s12 -->
<g id="edge31" class="edge"><title>s11&#45;&gt;s12</title>
<path fill="none" stroke="#fc8d59" d="M339.8,-275.57C331.67,-274.6 322.48,-273.94 313.7,-273.69"/>
<polygon fill="#fc8d59" stroke="#fc8d59" points="313.708,-270.19 303.67,-273.58 313.631,-277.19 313.708,-270.19"/>
<text text-anchor="middle" x="320.5" y="-263.43" font-family="Times,serif" font-size="14.00">0.77</text>
</g>
<!-- s16 -->
<g id="16" class="node"><title>s16</title>
<ellipse fill="none" stroke="black" cx="372.17" cy="-369.52" rx="27" ry="18"/>
<text text-anchor="middle" x="372.17" y="-365.82" font-family="Times,serif" font-size="14.00">s16</text>
</g>
<!-- s11&#45;&gt;s16 -->
<g id="edge32" class="edge"><title>s11&#45;&gt;s16</title>
<path fill="none" stroke="#fc8d59" d="M360.63,-301.08C360.4,-312.86 361.49,-328.5 363.36,-341.85"/>
<polygon fill="#fc8d59" stroke="#fc8d59" points="359.945,-342.654 365.01,-351.96 366.853,-341.527 359.945,-342.654"/>
<text text-anchor="middle" x="349.49" y="-325.27" font-family="Times,serif" font-size="14.00">0.77</text>
</g>
<!-- s15&#45;&gt;s10 -->
<g id="edge56" class="edge"><title>s15&#45;&gt;s10</title>
<path fill="none" stroke="#cb181d" d="M462.81,-344.77C462.8,-333.41 461.49,-318.55 459.48,-305.74"/>
<polygon fill="#cb181d" stroke="#cb181d" points="462.866,-304.8 457.63,-295.59 455.98,-306.056 462.866,-304.8"/>
<text text-anchor="middle" x="473.65" y="-329.06" font-family="Times,serif" font-size="14.00">1.55</text>
</g>
<!-- s15&#45;&gt;s16 -->
<g id="edge57" class="edge"><title>s15&#45;&gt;s16</title>
<path fill="none" stroke="#fc8d59" d="M432.56,-358.7C424.42,-358.82 415.33,-359.37 406.73,-360.26"/>
<polygon fill="#fc8d59" stroke="#fc8d59" points="406.082,-356.813 396.58,-361.5 406.931,-363.761 406.082,-356.813"/>
<text text-anchor="middle" x="419.65" y="-348.28" font-family="Times,serif" font-size="14.00">0.77</text>
</g>
<!-- h3 -->
<g id="node24" class="node"><title>h3</title>
<ellipse fill="none" stroke="black" cx="540.42" cy="-378.01" rx="27" ry="18"/>
<text text-anchor="middle" x="540.42" y="-374.31" font-family="Times,serif" font-size="14.00">h3</text>
</g>
<!-- s15&#45;&gt;h3 -->
<g id="edge58" class="edge"><title>s15&#45;&gt;h3</title>
<path fill="none" stroke="#91cf60" d="M481.51,-373.39C488.26,-375.13 495.85,-376.71 503.29,-377.96"/>
<polygon fill="#91cf60" stroke="#91cf60" points="502.836,-381.431 513.24,-379.43 503.859,-374.506 502.836,-381.431"/>
<text text-anchor="middle" x="498.65" y="-364.48" font-family="Times,serif" font-size="14.00">0.02</text>
</g>
<!-- s20 -->
<g id="20" class="node"><title>s20</title>
<ellipse fill="none" stroke="black" cx="452.84" cy="-446.63" rx="27" ry="18"/>
<text text-anchor="middle" x="452.84" y="-442.93" font-family="Times,serif" font-size="14.00">s20</text>
</g>
<!-- s15&#45;&gt;s20 -->
<g id="edge59" class="edge"><title>s15&#45;&gt;s20</title>
<path fill="none" stroke="#cb181d" d="M452.1,-380.69C450.15,-391.61 448.84,-405.85 448.55,-418.31"/>
<polygon fill="#cb181d" stroke="#cb181d" points="445.05,-418.663 448.56,-428.66 452.05,-418.657 445.05,-418.663"/>
<text text-anchor="middle" x="437.82" y="-403.3" font-family="Times,serif" font-size="14.00">1.55</text>
</g>
<!-- s4&#45;&gt;s3 -->
<g id="edge33" class="edge"><title>s4&#45;&gt;s3</title>
<path fill="none" stroke="#aaaaaa" d="M116.14,-128.37C123.98,-128.11 132.66,-127.43 140.89,-126.43"/>
<polygon fill="#aaaaaa" stroke="#aaaaaa" points="141.551,-129.872 150.97,-125.02 140.582,-122.939 141.551,-129.872"/>
<text text-anchor="middle" x="137.51" y="-131.2" font-family="Times,serif" font-size="14.00">0.0</text>
</g>
<!-- h1 -->
<g id="node17" class="node"><title>h1</title>
<ellipse fill="none" stroke="black" cx="27" cy="-75.623" rx="27" ry="18"/>
<text text-anchor="middle" x="27" y="-71.923" font-family="Times,serif" font-size="14.00">h1</text>
</g>
<!-- s4&#45;&gt;h1 -->
<g id="edge34" class="edge"><title>s4&#45;&gt;h1</title>
<path fill="none" stroke="#91cf60" d="M77.979,-108.08C72.302,-102.71 65.205,-96.806 58.115,-91.488"/>
<polygon fill="#91cf60" stroke="#91cf60" points="60.0466,-88.5662 49.881,-85.581 55.9662,-94.254 60.0466,-88.5662"/>
<text text-anchor="middle" x="80.547" y="-88.584" font-family="Times,serif" font-size="14.00">0.01</text>
</g>
<!-- s9 -->
<g id="9" class="node"><title>s9</title>
<ellipse fill="none" stroke="black" cx="97.413" cy="-208.95" rx="27" ry="18"/>
<text text-anchor="middle" x="97.413" y="-205.25" font-family="Times,serif" font-size="14.00">s9</text>
</g>
<!-- s4&#45;&gt;s9 -->
<g id="edge35" class="edge"><title>s4&#45;&gt;s9</title>
<path fill="none" stroke="#cb181d" d="M85.554,-142.56C85.419,-153.84 86.533,-168.6 88.378,-181.33"/>
<polygon fill="#cb181d" stroke="#cb181d" points="84.9678,-182.155 90.089,-191.43 91.8695,-180.986 84.9678,-182.155"/>
<text text-anchor="middle" x="74.466" y="-165.75" font-family="Times,serif" font-size="14.00">1.55</text>
</g>
<!-- s8&#45;&gt;s3 -->
<g id="edge36" class="edge"><title>s8&#45;&gt;s3</title>
<path fill="none" stroke="#aaaaaa" d="M186.97,-185.46C187.1,-173.51 185.86,-157.64 183.86,-144.14"/>
<polygon fill="#aaaaaa" stroke="#aaaaaa" points="187.252,-143.213 182.11,-133.95 180.353,-144.398 187.252,-143.213"/>
<text text-anchor="middle" x="194.42" y="-168.6" font-family="Times,serif" font-size="14.00">0.0</text>
</g>
<!-- s8&#45;&gt;s7 -->
<g id="edge37" class="edge"><title>s8&#45;&gt;s7</title>
<path fill="none" stroke="#fc8d59" d="M210.2,-206.3C219.25,-205.67 229.45,-204.46 238.92,-202.9"/>
<polygon fill="#fc8d59" stroke="#fc8d59" points="239.622,-206.33 248.83,-201.09 238.364,-199.444 239.622,-206.33"/>
<text text-anchor="middle" x="224.56" y="-193.4" font-family="Times,serif" font-size="14.00">0.77</text>
</g>
<!-- s8&#45;&gt;s9 -->
<g id="edge38" class="edge"><title>s8&#45;&gt;s9</title>
<path fill="none" stroke="#aaaaaa" d="M157.01,-198.96C149.06,-198.97 140.19,-199.39 131.78,-200.14"/>
<polygon fill="#aaaaaa" stroke="#aaaaaa" points="131.403,-196.66 121.84,-201.22 132.16,-203.619 131.403,-196.66"/>
<text text-anchor="middle" x="135.4" y="-188.35" font-family="Times,serif" font-size="14.00">0.0</text>
</g>
<!-- s13 -->
<g id="13" class="node"><title>s13</title>
<ellipse fill="none" stroke="black" cx="190.35" cy="-288.29" rx="27" ry="18"/>
<text text-anchor="middle" x="190.35" y="-284.59" font-family="Times,serif" font-size="14.00">s13</text>
</g>
<!-- s8&#45;&gt;s13 -->
<g id="edge39" class="edge"><title>s8&#45;&gt;s13</title>
<path fill="none" stroke="#cb181d" d="M179.04,-221.61C178.82,-232.92 179.81,-247.73 181.55,-260.51"/>
<polygon fill="#cb181d" stroke="#cb181d" points="178.139,-261.341 183.18,-270.66 185.05,-260.232 178.139,-261.341"/>
<text text-anchor="middle" x="167.8" y="-244.86" font-family="Times,serif" font-size="14.00">1.55</text>
</g>
<!-- h2&#45;&gt;s7 -->
<g id="edge40" class="edge"><title>h2&#45;&gt;s7</title>
<path fill="none" stroke="#91cf60" d="M248.58,-149.62C250.16,-155.03 252.36,-161.05 254.82,-166.81"/>
<polygon fill="#91cf60" stroke="#91cf60" points="251.753,-168.516 259.13,-176.12 258.105,-165.575 251.753,-168.516"/>
<text text-anchor="middle" x="239.2" y="-162.02" font-family="Times,serif" font-size="14.00">0.01</text>
</g>
<!-- s12&#45;&gt;s7 -->
<g id="edge41" class="edge"><title>s12&#45;&gt;s7</title>
<path fill="none" stroke="#fc8d59" d="M282.08,-260.54C282.61,-248.78 281.92,-233.13 280.4,-219.74"/>
<polygon fill="#fc8d59" stroke="#fc8d59" points="283.837,-219.041 279.01,-209.61 276.902,-219.993 283.837,-219.041"/>
<text text-anchor="middle" x="293.74" y="-243.94" font-family="Times,serif" font-size="14.00">0.77</text>
</g>
<!-- s12&#45;&gt;s11 -->
<g id="edge42" class="edge"><title>s12&#45;&gt;s11</title>
<path fill="none" stroke="#fc8d59" d="M302.45,-285.93C310.58,-286.91 319.77,-287.56 328.55,-287.82"/>
<polygon fill="#fc8d59" stroke="#fc8d59" points="328.542,-291.32 338.58,-287.93 328.619,-284.32 328.542,-291.32"/>
<text text-anchor="middle" x="328" y="-290.68" font-family="Times,serif" font-size="14.00">0.77</text>
</g>
<!-- s12&#45;&gt;s13 -->
<g id="edge43" class="edge"><title>s12&#45;&gt;s13</title>
<path fill="none" stroke="#fc8d59" d="M250.73,-275.16C242.3,-275.6 232.89,-276.54 224.05,-277.81"/>
<polygon fill="#fc8d59" stroke="#fc8d59" points="223.347,-274.378 214.04,-279.44 224.473,-281.287 223.347,-274.378"/>
<text text-anchor="middle" x="237.39" y="-265.28" font-family="Times,serif" font-size="14.00">0.77</text>
</g>
<!-- s17 -->
<g id="17" class="node"><title>s17</title>
<ellipse fill="none" stroke="black" cx="284.84" cy="-364.71" rx="27" ry="18"/>
<text text-anchor="middle" x="284.84" y="-361.01" font-family="Times,serif" font-size="14.00">s17</text>
</g>
<!-- s12&#45;&gt;s17 -->
<g id="edge44" class="edge"><title>s12&#45;&gt;s17</title>
<path fill="none" stroke="#cb181d" d="M273.55,-296.32C273.28,-308.09 274.31,-323.7 276.13,-337.04"/>
<polygon fill="#cb181d" stroke="#cb181d" points="272.709,-337.816 277.74,-347.14 279.622,-336.714 272.709,-337.816"/>
<text text-anchor="middle" x="262.34" y="-320.48" font-family="Times,serif" font-size="14.00">1.55</text>
</g>
<!-- s16&#45;&gt;s11 -->
<g id="edge60" class="edge"><title>s16&#45;&gt;s11</title>
<path fill="none" stroke="#cb181d" d="M376.17,-351.55C376.4,-339.77 375.31,-324.14 373.45,-310.78"/>
<polygon fill="#cb181d" stroke="#cb181d" points="376.866,-309.98 371.79,-300.68 369.958,-311.115 376.866,-309.98"/>
<text text-anchor="middle" x="387.31" y="-334.97" font-family="Times,serif" font-size="14.00">1.55</text>
</g>
<!-- s16&#45;&gt;s15 -->
<g id="edge61" class="edge"><title>s16&#45;&gt;s15</title>
<path fill="none" stroke="#cb181d" d="M398.73,-373.78C406.87,-373.66 415.96,-373.11 424.56,-372.22"/>
<polygon fill="#cb181d" stroke="#cb181d" points="425.204,-375.668 434.71,-370.99 424.362,-368.719 425.204,-375.668"/>
<text text-anchor="middle" x="411.64" y="-361.8" font-family="Times,serif" font-size="14.00">1.55</text>
</g>
<!-- s16&#45;&gt;s17 -->
<g id="edge62" class="edge"><title>s16&#45;&gt;s17</title>
<path fill="none" stroke="#fc8d59" d="M347.25,-361.95C339.1,-360.97 329.87,-360.31 321.06,-360.04"/>
<polygon fill="#fc8d59" stroke="#fc8d59" points="321.031,-356.54 310.99,-359.92 320.948,-363.539 321.031,-356.54"/>
<text text-anchor="middle" x="327.9" y="-349.8" font-family="Times,serif" font-size="14.00">0.77</text>
</g>
<!-- s21 -->
<g id="21" class="node"><title>s21</title>
<ellipse fill="none" stroke="black" cx="369.37" cy="-456.16" rx="27" ry="18"/>
<text text-anchor="middle" x="369.37" y="-452.46" font-family="Times,serif" font-size="14.00">s21</text>
</g>
<!-- s16&#45;&gt;s21 -->
<g id="edge63" class="edge"><title>s16&#45;&gt;s21</title>
<path fill="none" stroke="#fc8d59" d="M366,-387.29C364.39,-399.06 363.64,-414.75 363.92,-428.18"/>
<polygon fill="#fc8d59" stroke="#fc8d59" points="360.432,-428.522 364.39,-438.35 367.425,-428.199 360.432,-428.522"/>
<text text-anchor="middle" x="352.46" y="-411.54" font-family="Times,serif" font-size="14.00">0.77</text>
</g>
<!-- h1&#45;&gt;s4 -->
<g id="edge45" class="edge"><title>h1&#45;&gt;s4</title>
<path fill="none" stroke="#91cf60" d="M38.5,-92.096C44.177,-97.467 51.274,-103.37 58.363,-108.69"/>
<polygon fill="#91cf60" stroke="#91cf60" points="56.433,-111.613 66.598,-114.6 60.5144,-105.926 56.433,-111.613"/>
<text text-anchor="middle" x="35.932" y="-104.19" font-family="Times,serif" font-size="14.00">0.01</text>
</g>
<!-- s9&#45;&gt;s4 -->
<g id="edge46" class="edge"><title>s9&#45;&gt;s4</title>
<path fill="none" stroke="#cb181d" d="M101.34,-190.94C101.47,-179.66 100.36,-164.91 98.513,-152.17"/>
<polygon fill="#cb181d" stroke="#cb181d" points="101.923,-151.345 96.802,-142.07 95.0215,-152.514 101.923,-151.345"/>
<text text-anchor="middle" x="112.42" y="-175.36" font-family="Times,serif" font-size="14.00">1.55</text>
</g>
<!-- s9&#45;&gt;s8 -->
<g id="edge47" class="edge"><title>s9&#45;&gt;s8</title>
<path fill="none" stroke="#fc8d59" d="M123.52,-213.58C131.47,-213.57 140.34,-213.15 148.75,-212.39"/>
<polygon fill="#fc8d59" stroke="#fc8d59" points="149.122,-215.87 158.69,-211.32 148.373,-208.91 149.122,-215.87"/>
<text text-anchor="middle" x="142.38" y="-201.78" font-family="Times,serif" font-size="14.00">0.77</text>
</g>
<!-- s14 -->
<g id="14" class="node"><title>s14</title>
<ellipse fill="none" stroke="black" cx="104.03" cy="-293.68" rx="27" ry="18"/>
<text text-anchor="middle" x="104.03" y="-289.98" font-family="Times,serif" font-size="14.00">s14</text>
</g>
<!-- s9&#45;&gt;s14 -->
<g id="edge48" class="edge"><title>s9&#45;&gt;s14</title>
<path fill="none" stroke="#fc8d59" d="M93.207,-226.94C92.894,-238.32 93.791,-253.25 95.459,-266.11"/>
<polygon fill="#fc8d59" stroke="#fc8d59" points="92.0473,-266.951 97.032,-276.3 98.9653,-265.883 92.0473,-266.951"/>
<text text-anchor="middle" x="81.833" y="-250.33" font-family="Times,serif" font-size="14.00">0.77</text>
</g>
<!-- s13&#45;&gt;s8 -->
<g id="edge49" class="edge"><title>s13&#45;&gt;s8</title>
<path fill="none" stroke="#aaaaaa" d="M194.43,-270.26C194.66,-258.96 193.66,-244.15 191.92,-231.36"/>
<polygon fill="#aaaaaa" stroke="#aaaaaa" points="195.334,-230.543 190.3,-221.22 188.422,-231.647 195.334,-230.543"/>
<text text-anchor="middle" x="202.17" y="-254.61" font-family="Times,serif" font-size="14.00">0.0</text>
</g>
<!-- s13&#45;&gt;s12 -->
<g id="edge50" class="edge"><title>s13&#45;&gt;s12</title>
<path fill="none" stroke="#cb181d" d="M217.24,-291.52C225.67,-291.08 235.08,-290.14 243.92,-288.87"/>
<polygon fill="#cb181d" stroke="#cb181d" points="244.632,-292.3 253.94,-287.24 243.508,-285.391 244.632,-292.3"/>
<text text-anchor="middle" x="230.58" y="-279" font-family="Times,serif" font-size="14.00">1.55</text>
</g>
<!-- s13&#45;&gt;s14 -->
<g id="edge51" class="edge"><title>s13&#45;&gt;s14</title>
<path fill="none" stroke="#cb181d" d="M164.06,-283.67C156.05,-283.68 147.12,-284.11 138.65,-284.87"/>
<polygon fill="#cb181d" stroke="#cb181d" points="138.197,-281.398 128.63,-285.95 138.948,-288.358 138.197,-281.398"/>
<text text-anchor="middle" x="151.36" y="-273.07" font-family="Times,serif" font-size="14.00">1.55</text>
</g>
<!-- s18 -->
<g id="18" class="node"><title>s18</title>
<ellipse fill="none" stroke="black" cx="198.07" cy="-372.72" rx="27" ry="18"/>
<text text-anchor="middle" x="198.07" y="-369.02" font-family="Times,serif" font-size="14.00">s18</text>
</g>
<!-- s13&#45;&gt;s18 -->
<g id="edge52" class="edge"><title>s13&#45;&gt;s18</title>
<path fill="none" stroke="#fc8d59" d="M186.38,-306.29C186.22,-317.57 187.29,-332.33 189.1,-345.07"/>
<polygon fill="#fc8d59" stroke="#fc8d59" points="185.689,-345.894 190.79,-355.18 192.593,-344.74 185.689,-345.894"/>
<text text-anchor="middle" x="175.24" y="-329.48" font-family="Times,serif" font-size="14.00">0.77</text>
</g>
<!-- s17&#45;&gt;s12 -->
<g id="edge64" class="edge"><title>s17&#45;&gt;s12</title>
<path fill="none" stroke="#fc8d59" d="M288.91,-346.78C289.18,-335.01 288.15,-319.39 286.33,-306.05"/>
<polygon fill="#fc8d59" stroke="#fc8d59" points="289.752,-305.284 284.72,-295.96 282.84,-306.387 289.752,-305.284"/>
<text text-anchor="middle" x="300.12" y="-330.21" font-family="Times,serif" font-size="14.00">0.77</text>
</g>
<!-- s17&#45;&gt;s16 -->
<g id="edge65" class="edge"><title>s17&#45;&gt;s16</title>
<path fill="none" stroke="#cb181d" d="M309.76,-372.28C317.91,-373.26 327.14,-373.92 335.96,-374.19"/>
<polygon fill="#cb181d" stroke="#cb181d" points="335.979,-377.69 346.02,-374.31 336.062,-370.691 335.979,-377.69"/>
<text text-anchor="middle" x="335.36" y="-377.03" font-family="Times,serif" font-size="14.00">1.55</text>
</g>
<!-- s17&#45;&gt;s18 -->
<g id="edge66" class="edge"><title>s17&#45;&gt;s18</title>
<path fill="none" stroke="#aaaaaa" d="M258.23,-360.89C249.93,-361.15 240.66,-361.88 231.94,-362.94"/>
<polygon fill="#aaaaaa" stroke="#aaaaaa" points="231.442,-359.476 222.03,-364.34 232.421,-366.407 231.442,-359.476"/>
<text text-anchor="middle" x="236.08" y="-350.72" font-family="Times,serif" font-size="14.00">0.0</text>
</g>
<!-- s22 -->
<g id="22" class="node"><title>s22</title>
<ellipse fill="none" stroke="black" cx="284.39" cy="-449.89" rx="27" ry="18"/>
<text text-anchor="middle" x="284.39" y="-446.19" font-family="Times,serif" font-size="14.00">s22</text>
</g>
<!-- s17&#45;&gt;s22 -->
<g id="edge67" class="edge"><title>s17&#45;&gt;s22</title>
<path fill="none" stroke="#fc8d59" d="M279.16,-382.33C277.89,-393.74 277.54,-408.86 278.15,-421.9"/>
<polygon fill="#fc8d59" stroke="#fc8d59" points="274.684,-422.506 278.89,-432.23 281.666,-422.005 274.684,-422.506"/>
<text text-anchor="middle" x="266.16" y="-405.91" font-family="Times,serif" font-size="14.00">0.77</text>
</g>
<!-- s14&#45;&gt;s9 -->
<g id="edge53" class="edge"><title>s14&#45;&gt;s9</title>
<path fill="none" stroke="#cb181d" d="M108.23,-275.69C108.55,-264.31 107.65,-249.38 105.98,-236.53"/>
<polygon fill="#cb181d" stroke="#cb181d" points="109.392,-235.69 104.41,-226.34 102.474,-236.756 109.392,-235.69"/>
<text text-anchor="middle" x="119.61" y="-259.91" font-family="Times,serif" font-size="14.00">1.55</text>
</g>
<!-- s14&#45;&gt;s13 -->
<g id="edge54" class="edge"><title>s14&#45;&gt;s13</title>
<path fill="none" stroke="#fc8d59" d="M130.32,-298.3C138.33,-298.29 147.26,-297.87 155.73,-297.11"/>
<polygon fill="#fc8d59" stroke="#fc8d59" points="156.183,-300.582 165.75,-296.03 155.432,-293.622 156.183,-300.582"/>
<text text-anchor="middle" x="155.52" y="-301.5" font-family="Times,serif" font-size="14.00">0.77</text>
</g>
<!-- s19 -->
<g id="19" class="node"><title>s19</title>
<ellipse fill="none" stroke="black" cx="112.4" cy="-377.63" rx="27" ry="18"/>
<text text-anchor="middle" x="112.4" y="-373.93" font-family="Times,serif" font-size="14.00">s19</text>
</g>
<!-- s14&#45;&gt;s19 -->
<g id="edge55" class="edge"><title>s14&#45;&gt;s19</title>
<path fill="none" stroke="#aaaaaa" d="M100.2,-311.63C100.12,-322.86 101.31,-337.54 103.22,-350.2"/>
<polygon fill="#aaaaaa" stroke="#aaaaaa" points="99.8069,-351 104.99,-360.24 106.701,-349.784 99.8069,-351"/>
<text text-anchor="middle" x="92.711" y="-334.72" font-family="Times,serif" font-size="14.00">0.0</text>
</g>
<!-- s18&#45;&gt;s13 -->
<g id="edge68" class="edge"><title>s18&#45;&gt;s13</title>
<path fill="none" stroke="#fc8d59" d="M202.04,-354.72C202.2,-343.44 201.13,-328.68 199.32,-315.94"/>
<polygon fill="#fc8d59" stroke="#fc8d59" points="202.731,-315.116 197.63,-305.83 195.827,-316.27 202.731,-315.116"/>
<text text-anchor="middle" x="213.18" y="-339.13" font-family="Times,serif" font-size="14.00">0.77</text>
</g>
<!-- s18&#45;&gt;s17 -->
<g id="edge69" class="edge"><title>s18&#45;&gt;s17</title>
<path fill="none" stroke="#aaaaaa" d="M224.68,-376.54C232.98,-376.28 242.24,-375.55 250.97,-374.49"/>
<polygon fill="#aaaaaa" stroke="#aaaaaa" points="251.468,-377.954 260.88,-373.09 250.489,-371.023 251.468,-377.954"/>
<text text-anchor="middle" x="246.82" y="-379.31" font-family="Times,serif" font-size="14.00">0.0</text>
</g>
<!-- s18&#45;&gt;s19 -->
<g id="edge70" class="edge"><title>s18&#45;&gt;s19</title>
<path fill="none" stroke="#aaaaaa" d="M172.01,-367.96C164.22,-367.93 155.55,-368.29 147.29,-368.97"/>
<polygon fill="#aaaaaa" stroke="#aaaaaa" points="146.736,-365.508 137.14,-370 147.442,-372.472 146.736,-365.508"/>
<text text-anchor="middle" x="150.65" y="-357.26" font-family="Times,serif" font-size="14.00">0.0</text>
</g>
<!-- s23 -->
<g id="23" class="node"><title>s23</title>
<ellipse fill="none" stroke="black" cx="200.39" cy="-456.8" rx="27" ry="18"/>
<text text-anchor="middle" x="200.39" y="-453.1" font-family="Times,serif" font-size="14.00">s23</text>
</g>
<!-- s18&#45;&gt;s23 -->
<g id="edge71" class="edge"><title>s18&#45;&gt;s23</title>
<path fill="none" stroke="#fc8d59" d="M192.92,-390.71C192.07,-401.89 192.22,-416.49 193.22,-429.12"/>
<polygon fill="#fc8d59" stroke="#fc8d59" points="189.747,-429.564 194.26,-439.15 196.71,-428.842 189.747,-429.564"/>
<text text-anchor="middle" x="180.57" y="-413.72" font-family="Times,serif" font-size="14.00">0.77</text>
</g>
<!-- s19&#45;&gt;s14 -->
<g id="edge72" class="edge"><title>s19&#45;&gt;s14</title>
<path fill="none" stroke="#aaaaaa" d="M116.23,-359.68C116.31,-348.46 115.12,-333.78 113.21,-321.12"/>
<polygon fill="#aaaaaa" stroke="#aaaaaa" points="116.622,-320.311 111.44,-311.07 109.728,-321.526 116.622,-320.311"/>
<text text-anchor="middle" x="123.72" y="-344.2" font-family="Times,serif" font-size="14.00">0.0</text>
</g>
<!-- s19&#45;&gt;s18 -->
<g id="edge73" class="edge"><title>s19&#45;&gt;s18</title>
<path fill="none" stroke="#aaaaaa" d="M138.46,-382.4C146.25,-382.43 154.92,-382.07 163.18,-381.39"/>
<polygon fill="#aaaaaa" stroke="#aaaaaa" points="163.734,-384.852 173.33,-380.36 163.028,-377.888 163.734,-384.852"/>
<text text-anchor="middle" x="159.82" y="-385.69" font-family="Times,serif" font-size="14.00">0.0</text>
</g>
<!-- s24 -->
<g id="24" class="node"><title>s24</title>
<ellipse fill="none" stroke="black" cx="117.28" cy="-460.11" rx="27" ry="18"/>
<text text-anchor="middle" x="117.28" y="-456.41" font-family="Times,serif" font-size="14.00">s24</text>
</g>
<!-- s19&#45;&gt;s24 -->
<g id="edge74" class="edge"><title>s19&#45;&gt;s24</title>
<path fill="none" stroke="#aaaaaa" d="M107.81,-395.46C107.31,-406.2 107.86,-420.12 109.18,-432.29"/>
<polygon fill="#aaaaaa" stroke="#aaaaaa" points="105.738,-432.961 110.53,-442.41 112.677,-432.035 105.738,-432.961"/>
<text text-anchor="middle" x="99.496" y="-417.67" font-family="Times,serif" font-size="14.00">0.0</text>
</g>
<!-- h3&#45;&gt;s15 -->
<g id="edge75" class="edge"><title>h3&#45;&gt;s15</title>
<path fill="none" stroke="#91cf60" d="M518.03,-367.57C511.28,-365.84 503.69,-364.25 496.25,-363.01"/>
<polygon fill="#91cf60" stroke="#91cf60" points="496.704,-359.539 486.3,-361.54 495.681,-366.464 496.704,-359.539"/>
<text text-anchor="middle" x="507.14" y="-354.09" font-family="Times,serif" font-size="14.00">0.02</text>
</g>
<!-- s20&#45;&gt;s15 -->
<g id="edge76" class="edge"><title>s20&#45;&gt;s15</title>
<path fill="none" stroke="#fc8d59" d="M459.87,-428.9C461.81,-417.98 463.12,-403.74 463.42,-391.28"/>
<polygon fill="#fc8d59" stroke="#fc8d59" points="466.92,-390.927 463.41,-380.93 459.92,-390.933 466.92,-390.927"/>
<text text-anchor="middle" x="474.14" y="-413.89" font-family="Times,serif" font-size="14.00">0.77</text>
</g>
<!-- s20&#45;&gt;s21 -->
<g id="edge77" class="edge"><title>s20&#45;&gt;s21</title>
<path fill="none" stroke="#cb181d" d="M426.17,-443.33C418.74,-443.74 410.56,-444.55 402.79,-445.65"/>
<polygon fill="#cb181d" stroke="#cb181d" points="402.218,-442.197 392.9,-447.24 403.329,-449.108 402.218,-442.197"/>
<text text-anchor="middle" x="408.23" y="-433.29" font-family="Times,serif" font-size="14.00">1.55</text>
</g>
<!-- s21&#45;&gt;s16 -->
<g id="edge78" class="edge"><title>s21&#45;&gt;s16</title>
<path fill="none" stroke="#cb181d" d="M375.54,-438.39C377.15,-426.62 377.91,-410.93 377.62,-397.5"/>
<polygon fill="#cb181d" stroke="#cb181d" points="381.108,-397.162 377.16,-387.33 374.116,-397.478 381.108,-397.162"/>
<text text-anchor="middle" x="389.08" y="-406.74" font-family="Times,serif" font-size="14.00">1.55</text>
</g>
<!-- s21&#45;&gt;s20 -->
<g id="edge79" class="edge"><title>s21&#45;&gt;s20</title>
<path fill="none" stroke="#fc8d59" d="M396.04,-459.46C403.48,-459.05 411.65,-458.23 419.42,-457.14"/>
<polygon fill="#fc8d59" stroke="#fc8d59" points="419.992,-460.593 429.31,-455.55 418.881,-453.682 419.992,-460.593"/>
<text text-anchor="middle" x="413.98" y="-447.1" font-family="Times,serif" font-size="14.00">0.77</text>
</g>
<!-- s21&#45;&gt;s22 -->
<g id="edge80" class="edge"><title>s21&#45;&gt;s22</title>
<path fill="none" stroke="#fc8d59" d="M344.79,-448.11C337.25,-447.07 328.8,-446.29 320.65,-445.87"/>
<polygon fill="#fc8d59" stroke="#fc8d59" points="320.696,-442.37 310.59,-445.55 320.474,-449.366 320.696,-442.37"/>
<text text-anchor="middle" x="326.47" y="-435.79" font-family="Times,serif" font-size="14.00">0.77</text>
</g>
<!-- h4 -->
<g id="node30" class="node"><title>h4</title>
<ellipse fill="none" stroke="black" cx="388.2" cy="-536.39" rx="27" ry="18"/>
<text text-anchor="middle" x="388.2" y="-532.69" font-family="Times,serif" font-size="14.00">h4</text>
</g>
<!-- s21&#45;&gt;h4 -->
<g id="edge81" class="edge"><title>s21&#45;&gt;h4</title>
<path fill="none" stroke="#91cf60" d="M367.88,-474.46C369.19,-484.96 372.04,-498.32 375.35,-509.95"/>
<polygon fill="#91cf60" stroke="#91cf60" points="372.039,-511.09 378.35,-519.6 378.723,-509.012 372.039,-511.09"/>
<text text-anchor="middle" x="359.11" y="-496" font-family="Times,serif" font-size="14.00">0.02</text>
</g>
<!-- s22&#45;&gt;s17 -->
<g id="edge82" class="edge"><title>s22&#45;&gt;s17</title>
<path fill="none" stroke="#fc8d59" d="M290.08,-432.27C291.34,-420.86 291.69,-405.74 291.08,-392.7"/>
<polygon fill="#fc8d59" stroke="#fc8d59" points="294.545,-392.085 290.34,-382.36 287.563,-392.584 294.545,-392.085"/>
<text text-anchor="middle" x="303.08" y="-416.29" font-family="Times,serif" font-size="14.00">0.77</text>
</g>
<!-- s22&#45;&gt;s21 -->
<g id="edge83" class="edge"><title>s22&#45;&gt;s21</title>
<path fill="none" stroke="#fc8d59" d="M308.97,-457.94C316.51,-458.98 324.97,-459.76 333.11,-460.18"/>
<polygon fill="#fc8d59" stroke="#fc8d59" points="333.064,-463.68 343.17,-460.5 333.286,-456.684 333.064,-463.68"/>
<text text-anchor="middle" x="327.29" y="-447.86" font-family="Times,serif" font-size="14.00">0.77</text>
</g>
<!-- s22&#45;&gt;s23 -->
<g id="edge84" class="edge"><title>s22&#45;&gt;s23</title>
<path fill="none" stroke="#fc8d59" d="M257.75,-445.76C250.43,-445.93 242.39,-446.47 234.71,-447.3"/>
<polygon fill="#fc8d59" stroke="#fc8d59" points="234.034,-443.857 224.55,-448.58 234.909,-450.803 234.034,-443.857"/>
<text text-anchor="middle" x="239.98" y="-435.33" font-family="Times,serif" font-size="14.00">0.77</text>
</g>
<!-- s23&#45;&gt;s18 -->
<g id="edge85" class="edge"><title>s23&#45;&gt;s18</title>
<path fill="none" stroke="#fc8d59" d="M205.53,-438.82C206.38,-427.64 206.23,-413.04 205.23,-400.41"/>
<polygon fill="#fc8d59" stroke="#fc8d59" points="208.702,-399.956 204.19,-390.37 201.739,-400.677 208.702,-399.956"/>
<text text-anchor="middle" x="217.88" y="-408.41" font-family="Times,serif" font-size="14.00">0.77</text>
</g>
<!-- s23&#45;&gt;s22 -->
<g id="edge86" class="edge"><title>s23&#45;&gt;s22</title>
<path fill="none" stroke="#fc8d59" d="M227.02,-460.94C234.34,-460.77 242.38,-460.22 250.07,-459.4"/>
<polygon fill="#fc8d59" stroke="#fc8d59" points="250.751,-462.842 260.23,-458.11 249.869,-455.898 250.751,-462.842"/>
<text text-anchor="middle" x="244.8" y="-448.97" font-family="Times,serif" font-size="14.00">0.77</text>
</g>
<!-- s23&#45;&gt;s24 -->
<g id="edge87" class="edge"><title>s23&#45;&gt;s24</title>
<path fill="none" stroke="#aaaaaa" d="M174.3,-451.53C167.35,-451.4 159.73,-451.57 152.39,-452.02"/>
<polygon fill="#aaaaaa" stroke="#aaaaaa" points="151.974,-448.542 142.29,-452.84 152.54,-455.519 151.974,-448.542"/>
<text text-anchor="middle" x="154.34" y="-440.58" font-family="Times,serif" font-size="14.00">0.0</text>
</g>
<!-- s24&#45;&gt;s19 -->
<g id="edge88" class="edge"><title>s24&#45;&gt;s19</title>
<path fill="none" stroke="#aaaaaa" d="M121.87,-442.28C122.37,-431.54 121.82,-417.62 120.5,-405.45"/>
<polygon fill="#aaaaaa" stroke="#aaaaaa" points="123.942,-404.779 119.15,-395.33 117.003,-405.705 123.942,-404.779"/>
<text text-anchor="middle" x="130.19" y="-427.67" font-family="Times,serif" font-size="14.00">0.0</text>
</g>
<!-- s24&#45;&gt;s23 -->
<g id="edge89" class="edge"><title>s24&#45;&gt;s23</title>
<path fill="none" stroke="#aaaaaa" d="M143.37,-465.38C150.32,-465.51 157.94,-465.34 165.28,-464.89"/>
<polygon fill="#aaaaaa" stroke="#aaaaaa" points="165.696,-468.368 175.38,-464.07 165.13,-461.391 165.696,-468.368"/>
<text text-anchor="middle" x="163.33" y="-468.93" font-family="Times,serif" font-size="14.00">0.0</text>
</g>
<!-- h4&#45;&gt;s21 -->
<g id="edge90" class="edge"><title>h4&#45;&gt;s21</title>
<path fill="none" stroke="#91cf60" d="M389.69,-518.09C388.38,-507.59 385.53,-494.23 382.22,-482.6"/>
<polygon fill="#91cf60" stroke="#91cf60" points="385.531,-481.46 379.22,-472.95 378.847,-483.538 385.531,-481.46"/>
<text text-anchor="middle" x="398.45" y="-504.15" font-family="Times,serif" font-size="14.00">0.02</text>
</g>
</g>
</svg>
