<?xml version="1.0" encoding="UTF-8" standalone="no"?>
<!DOCTYPE svg PUBLIC "-//W3C//DTD SVG 1.1//EN"
 "http://www.w3.org/Graphics/SVG/1.1/DTD/svg11.dtd">
<!-- Generated by graphviz version 2.36.0 (20140111.2315)
 -->
<!-- Title: cycle10 Pages: 1 -->
<svg width="509pt" height="478pt"
 viewBox="0.00 0.00 508.77 477.86" xmlns="http://www.w3.org/2000/svg" xmlns:xlink="http://www.w3.org/1999/xlink">
<g id="graph0" class="graph" transform="scale(1 1) rotate(0) translate(4 473.86)">
<title>cycle10</title>
<polygon fill="white" stroke="none" points="-4,4 -4,-473.86 504.77,-473.86 504.77,4 -4,4"/>
<!-- h0 -->
<g id="node1" class="node"><title>h0</title>
<ellipse fill="none" stroke="black" cx="27" cy="-249.54" rx="27" ry="18"/>
<text text-anchor="middle" x="27" y="-245.84" font-family="Times,serif" font-size="14.00">h0</text>
</g>
<!-- s0 -->
<g id="0" class="node"><title>s0</title>
<ellipse fill="none" stroke="black" cx="110.09" cy="-244.46" rx="27" ry="18"/>
<text text-anchor="middle" x="110.09" y="-240.76" font-family="Times,serif" font-size="14.00">s0</text>
</g>
<!-- h0&#45;&gt;s0 -->
<g id="edge1" class="edge"><title>h0&#45;&gt;s0</title>
<path fill="none" stroke="#91cf60" d="M53.22,-254.25C60.239,-254.24 67.937,-253.9 75.34,-253.27"/>
<polygon fill="#91cf60" stroke="#91cf60" points="75.9185,-256.729 85.506,-252.22 75.1993,-249.766 75.9185,-256.729"/>
<text text-anchor="middle" x="73.28" y="-257.56" font-family="Times,serif" font-size="14.00">0.0</text>
</g>
<!-- s0&#45;&gt;h0 -->
<g id="edge2" class="edge"><title>s0&#45;&gt;h0</title>
<path fill="none" stroke="#91cf60" d="M83.869,-239.75C76.85,-239.76 69.152,-240.1 61.749,-240.73"/>
<polygon fill="#91cf60" stroke="#91cf60" points="61.1705,-237.271 51.583,-241.78 61.8897,-244.234 61.1705,-237.271"/>
<text text-anchor="middle" x="63.809" y="-229.04" font-family="Times,serif" font-size="14.00">0.0</text>
</g>
<!-- s1 -->
<g id="1" class="node"><title>s1</title>
<ellipse fill="none" stroke="black" cx="131.71" cy="-160.46" rx="27" ry="18"/>
<text text-anchor="middle" x="131.71" y="-156.76" font-family="Times,serif" font-size="14.00">s1</text>
</g>
<!-- s0&#45;&gt;s1 -->
<g id="edge3" class="edge"><title>s0&#45;&gt;s1</title>
<path fill="none" stroke="#cb181d" d="M120.28,-227.65C124.37,-216.44 128.45,-201.45 131.03,-188.47"/>
<polygon fill="#cb181d" stroke="#cb181d" points="134.481,-189.051 132.74,-178.6 127.584,-187.856 134.481,-189.051"/>
<text text-anchor="middle" x="113.15" y="-211.86" font-family="Times,serif" font-size="14.00">1.09</text>
</g>
<!-- s9 -->
<g id="9" class="node"><title>s9</title>
<ellipse fill="none" stroke="black" cx="142.53" cy="-324.97" rx="27" ry="18"/>
<text text-anchor="middle" x="142.53" y="-321.27" font-family="Times,serif" font-size="14.00">s9</text>
</g>
<!-- s0&#45;&gt;s9 -->
<g id="edge4" class="edge"><title>s0&#45;&gt;s9</title>
<path fill="none" stroke="#cb181d" d="M111.51,-262.82C114.63,-273.79 119.97,-287.84 125.45,-299.82"/>
<polygon fill="#cb181d" stroke="#cb181d" points="122.33,-301.407 129.84,-308.88 128.629,-298.355 122.33,-301.407"/>
<text text-anchor="middle" x="105.98" y="-285.12" font-family="Times,serif" font-size="14.00">1.09</text>
</g>
<!-- s1&#45;&gt;s0 -->
<g id="edge5" class="edge"><title>s1&#45;&gt;s0</title>
<path fill="none" stroke="#cb181d" d="M121.52,-177.27C117.43,-188.48 113.35,-203.47 110.77,-216.45"/>
<polygon fill="#cb181d" stroke="#cb181d" points="107.319,-215.869 109.06,-226.32 114.216,-217.064 107.319,-215.869"/>
<text text-anchor="middle" x="103.65" y="-185.66" font-family="Times,serif" font-size="14.00">1.09</text>
</g>
<!-- h1 -->
<g id="node5" class="node"><title>h1</title>
<ellipse fill="none" stroke="black" cx="61.717" cy="-115.22" rx="27" ry="18"/>
<text text-anchor="middle" x="61.717" y="-111.52" font-family="Times,serif" font-size="14.00">h1</text>
</g>
<!-- s1&#45;&gt;h1 -->
<g id="edge6" class="edge"><title>s1&#45;&gt;h1</title>
<path fill="none" stroke="#91cf60" d="M118.29,-144.83C111.46,-139.48 102.87,-133.6 94.454,-128.45"/>
<polygon fill="#91cf60" stroke="#91cf60" points="96.2217,-125.429 85.825,-123.39 92.6808,-131.468 96.2217,-125.429"/>
<text text-anchor="middle" x="97.374" y="-125.44" font-family="Times,serif" font-size="14.00">0.0</text>
</g>
<!-- s2 -->
<g id="2" class="node"><title>s2</title>
<ellipse fill="none" stroke="black" cx="198.42" cy="-104.92" rx="27" ry="18"/>
<text text-anchor="middle" x="198.42" y="-101.22" font-family="Times,serif" font-size="14.00">s2</text>
</g>
<!-- s1&#45;&gt;s2 -->
<g id="edge7" class="edge"><title>s1&#45;&gt;s2</title>
<path fill="none" stroke="#cb181d" d="M153.84,-149.96C162.39,-143.82 172.02,-135.94 180.17,-128.45"/>
<polygon fill="#cb181d" stroke="#cb181d" points="182.654,-130.917 187.45,-121.47 177.809,-125.864 182.654,-130.917"/>
<text text-anchor="middle" x="179.51" y="-143.01" font-family="Times,serif" font-size="14.00">1.09</text>
</g>
<!-- s9&#45;&gt;s0 -->
<g id="edge8" class="edge"><title>s9&#45;&gt;s0</title>
<path fill="none" stroke="#cb181d" d="M141.11,-306.6C137.99,-295.63 132.65,-281.58 127.17,-269.6"/>
<polygon fill="#cb181d" stroke="#cb181d" points="130.29,-268.013 122.78,-260.54 123.991,-271.065 130.29,-268.013"/>
<text text-anchor="middle" x="146.64" y="-291.9" font-family="Times,serif" font-size="14.00">1.09</text>
</g>
<!-- s8 -->
<g id="8" class="node"><title>s8</title>
<ellipse fill="none" stroke="black" cx="216.09" cy="-371.03" rx="27" ry="18"/>
<text text-anchor="middle" x="216.09" y="-367.33" font-family="Times,serif" font-size="14.00">s8</text>
</g>
<!-- s9&#45;&gt;s8 -->
<g id="edge9" class="edge"><title>s9&#45;&gt;s8</title>
<path fill="none" stroke="#cb181d" d="M156.51,-340.57C164.03,-346.28 173.62,-352.61 182.9,-358.08"/>
<polygon fill="#cb181d" stroke="#cb181d" points="181.201,-361.14 191.63,-363.01 184.644,-355.045 181.201,-361.14"/>
<text text-anchor="middle" x="157.21" y="-353.12" font-family="Times,serif" font-size="14.00">1.09</text>
</g>
<!-- h9 -->
<g id="node8" class="node"><title>h9</title>
<ellipse fill="none" stroke="black" cx="78.647" cy="-378.41" rx="27" ry="18"/>
<text text-anchor="middle" x="78.647" y="-374.71" font-family="Times,serif" font-size="14.00">h9</text>
</g>
<!-- s9&#45;&gt;h9 -->
<g id="edge10" class="edge"><title>s9&#45;&gt;h9</title>
<path fill="none" stroke="#91cf60" d="M120.45,-335.42C112.76,-340.98 104.25,-347.96 96.903,-354.69"/>
<polygon fill="#91cf60" stroke="#91cf60" points="94.2604,-352.375 89.479,-361.83 99.1128,-357.421 94.2604,-352.375"/>
<text text-anchor="middle" x="99.674" y="-348.86" font-family="Times,serif" font-size="14.00">0.0</text>
</g>
<!-- h1&#45;&gt;s1 -->
<g id="edge11" class="edge"><title>h1&#45;&gt;s1</title>
<path fill="none" stroke="#91cf60" d="M75.134,-130.85C81.965,-136.21 90.555,-142.08 98.973,-147.24"/>
<polygon fill="#91cf60" stroke="#91cf60" points="97.2017,-150.259 107.6,-152.29 100.738,-144.218 97.2017,-150.259"/>
<text text-anchor="middle" x="78.054" y="-142.84" font-family="Times,serif" font-size="14.00">0.0</text>
</g>
<!-- s2&#45;&gt;s1 -->
<g id="edge12" class="edge"><title>s2&#45;&gt;s1</title>
<path fill="none" stroke="#cb181d" d="M176.3,-115.41C167.74,-121.55 158.11,-129.43 149.96,-136.92"/>
<polygon fill="#cb181d" stroke="#cb181d" points="147.473,-134.456 142.69,-143.91 152.324,-139.502 147.473,-134.456"/>
<text text-anchor="middle" x="150.63" y="-129.97" font-family="Times,serif" font-size="14.00">1.09</text>
</g>
<!-- h2 -->
<g id="node9" class="node"><title>h2</title>
<ellipse fill="none" stroke="black" cx="167.42" cy="-27.547" rx="27" ry="18"/>
<text text-anchor="middle" x="167.42" y="-23.847" font-family="Times,serif" font-size="14.00">h2</text>
</g>
<!-- s2&#45;&gt;h2 -->
<g id="edge13" class="edge"><title>s2&#45;&gt;h2</title>
<path fill="none" stroke="#91cf60" d="M197.19,-86.805C194.34,-76.662 189.55,-63.88 184.53,-52.776"/>
<polygon fill="#91cf60" stroke="#91cf60" points="187.59,-51.0631 180.11,-43.56 181.279,-54.0902 187.59,-51.0631"/>
<text text-anchor="middle" x="181.86" y="-73.59" font-family="Times,serif" font-size="14.00">0.0</text>
</g>
<!-- s3 -->
<g id="3" class="node"><title>s3</title>
<ellipse fill="none" stroke="black" cx="284.94" cy="-98.816" rx="27" ry="18"/>
<text text-anchor="middle" x="284.94" y="-95.116" font-family="Times,serif" font-size="14.00">s3</text>
</g>
<!-- s2&#45;&gt;s3 -->
<g id="edge14" class="edge"><title>s2&#45;&gt;s3</title>
<path fill="none" stroke="#cb181d" d="M224.82,-109.32C232.92,-109.24 241.96,-108.73 250.52,-107.9"/>
<polygon fill="#cb181d" stroke="#cb181d" points="251.098,-111.356 260.62,-106.71 250.279,-104.404 251.098,-111.356"/>
<text text-anchor="middle" x="243.92" y="-97.41" font-family="Times,serif" font-size="14.00">1.09</text>
</g>
<!-- s8&#45;&gt;s9 -->
<g id="edge15" class="edge"><title>s8&#45;&gt;s9</title>
<path fill="none" stroke="#cb181d" d="M202.1,-355.43C194.58,-349.71 185,-343.38 175.71,-337.92"/>
<polygon fill="#cb181d" stroke="#cb181d" points="177.418,-334.865 166.99,-332.99 173.973,-340.958 177.418,-334.865"/>
<text text-anchor="middle" x="201.41" y="-335.47" font-family="Times,serif" font-size="14.00">1.09</text>
</g>
<!-- s7 -->
<g id="7" class="node"><title>s7</title>
<ellipse fill="none" stroke="black" cx="302.68" cy="-365.15" rx="27" ry="18"/>
<text text-anchor="middle" x="302.68" y="-361.45" font-family="Times,serif" font-size="14.00">s7</text>
</g>
<!-- s8&#45;&gt;s7 -->
<g id="edge16" class="edge"><title>s8&#45;&gt;s7</title>
<path fill="none" stroke="#cb181d" d="M242.49,-375.5C250.6,-375.45 259.64,-374.96 268.21,-374.14"/>
<polygon fill="#cb181d" stroke="#cb181d" points="268.78,-377.598 278.32,-372.99 267.988,-370.643 268.78,-377.598"/>
<text text-anchor="middle" x="267.85" y="-378.62" font-family="Times,serif" font-size="14.00">1.09</text>
</g>
<!-- h8 -->
<g id="node12" class="node"><title>h8</title>
<ellipse fill="none" stroke="black" cx="195.95" cy="-451.86" rx="27" ry="18"/>
<text text-anchor="middle" x="195.95" y="-448.16" font-family="Times,serif" font-size="14.00">h8</text>
</g>
<!-- s8&#45;&gt;h8 -->
<g id="edge17" class="edge"><title>s8&#45;&gt;h8</title>
<path fill="none" stroke="#91cf60" d="M205.93,-387.98C202.26,-398.32 198.69,-411.78 196.39,-423.68"/>
<polygon fill="#91cf60" stroke="#91cf60" points="192.925,-423.178 194.72,-433.62 199.829,-424.338 192.925,-423.178"/>
<text text-anchor="middle" x="192.16" y="-409.63" font-family="Times,serif" font-size="14.00">0.0</text>
</g>
<!-- h9&#45;&gt;s9 -->
<g id="edge18" class="edge"><title>h9&#45;&gt;s9</title>
<path fill="none" stroke="#91cf60" d="M100.73,-367.96C108.42,-362.4 116.93,-355.42 124.27,-348.68"/>
<polygon fill="#91cf60" stroke="#91cf60" points="126.915,-350.993 131.7,-341.54 122.064,-345.945 126.915,-350.993"/>
<text text-anchor="middle" x="121.5" y="-362.12" font-family="Times,serif" font-size="14.00">0.0</text>
</g>
<!-- h2&#45;&gt;s2 -->
<g id="edge19" class="edge"><title>h2&#45;&gt;s2</title>
<path fill="none" stroke="#91cf60" d="M168.65,-45.658C171.5,-55.8 176.3,-68.582 181.31,-79.686"/>
<polygon fill="#91cf60" stroke="#91cf60" points="178.25,-81.3989 185.73,-88.902 184.561,-78.3718 178.25,-81.3989"/>
<text text-anchor="middle" x="165.98" y="-51.472" font-family="Times,serif" font-size="14.00">0.0</text>
</g>
<!-- s3&#45;&gt;s2 -->
<g id="edge20" class="edge"><title>s3&#45;&gt;s2</title>
<path fill="none" stroke="#cb181d" d="M258.54,-94.416C250.44,-94.49 241.4,-94.997 232.85,-95.836"/>
<polygon fill="#cb181d" stroke="#cb181d" points="232.266,-92.3804 222.74,-97.018 233.079,-99.333 232.266,-92.3804"/>
<text text-anchor="middle" x="239.44" y="-83.926" font-family="Times,serif" font-size="14.00">1.09</text>
</g>
<!-- h3 -->
<g id="node13" class="node"><title>h3</title>
<ellipse fill="none" stroke="black" cx="305.11" cy="-18" rx="27" ry="18"/>
<text text-anchor="middle" x="305.11" y="-14.3" font-family="Times,serif" font-size="14.00">h3</text>
</g>
<!-- s3&#45;&gt;h3 -->
<g id="edge21" class="edge"><title>s3&#45;&gt;h3</title>
<path fill="none" stroke="#91cf60" d="M295.11,-81.872C298.78,-71.539 302.35,-58.083 304.66,-46.184"/>
<polygon fill="#91cf60" stroke="#91cf60" points="308.124,-46.6895 306.34,-36.246 301.222,-45.5227 308.124,-46.6895"/>
<text text-anchor="middle" x="290.88" y="-67.828" font-family="Times,serif" font-size="14.00">0.0</text>
</g>
<!-- s4 -->
<g id="4" class="node"><title>s4</title>
<ellipse fill="none" stroke="black" cx="358.43" cy="-144.93" rx="27" ry="18"/>
<text text-anchor="middle" x="358.43" y="-141.23" font-family="Times,serif" font-size="14.00">s4</text>
</g>
<!-- s3&#45;&gt;s4 -->
<g id="edge22" class="edge"><title>s3&#45;&gt;s4</title>
<path fill="none" stroke="#cb181d" d="M298.9,-114.42C306.42,-120.15 315.99,-126.48 325.27,-131.96"/>
<polygon fill="#cb181d" stroke="#cb181d" points="323.562,-135.015 333.99,-136.89 327.007,-128.922 323.562,-135.015"/>
<text text-anchor="middle" x="299.58" y="-126.99" font-family="Times,serif" font-size="14.00">1.09</text>
</g>
<!-- s7&#45;&gt;s8 -->
<g id="edge36" class="edge"><title>s7&#45;&gt;s8</title>
<path fill="none" stroke="#cb181d" d="M276.27,-360.69C268.17,-360.74 259.12,-361.22 250.55,-362.04"/>
<polygon fill="#cb181d" stroke="#cb181d" points="249.976,-358.583 240.44,-363.2 250.774,-365.537 249.976,-358.583"/>
<text text-anchor="middle" x="263.41" y="-350.16" font-family="Times,serif" font-size="14.00">1.09</text>
</g>
<!-- s6 -->
<g id="6" class="node"><title>s6</title>
<ellipse fill="none" stroke="black" cx="369.33" cy="-309.58" rx="27" ry="18"/>
<text text-anchor="middle" x="369.33" y="-305.88" font-family="Times,serif" font-size="14.00">s6</text>
</g>
<!-- s7&#45;&gt;s6 -->
<g id="edge37" class="edge"><title>s7&#45;&gt;s6</title>
<path fill="none" stroke="#cb181d" d="M324.79,-354.65C333.25,-348.57 342.77,-340.78 350.85,-333.36"/>
<polygon fill="#cb181d" stroke="#cb181d" points="353.58,-335.59 358.37,-326.14 348.732,-330.541 353.58,-335.59"/>
<text text-anchor="middle" x="350.32" y="-347.8" font-family="Times,serif" font-size="14.00">1.09</text>
</g>
<!-- h7 -->
<g id="node20" class="node"><title>h7</title>
<ellipse fill="none" stroke="black" cx="333.85" cy="-442.41" rx="27" ry="18"/>
<text text-anchor="middle" x="333.85" y="-438.71" font-family="Times,serif" font-size="14.00">h7</text>
</g>
<!-- s7&#45;&gt;h7 -->
<g id="edge38" class="edge"><title>s7&#45;&gt;h7</title>
<path fill="none" stroke="#91cf60" d="M303.95,-383.25C306.82,-393.38 311.64,-406.15 316.68,-417.23"/>
<polygon fill="#91cf60" stroke="#91cf60" points="313.621,-418.945 321.12,-426.43 319.926,-415.903 313.621,-418.945"/>
<text text-anchor="middle" x="301.31" y="-404.04" font-family="Times,serif" font-size="14.00">0.0</text>
</g>
<!-- h8&#45;&gt;s8 -->
<g id="edge40" class="edge"><title>h8&#45;&gt;s8</title>
<path fill="none" stroke="#91cf60" d="M206.11,-434.91C209.77,-424.58 213.34,-411.12 215.65,-399.22"/>
<polygon fill="#91cf60" stroke="#91cf60" points="219.115,-399.722 217.32,-389.28 212.211,-398.562 219.115,-399.722"/>
<text text-anchor="middle" x="219.88" y="-420.87" font-family="Times,serif" font-size="14.00">0.0</text>
</g>
<!-- h3&#45;&gt;s3 -->
<g id="edge23" class="edge"><title>h3&#45;&gt;s3</title>
<path fill="none" stroke="#91cf60" d="M294.94,-34.944C291.27,-45.277 287.7,-58.733 285.39,-70.632"/>
<polygon fill="#91cf60" stroke="#91cf60" points="281.926,-70.1265 283.71,-80.57 288.828,-71.2933 281.926,-70.1265"/>
<text text-anchor="middle" x="281.17" y="-41.588" font-family="Times,serif" font-size="14.00">0.0</text>
</g>
<!-- s4&#45;&gt;s3 -->
<g id="edge24" class="edge"><title>s4&#45;&gt;s3</title>
<path fill="none" stroke="#cb181d" d="M344.47,-129.32C336.95,-123.6 327.38,-117.26 318.1,-111.79"/>
<polygon fill="#cb181d" stroke="#cb181d" points="319.808,-108.735 309.38,-106.86 316.363,-114.828 319.808,-108.735"/>
<text text-anchor="middle" x="343.79" y="-109.36" font-family="Times,serif" font-size="14.00">1.09</text>
</g>
<!-- h4 -->
<g id="node15" class="node"><title>h4</title>
<ellipse fill="none" stroke="black" cx="422.3" cy="-91.466" rx="27" ry="18"/>
<text text-anchor="middle" x="422.3" y="-87.766" font-family="Times,serif" font-size="14.00">h4</text>
</g>
<!-- s4&#45;&gt;h4 -->
<g id="edge25" class="edge"><title>s4&#45;&gt;h4</title>
<path fill="none" stroke="#91cf60" d="M380.51,-134.47C388.2,-128.91 396.71,-121.93 404.05,-115.19"/>
<polygon fill="#91cf60" stroke="#91cf60" points="406.695,-117.503 411.48,-108.05 401.844,-112.455 406.695,-117.503"/>
<text text-anchor="middle" x="401.28" y="-128.63" font-family="Times,serif" font-size="14.00">0.0</text>
</g>
<!-- s5 -->
<g id="5" class="node"><title>s5</title>
<ellipse fill="none" stroke="black" cx="390.66" cy="-225.48" rx="27" ry="18"/>
<text text-anchor="middle" x="390.66" y="-221.78" font-family="Times,serif" font-size="14.00">s5</text>
</g>
<!-- s4&#45;&gt;s5 -->
<g id="edge26" class="edge"><title>s4&#45;&gt;s5</title>
<path fill="none" stroke="#cb181d" d="M359.8,-163.29C362.89,-174.26 368.2,-188.32 373.65,-200.31"/>
<polygon fill="#cb181d" stroke="#cb181d" points="370.523,-201.884 378.02,-209.37 376.828,-198.842 370.523,-201.884"/>
<text text-anchor="middle" x="354.23" y="-185.6" font-family="Times,serif" font-size="14.00">1.09</text>
</g>
<!-- h4&#45;&gt;s4 -->
<g id="edge27" class="edge"><title>h4&#45;&gt;s4</title>
<path fill="none" stroke="#91cf60" d="M400.22,-101.92C392.53,-107.49 384.03,-114.47 376.68,-121.21"/>
<polygon fill="#91cf60" stroke="#91cf60" points="374.039,-118.894 369.26,-128.35 378.893,-123.938 374.039,-118.894"/>
<text text-anchor="middle" x="379.45" y="-115.37" font-family="Times,serif" font-size="14.00">0.0</text>
</g>
<!-- s5&#45;&gt;s4 -->
<g id="edge28" class="edge"><title>s5&#45;&gt;s4</title>
<path fill="none" stroke="#cb181d" d="M389.29,-207.12C386.2,-196.15 380.9,-182.09 375.44,-170.1"/>
<polygon fill="#cb181d" stroke="#cb181d" points="378.564,-168.52 371.07,-161.03 372.257,-171.558 378.564,-168.52"/>
<text text-anchor="middle" x="394.87" y="-192.41" font-family="Times,serif" font-size="14.00">1.09</text>
</g>
<!-- h5 -->
<g id="node17" class="node"><title>h5</title>
<ellipse fill="none" stroke="black" cx="473.77" cy="-219.84" rx="27" ry="18"/>
<text text-anchor="middle" x="473.77" y="-216.14" font-family="Times,serif" font-size="14.00">h5</text>
</g>
<!-- s5&#45;&gt;h5 -->
<g id="edge29" class="edge"><title>s5&#45;&gt;h5</title>
<path fill="none" stroke="#91cf60" d="M416.93,-230.01C423.95,-229.96 431.65,-229.56 439.06,-228.89"/>
<polygon fill="#91cf60" stroke="#91cf60" points="439.664,-232.345 449.22,-227.77 438.897,-225.387 439.664,-232.345"/>
<text text-anchor="middle" x="436.99" y="-233.25" font-family="Times,serif" font-size="14.00">0.0</text>
</g>
<!-- s5&#45;&gt;s6 -->
<g id="edge30" class="edge"><title>s5&#45;&gt;s6</title>
<path fill="none" stroke="#cb181d" d="M380.53,-242.33C376.48,-253.56 372.45,-268.57 369.92,-281.56"/>
<polygon fill="#cb181d" stroke="#cb181d" points="366.466,-280.995 368.24,-291.44 373.367,-282.168 366.466,-280.995"/>
<text text-anchor="middle" x="362.72" y="-265.75" font-family="Times,serif" font-size="14.00">1.09</text>
</g>
<!-- h5&#45;&gt;s5 -->
<g id="edge31" class="edge"><title>h5&#45;&gt;s5</title>
<path fill="none" stroke="#91cf60" d="M447.5,-215.31C440.48,-215.37 432.78,-215.76 425.38,-216.43"/>
<polygon fill="#91cf60" stroke="#91cf60" points="424.767,-212.976 415.21,-217.55 425.533,-219.934 424.767,-212.976"/>
<text text-anchor="middle" x="427.44" y="-204.67" font-family="Times,serif" font-size="14.00">0.0</text>
</g>
<!-- s6&#45;&gt;s7 -->
<g id="edge34" class="edge"><title>s6&#45;&gt;s7</title>
<path fill="none" stroke="#cb181d" d="M347.22,-320.09C338.76,-326.17 329.25,-333.96 321.16,-341.38"/>
<polygon fill="#cb181d" stroke="#cb181d" points="318.43,-339.15 313.64,-348.6 323.278,-344.199 318.43,-339.15"/>
<text text-anchor="middle" x="321.69" y="-334.53" font-family="Times,serif" font-size="14.00">1.09</text>
</g>
<!-- s6&#45;&gt;s5 -->
<g id="edge32" class="edge"><title>s6&#45;&gt;s5</title>
<path fill="none" stroke="#cb181d" d="M379.47,-292.73C383.52,-281.5 387.54,-266.5 390.08,-253.5"/>
<polygon fill="#cb181d" stroke="#cb181d" points="393.534,-254.065 391.76,-243.62 386.633,-252.892 393.534,-254.065"/>
<text text-anchor="middle" x="397.27" y="-276.92" font-family="Times,serif" font-size="14.00">1.09</text>
</g>
<!-- h6 -->
<g id="node19" class="node"><title>h6</title>
<ellipse fill="none" stroke="black" cx="439.9" cy="-353.85" rx="27" ry="18"/>
<text text-anchor="middle" x="439.9" y="-350.15" font-family="Times,serif" font-size="14.00">h6</text>
</g>
<!-- s6&#45;&gt;h6 -->
<g id="edge33" class="edge"><title>s6&#45;&gt;h6</title>
<path fill="none" stroke="#91cf60" d="M383.29,-325.28C390.02,-330.39 398.38,-335.94 406.59,-340.84"/>
<polygon fill="#91cf60" stroke="#91cf60" points="404.939,-343.928 415.36,-345.84 408.406,-337.847 404.939,-343.928"/>
<text text-anchor="middle" x="385.94" y="-336.86" font-family="Times,serif" font-size="14.00">0.0</text>
</g>
<!-- h6&#45;&gt;s6 -->
<g id="edge35" class="edge"><title>h6&#45;&gt;s6</title>
<path fill="none" stroke="#91cf60" d="M425.94,-338.16C419.21,-333.05 410.86,-327.5 402.65,-322.6"/>
<polygon fill="#91cf60" stroke="#91cf60" points="404.292,-319.507 393.87,-317.6 400.828,-325.59 404.292,-319.507"/>
<text text-anchor="middle" x="405.3" y="-319.18" font-family="Times,serif" font-size="14.00">0.0</text>
</g>
<!-- h7&#45;&gt;s7 -->
<g id="edge39" class="edge"><title>h7&#45;&gt;s7</title>
<path fill="none" stroke="#91cf60" d="M332.57,-424.31C329.71,-414.18 324.88,-401.41 319.84,-390.33"/>
<polygon fill="#91cf60" stroke="#91cf60" points="322.899,-388.615 315.4,-381.13 316.594,-391.657 322.899,-388.615"/>
<text text-anchor="middle" x="335.21" y="-411.12" font-family="Times,serif" font-size="14.00">0.0</text>
</g>
</g>
</svg>
