<?xml version="1.0" encoding="UTF-8" standalone="no"?>
<!DOCTYPE svg PUBLIC "-//W3C//DTD SVG 1.1//EN"
 "http://www.w3.org/Graphics/SVG/1.1/DTD/svg11.dtd">
<!-- Generated by graphviz version 2.36.0 (20140111.2315)
 -->
<!-- Title: grid5h1 Pages: 1 -->
<svg width="457pt" height="561pt"
 viewBox="0.00 0.00 456.89 561.37" xmlns="http://www.w3.org/2000/svg" xmlns:xlink="http://www.w3.org/1999/xlink">
<g id="graph0" class="graph" transform="scale(1 1) rotate(0) translate(4 557.37)">
<title>grid5h1</title>
<polygon fill="white" stroke="none" points="-4,4 -4,-557.37 452.89,-557.37 452.89,4 -4,4"/>
<!-- s0 -->
<g id="0" class="node"><title>s0</title>
<ellipse fill="none" stroke="black" cx="27" cy="-127.97" rx="27" ry="18"/>
<text text-anchor="middle" x="27" y="-124.27" font-family="Times,serif" font-size="14.00">s0</text>
</g>
<!-- s1 -->
<g id="1" class="node"><title>s1</title>
<ellipse fill="none" stroke="black" cx="33.966" cy="-212.25" rx="27" ry="18"/>
<text text-anchor="middle" x="33.966" y="-208.55" font-family="Times,serif" font-size="14.00">s1</text>
</g>
<!-- s0&#45;&gt;s1 -->
<g id="edge1" class="edge"><title>s0&#45;&gt;s1</title>
<path fill="none" stroke="#aaaaaa" d="M22.87,-145.89C22.605,-157.14 23.55,-171.87 25.249,-184.59"/>
<polygon fill="#aaaaaa" stroke="#aaaaaa" points="21.827,-185.359 26.845,-194.69 28.7412,-184.266 21.827,-185.359"/>
<text text-anchor="middle" x="15.06" y="-169.04" font-family="Times,serif" font-size="14.00">0.0</text>
</g>
<!-- s5 -->
<g id="5" class="node"><title>s5</title>
<ellipse fill="none" stroke="black" cx="111.4" cy="-115.43" rx="27" ry="18"/>
<text text-anchor="middle" x="111.4" y="-111.73" font-family="Times,serif" font-size="14.00">s5</text>
</g>
<!-- s0&#45;&gt;s5 -->
<g id="edge2" class="edge"><title>s0&#45;&gt;s5</title>
<path fill="none" stroke="#aaaaaa" d="M54.167,-130.3C61.922,-129.61 70.457,-128.45 78.514,-127.02"/>
<polygon fill="#aaaaaa" stroke="#aaaaaa" points="79.2404,-130.444 88.371,-125.07 77.8819,-123.577 79.2404,-130.444"/>
<text text-anchor="middle" x="75.341" y="-132.46" font-family="Times,serif" font-size="14.00">0.0</text>
</g>
<!-- s1&#45;&gt;s0 -->
<g id="edge3" class="edge"><title>s1&#45;&gt;s0</title>
<path fill="none" stroke="#aaaaaa" d="M38.097,-194.32C38.361,-183.07 37.417,-168.34 35.717,-155.62"/>
<polygon fill="#aaaaaa" stroke="#aaaaaa" points="39.1391,-154.852 34.122,-145.52 32.2248,-155.944 39.1391,-154.852"/>
<text text-anchor="middle" x="45.907" y="-178.77" font-family="Times,serif" font-size="14.00">0.0</text>
</g>
<!-- s2 -->
<g id="2" class="node"><title>s2</title>
<ellipse fill="none" stroke="black" cx="42.312" cy="-298.53" rx="27" ry="18"/>
<text text-anchor="middle" x="42.312" y="-294.83" font-family="Times,serif" font-size="14.00">s2</text>
</g>
<!-- s1&#45;&gt;s2 -->
<g id="edge4" class="edge"><title>s1&#45;&gt;s2</title>
<path fill="none" stroke="#aaaaaa" d="M30.132,-230.24C30.018,-242.02 31.251,-257.64 33.24,-270.96"/>
<polygon fill="#aaaaaa" stroke="#aaaaaa" points="29.8305,-271.784 34.986,-281.04 36.7278,-270.589 29.8305,-271.784"/>
<text text-anchor="middle" x="22.686" y="-254.4" font-family="Times,serif" font-size="14.00">0.0</text>
</g>
<!-- s6 -->
<g id="6" class="node"><title>s6</title>
<ellipse fill="none" stroke="black" cx="119.84" cy="-201.79" rx="27" ry="18"/>
<text text-anchor="middle" x="119.84" y="-198.09" font-family="Times,serif" font-size="14.00">s6</text>
</g>
<!-- s1&#45;&gt;s6 -->
<g id="edge5" class="edge"><title>s1&#45;&gt;s6</title>
<path fill="none" stroke="#aaaaaa" d="M60.955,-215.28C69.008,-214.78 77.932,-213.81 86.347,-212.54"/>
<polygon fill="#aaaaaa" stroke="#aaaaaa" points="86.9918,-215.981 96.267,-210.86 85.8229,-209.079 86.9918,-215.981"/>
<text text-anchor="middle" x="82.651" y="-217.71" font-family="Times,serif" font-size="14.00">0.0</text>
</g>
<!-- s5&#45;&gt;s0 -->
<g id="edge6" class="edge"><title>s5&#45;&gt;s0</title>
<path fill="none" stroke="#aaaaaa" d="M84.229,-113.09C76.474,-113.79 67.939,-114.94 59.882,-116.38"/>
<polygon fill="#aaaaaa" stroke="#aaaaaa" points="59.1609,-112.955 50.025,-118.32 60.5127,-119.823 59.1609,-112.955"/>
<text text-anchor="middle" x="63.056" y="-103.54" font-family="Times,serif" font-size="14.00">0.0</text>
</g>
<!-- s5&#45;&gt;s6 -->
<g id="edge7" class="edge"><title>s5&#45;&gt;s6</title>
<path fill="none" stroke="#d9ef8b" d="M107.58,-133.45C107.48,-145.23 108.73,-160.86 110.73,-174.2"/>
<polygon fill="#d9ef8b" stroke="#d9ef8b" points="107.324,-175.04 112.49,-184.29 114.22,-173.837 107.324,-175.04"/>
<text text-anchor="middle" x="96.658" y="-157.62" font-family="Times,serif" font-size="14.00">0.29</text>
</g>
<!-- s10 -->
<g id="10" class="node"><title>s10</title>
<ellipse fill="none" stroke="black" cx="207.94" cy="-99.498" rx="27" ry="18"/>
<text text-anchor="middle" x="207.94" y="-95.798" font-family="Times,serif" font-size="14.00">s10</text>
</g>
<!-- s5&#45;&gt;s10 -->
<g id="edge8" class="edge"><title>s5&#45;&gt;s10</title>
<path fill="none" stroke="#d9ef8b" d="M138.51,-117.11C149.86,-115.98 163.15,-113.93 175.05,-111.49"/>
<polygon fill="#d9ef8b" stroke="#d9ef8b" points="176.064,-114.85 185.07,-109.27 174.55,-108.016 176.064,-114.85"/>
<text text-anchor="middle" x="150.53" y="-103.1" font-family="Times,serif" font-size="14.00">0.29</text>
</g>
<!-- s2&#45;&gt;s1 -->
<g id="edge9" class="edge"><title>s2&#45;&gt;s1</title>
<path fill="none" stroke="#aaaaaa" d="M46.146,-280.54C46.261,-268.76 45.027,-253.14 43.038,-239.82"/>
<polygon fill="#aaaaaa" stroke="#aaaaaa" points="46.4476,-238.996 41.293,-229.74 39.5502,-240.19 46.4476,-238.996"/>
<text text-anchor="middle" x="53.592" y="-263.98" font-family="Times,serif" font-size="14.00">0.0</text>
</g>
<!-- s3 -->
<g id="3" class="node"><title>s3</title>
<ellipse fill="none" stroke="black" cx="55.044" cy="-384.75" rx="27" ry="18"/>
<text text-anchor="middle" x="55.044" y="-381.05" font-family="Times,serif" font-size="14.00">s3</text>
</g>
<!-- s2&#45;&gt;s3 -->
<g id="edge10" class="edge"><title>s2&#45;&gt;s3</title>
<path fill="none" stroke="#aaaaaa" d="M39.4,-316.79C39.885,-328.62 41.913,-344.24 44.579,-357.52"/>
<polygon fill="#aaaaaa" stroke="#aaaaaa" points="41.226,-358.562 46.836,-367.55 48.0552,-357.026 41.226,-358.562"/>
<text text-anchor="middle" x="32.989" y="-340.96" font-family="Times,serif" font-size="14.00">0.0</text>
</g>
<!-- s7 -->
<g id="7" class="node"><title>s7</title>
<ellipse fill="none" stroke="black" cx="127.29" cy="-287.04" rx="27" ry="18"/>
<text text-anchor="middle" x="127.29" y="-283.34" font-family="Times,serif" font-size="14.00">s7</text>
</g>
<!-- s2&#45;&gt;s7 -->
<g id="edge11" class="edge"><title>s2&#45;&gt;s7</title>
<path fill="none" stroke="#fee08b" d="M69.112,-301.24C77.001,-300.65 85.729,-299.59 93.973,-298.24"/>
<polygon fill="#fee08b" stroke="#fee08b" points="94.8555,-301.637 104.06,-296.39 93.5926,-294.751 94.8555,-301.637"/>
<text text-anchor="middle" x="87.793" y="-288.54" font-family="Times,serif" font-size="14.00">0.59</text>
</g>
<!-- s6&#45;&gt;s1 -->
<g id="edge12" class="edge"><title>s6&#45;&gt;s1</title>
<path fill="none" stroke="#aaaaaa" d="M92.848,-198.76C84.795,-199.26 75.871,-200.22 67.455,-201.49"/>
<polygon fill="#aaaaaa" stroke="#aaaaaa" points="66.8061,-198.05 57.536,-203.18 67.9818,-204.951 66.8061,-198.05"/>
<text text-anchor="middle" x="71.152" y="-188.93" font-family="Times,serif" font-size="14.00">0.0</text>
</g>
<!-- s6&#45;&gt;s5 -->
<g id="edge13" class="edge"><title>s6&#45;&gt;s5</title>
<path fill="none" stroke="#d9ef8b" d="M123.65,-183.78C123.75,-171.99 122.5,-156.36 120.5,-143.02"/>
<polygon fill="#d9ef8b" stroke="#d9ef8b" points="123.906,-142.18 118.74,-132.93 117.01,-143.383 123.906,-142.18"/>
<text text-anchor="middle" x="134.57" y="-167.2" font-family="Times,serif" font-size="14.00">0.29</text>
</g>
<!-- s6&#45;&gt;s7 -->
<g id="edge14" class="edge"><title>s6&#45;&gt;s7</title>
<path fill="none" stroke="#d9ef8b" d="M115.81,-219.94C115.61,-231.4 116.66,-246.43 118.45,-259.35"/>
<polygon fill="#d9ef8b" stroke="#d9ef8b" points="115.059,-260.298 120.13,-269.6 121.966,-259.166 115.059,-260.298"/>
<text text-anchor="middle" x="104.63" y="-243.45" font-family="Times,serif" font-size="14.00">0.29</text>
</g>
<!-- s11 -->
<g id="11" class="node"><title>s11</title>
<ellipse fill="none" stroke="black" cx="211.26" cy="-189.24" rx="27" ry="18"/>
<text text-anchor="middle" x="211.26" y="-185.54" font-family="Times,serif" font-size="14.00">s11</text>
</g>
<!-- s6&#45;&gt;s11 -->
<g id="edge15" class="edge"><title>s6&#45;&gt;s11</title>
<path fill="none" stroke="#d9ef8b" d="M146.63,-204.33C156.45,-203.61 167.69,-202.2 178.01,-200.42"/>
<polygon fill="#d9ef8b" stroke="#d9ef8b" points="178.771,-203.838 187.94,-198.53 177.462,-196.962 178.771,-203.838"/>
<text text-anchor="middle" x="168.57" y="-191.17" font-family="Times,serif" font-size="14.00">0.29</text>
</g>
<!-- s10&#45;&gt;s5 -->
<g id="edge16" class="edge"><title>s10&#45;&gt;s5</title>
<path fill="none" stroke="#d9ef8b" d="M180.82,-97.816C169.47,-98.943 156.18,-101 144.28,-103.44"/>
<polygon fill="#d9ef8b" stroke="#d9ef8b" points="143.266,-100.08 134.26,-105.66 144.78,-106.914 143.266,-100.08"/>
<text text-anchor="middle" x="162.55" y="-89.426" font-family="Times,serif" font-size="14.00">0.29</text>
</g>
<!-- s10&#45;&gt;s11 -->
<g id="edge17" class="edge"><title>s10&#45;&gt;s11</title>
<path fill="none" stroke="#fee08b" d="M203.09,-117.43C202.24,-129.94 202.59,-146.87 203.89,-161.15"/>
<polygon fill="#fee08b" stroke="#fee08b" points="200.453,-161.899 205.06,-171.44 207.408,-161.109 200.453,-161.899"/>
<text text-anchor="middle" x="215.99" y="-128.09" font-family="Times,serif" font-size="14.00">0.59</text>
</g>
<!-- h0 -->
<g id="node10" class="node"><title>h0</title>
<ellipse fill="none" stroke="black" cx="199.32" cy="-18" rx="27" ry="18"/>
<text text-anchor="middle" x="199.32" y="-14.3" font-family="Times,serif" font-size="14.00">h0</text>
</g>
<!-- s10&#45;&gt;h0 -->
<g id="edge18" class="edge"><title>s10&#45;&gt;h0</title>
<path fill="none" stroke="#91cf60" d="M211.71,-81.622C211.73,-71.023 210.56,-57.373 208.71,-45.435"/>
<polygon fill="#91cf60" stroke="#91cf60" points="212.138,-44.7245 206.92,-35.504 205.249,-45.9663 212.138,-44.7245"/>
<text text-anchor="middle" x="201.21" y="-67.328" font-family="Times,serif" font-size="14.00">0.0</text>
</g>
<!-- s15 -->
<g id="15" class="node"><title>s15</title>
<ellipse fill="none" stroke="black" cx="295.62" cy="-97.3" rx="27" ry="18"/>
<text text-anchor="middle" x="295.62" y="-93.6" font-family="Times,serif" font-size="14.00">s15</text>
</g>
<!-- s10&#45;&gt;s15 -->
<g id="edge19" class="edge"><title>s10&#45;&gt;s15</title>
<path fill="none" stroke="#aaaaaa" d="M233.93,-105.06C242.22,-105.38 251.54,-105.28 260.37,-104.82"/>
<polygon fill="#aaaaaa" stroke="#aaaaaa" points="260.697,-108.306 270.43,-104.12 260.211,-101.323 260.697,-108.306"/>
<text text-anchor="middle" x="256.15" y="-108.74" font-family="Times,serif" font-size="14.00">0.0</text>
</g>
<!-- s3&#45;&gt;s2 -->
<g id="edge20" class="edge"><title>s3&#45;&gt;s2</title>
<path fill="none" stroke="#fee08b" d="M57.957,-366.49C57.472,-354.66 55.444,-339.04 52.778,-325.76"/>
<polygon fill="#fee08b" stroke="#fee08b" points="56.131,-324.718 50.521,-315.73 49.3018,-326.254 56.131,-324.718"/>
<text text-anchor="middle" x="67.868" y="-349.93" font-family="Times,serif" font-size="14.00">0.59</text>
</g>
<!-- s4 -->
<g id="4" class="node"><title>s4</title>
<ellipse fill="none" stroke="black" cx="68.946" cy="-468.45" rx="27" ry="18"/>
<text text-anchor="middle" x="68.946" y="-464.75" font-family="Times,serif" font-size="14.00">s4</text>
</g>
<!-- s3&#45;&gt;s4 -->
<g id="edge21" class="edge"><title>s3&#45;&gt;s4</title>
<path fill="none" stroke="#aaaaaa" d="M52.408,-403.01C53.068,-414.2 55.201,-428.73 57.919,-441.26"/>
<polygon fill="#aaaaaa" stroke="#aaaaaa" points="54.5679,-442.293 60.321,-451.19 61.3717,-440.647 54.5679,-442.293"/>
<text text-anchor="middle" x="46.164" y="-425.93" font-family="Times,serif" font-size="14.00">0.0</text>
</g>
<!-- s8 -->
<g id="8" class="node"><title>s8</title>
<ellipse fill="none" stroke="black" cx="141.07" cy="-375.23" rx="27" ry="18"/>
<text text-anchor="middle" x="141.07" y="-371.53" font-family="Times,serif" font-size="14.00">s8</text>
</g>
<!-- s3&#45;&gt;s8 -->
<g id="edge22" class="edge"><title>s3&#45;&gt;s8</title>
<path fill="none" stroke="#aaaaaa" d="M82.012,-388.08C90.074,-387.67 99.014,-386.8 107.45,-385.62"/>
<polygon fill="#aaaaaa" stroke="#aaaaaa" points="108.063,-389.067 117.39,-384.04 106.965,-382.153 108.063,-389.067"/>
<text text-anchor="middle" x="103.73" y="-390.65" font-family="Times,serif" font-size="14.00">0.0</text>
</g>
<!-- s7&#45;&gt;s2 -->
<g id="edge23" class="edge"><title>s7&#45;&gt;s2</title>
<path fill="none" stroke="#aaaaaa" d="M100.49,-284.33C92.606,-284.92 83.878,-285.98 75.634,-287.33"/>
<polygon fill="#aaaaaa" stroke="#aaaaaa" points="74.7533,-283.933 65.549,-289.18 76.0164,-290.818 74.7533,-283.933"/>
<text text-anchor="middle" x="79.064" y="-274.63" font-family="Times,serif" font-size="14.00">0.0</text>
</g>
<!-- s7&#45;&gt;s6 -->
<g id="edge24" class="edge"><title>s7&#45;&gt;s6</title>
<path fill="none" stroke="#aaaaaa" d="M131.32,-268.89C131.52,-257.43 130.48,-242.4 128.68,-229.48"/>
<polygon fill="#aaaaaa" stroke="#aaaaaa" points="132.074,-228.546 127.01,-219.24 125.165,-229.673 132.074,-228.546"/>
<text text-anchor="middle" x="139" y="-252.98" font-family="Times,serif" font-size="14.00">0.0</text>
</g>
<!-- s7&#45;&gt;s8 -->
<g id="edge25" class="edge"><title>s7&#45;&gt;s8</title>
<path fill="none" stroke="#d9ef8b" d="M124.58,-305.31C125.19,-317.68 127.49,-334.21 130.42,-348.1"/>
<polygon fill="#d9ef8b" stroke="#d9ef8b" points="127.074,-349.161 132.76,-358.1 133.889,-347.566 127.074,-349.161"/>
<text text-anchor="middle" x="115" y="-330.51" font-family="Times,serif" font-size="14.00">0.29</text>
</g>
<!-- s12 -->
<g id="12" class="node"><title>s12</title>
<ellipse fill="none" stroke="black" cx="224.09" cy="-275.76" rx="27" ry="18"/>
<text text-anchor="middle" x="224.09" y="-272.06" font-family="Times,serif" font-size="14.00">s12</text>
</g>
<!-- s7&#45;&gt;s12 -->
<g id="edge26" class="edge"><title>s7&#45;&gt;s12</title>
<path fill="none" stroke="#fc8d59" d="M153.94,-290.03C165.2,-289.47 178.44,-288.07 190.37,-286.23"/>
<polygon fill="#fc8d59" stroke="#fc8d59" points="191.168,-289.644 200.43,-284.5 189.981,-282.746 191.168,-289.644"/>
<text text-anchor="middle" x="184.65" y="-276.93" font-family="Times,serif" font-size="14.00">0.88</text>
</g>
<!-- s11&#45;&gt;s6 -->
<g id="edge27" class="edge"><title>s11&#45;&gt;s6</title>
<path fill="none" stroke="#fee08b" d="M184.47,-186.7C174.64,-187.42 163.4,-188.83 153.08,-190.61"/>
<polygon fill="#fee08b" stroke="#fee08b" points="152.319,-187.192 143.15,-192.5 153.628,-194.068 152.319,-187.192"/>
<text text-anchor="middle" x="162.52" y="-177.46" font-family="Times,serif" font-size="14.00">0.59</text>
</g>
<!-- s11&#45;&gt;s10 -->
<g id="edge28" class="edge"><title>s11&#45;&gt;s10</title>
<path fill="none" stroke="#fee08b" d="M216.1,-171.31C216.96,-158.8 216.6,-141.87 215.31,-127.58"/>
<polygon fill="#fee08b" stroke="#fee08b" points="218.747,-126.826 214.13,-117.29 211.792,-127.624 218.747,-126.826"/>
<text text-anchor="middle" x="228.2" y="-153.24" font-family="Times,serif" font-size="14.00">0.59</text>
</g>
<!-- s11&#45;&gt;s12 -->
<g id="edge29" class="edge"><title>s11&#45;&gt;s12</title>
<path fill="none" stroke="#aaaaaa" d="M208.35,-207.14C208.81,-218.98 210.85,-234.75 213.54,-248.18"/>
<polygon fill="#aaaaaa" stroke="#aaaaaa" points="210.213,-249.34 215.82,-258.33 217.043,-247.806 210.213,-249.34"/>
<text text-anchor="middle" x="201.95" y="-231.46" font-family="Times,serif" font-size="14.00">0.0</text>
</g>
<!-- h1 -->
<g id="node15" class="node"><title>h1</title>
<ellipse fill="none" stroke="black" cx="176.2" cy="-130.63" rx="27" ry="18"/>
<text text-anchor="middle" x="176.2" y="-126.93" font-family="Times,serif" font-size="14.00">h1</text>
</g>
<!-- s11&#45;&gt;h1 -->
<g id="edge30" class="edge"><title>s11&#45;&gt;h1</title>
<path fill="none" stroke="#91cf60" d="M207.52,-171.39C204.96,-165.91 201.62,-159.81 198.04,-154.03"/>
<polygon fill="#91cf60" stroke="#91cf60" points="200.733,-151.756 192.31,-145.33 194.887,-155.607 200.733,-151.756"/>
<text text-anchor="middle" x="202.78" y="-151.51" font-family="Times,serif" font-size="14.00">0.01</text>
</g>
<!-- s16 -->
<g id="16" class="node"><title>s16</title>
<ellipse fill="none" stroke="black" cx="299.34" cy="-181.23" rx="27" ry="18"/>
<text text-anchor="middle" x="299.34" y="-177.53" font-family="Times,serif" font-size="14.00">s16</text>
</g>
<!-- s11&#45;&gt;s16 -->
<g id="edge31" class="edge"><title>s11&#45;&gt;s16</title>
<path fill="none" stroke="#fee08b" d="M237.77,-193.07C246.45,-192.82 256.21,-192.07 265.36,-190.96"/>
<polygon fill="#fee08b" stroke="#fee08b" points="265.914,-194.417 275.33,-189.56 264.94,-187.485 265.914,-194.417"/>
<text text-anchor="middle" x="257.81" y="-180.81" font-family="Times,serif" font-size="14.00">0.59</text>
</g>
<!-- h0&#45;&gt;s10 -->
<g id="edge55" class="edge"><title>h0&#45;&gt;s10</title>
<path fill="none" stroke="#91cf60" d="M195.54,-35.877C195.53,-46.475 196.7,-60.125 198.55,-72.064"/>
<polygon fill="#91cf60" stroke="#91cf60" points="195.12,-72.7685 200.33,-81.994 202.011,-71.5333 195.12,-72.7685"/>
<text text-anchor="middle" x="188.04" y="-42.77" font-family="Times,serif" font-size="14.00">0.0</text>
</g>
<!-- s15&#45;&gt;s10 -->
<g id="edge56" class="edge"><title>s15&#45;&gt;s10</title>
<path fill="none" stroke="#aaaaaa" d="M269.63,-91.733C261.34,-91.422 252.02,-91.515 243.19,-91.974"/>
<polygon fill="#aaaaaa" stroke="#aaaaaa" points="242.86,-88.4884 233.13,-92.68 243.351,-95.4713 242.86,-88.4884"/>
<text text-anchor="middle" x="247.41" y="-80.654" font-family="Times,serif" font-size="14.00">0.0</text>
</g>
<!-- s15&#45;&gt;s16 -->
<g id="edge57" class="edge"><title>s15&#45;&gt;s16</title>
<path fill="none" stroke="#aaaaaa" d="M290.78,-115.35C290.11,-126.53 290.5,-141.1 291.72,-153.7"/>
<polygon fill="#aaaaaa" stroke="#aaaaaa" points="288.253,-154.188 292.92,-163.7 295.204,-153.354 288.253,-154.188"/>
<text text-anchor="middle" x="282.25" y="-138.33" font-family="Times,serif" font-size="14.00">0.0</text>
</g>
<!-- s20 -->
<g id="20" class="node"><title>s20</title>
<ellipse fill="none" stroke="black" cx="378.75" cy="-89.252" rx="27" ry="18"/>
<text text-anchor="middle" x="378.75" y="-85.552" font-family="Times,serif" font-size="14.00">s20</text>
</g>
<!-- s15&#45;&gt;s20 -->
<g id="edge58" class="edge"><title>s15&#45;&gt;s20</title>
<path fill="none" stroke="#aaaaaa" d="M322.07,-101.07C329.32,-100.8 337.28,-100.15 344.89,-99.224"/>
<polygon fill="#aaaaaa" stroke="#aaaaaa" points="345.522,-102.669 354.93,-97.797 344.537,-95.7391 345.522,-102.669"/>
<text text-anchor="middle" x="342.48" y="-103.95" font-family="Times,serif" font-size="14.00">0.0</text>
</g>
<!-- s4&#45;&gt;s3 -->
<g id="edge32" class="edge"><title>s4&#45;&gt;s3</title>
<path fill="none" stroke="#aaaaaa" d="M71.583,-450.19C70.922,-439 68.789,-424.47 66.071,-411.94"/>
<polygon fill="#aaaaaa" stroke="#aaaaaa" points="69.4222,-410.907 63.67,-402.01 62.6183,-412.553 69.4222,-410.907"/>
<text text-anchor="middle" x="77.827" y="-434.86" font-family="Times,serif" font-size="14.00">0.0</text>
</g>
<!-- s9 -->
<g id="9" class="node"><title>s9</title>
<ellipse fill="none" stroke="black" cx="154.46" cy="-461.06" rx="27" ry="18"/>
<text text-anchor="middle" x="154.46" y="-457.36" font-family="Times,serif" font-size="14.00">s9</text>
</g>
<!-- s4&#45;&gt;s9 -->
<g id="edge33" class="edge"><title>s4&#45;&gt;s9</title>
<path fill="none" stroke="#aaaaaa" d="M95.609,-472.44C103.39,-472.23 111.99,-471.62 120.17,-470.69"/>
<polygon fill="#aaaaaa" stroke="#aaaaaa" points="120.742,-474.145 130.2,-469.37 119.829,-467.205 120.742,-474.145"/>
<text text-anchor="middle" x="116.89" y="-475.37" font-family="Times,serif" font-size="14.00">0.0</text>
</g>
<!-- s8&#45;&gt;s3 -->
<g id="edge34" class="edge"><title>s8&#45;&gt;s3</title>
<path fill="none" stroke="#fee08b" d="M114.1,-371.9C106.04,-372.31 97.101,-373.18 88.668,-374.36"/>
<polygon fill="#fee08b" stroke="#fee08b" points="88.0518,-370.914 78.725,-375.94 89.1504,-377.827 88.0518,-370.914"/>
<text text-anchor="middle" x="101.38" y="-361.93" font-family="Times,serif" font-size="14.00">0.59</text>
</g>
<!-- s8&#45;&gt;s7 -->
<g id="edge35" class="edge"><title>s8&#45;&gt;s7</title>
<path fill="none" stroke="#aaaaaa" d="M143.79,-356.96C143.18,-344.6 140.88,-328.06 137.95,-314.17"/>
<polygon fill="#aaaaaa" stroke="#aaaaaa" points="141.295,-313.104 135.6,-304.17 134.481,-314.706 141.295,-313.104"/>
<text text-anchor="middle" x="149.87" y="-339.36" font-family="Times,serif" font-size="14.00">0.0</text>
</g>
<!-- s8&#45;&gt;s9 -->
<g id="edge36" class="edge"><title>s8&#45;&gt;s9</title>
<path fill="none" stroke="#aaaaaa" d="M138.3,-393.45C138.87,-405.16 140.99,-420.58 143.73,-433.74"/>
<polygon fill="#aaaaaa" stroke="#aaaaaa" points="140.371,-434.746 146.05,-443.69 147.188,-433.156 140.371,-434.746"/>
<text text-anchor="middle" x="132.02" y="-417.4" font-family="Times,serif" font-size="14.00">0.0</text>
</g>
<!-- s13 -->
<g id="13" class="node"><title>s13</title>
<ellipse fill="none" stroke="black" cx="234.63" cy="-367.3" rx="27" ry="18"/>
<text text-anchor="middle" x="234.63" y="-363.6" font-family="Times,serif" font-size="14.00">s13</text>
</g>
<!-- s8&#45;&gt;s13 -->
<g id="edge37" class="edge"><title>s8&#45;&gt;s13</title>
<path fill="none" stroke="#fc8d59" d="M167.65,-379.12C177.86,-378.92 189.67,-378.06 200.5,-376.76"/>
<polygon fill="#fc8d59" stroke="#fc8d59" points="201.063,-380.216 210.5,-375.4 200.12,-373.28 201.063,-380.216"/>
<text text-anchor="middle" x="190.32" y="-366.74" font-family="Times,serif" font-size="14.00">0.89</text>
</g>
<!-- s12&#45;&gt;s7 -->
<g id="edge38" class="edge"><title>s12&#45;&gt;s7</title>
<path fill="none" stroke="#d9ef8b" d="M197.45,-272.76C186.19,-273.33 172.95,-274.73 161.02,-276.57"/>
<polygon fill="#d9ef8b" stroke="#d9ef8b" points="160.213,-273.157 150.95,-278.3 161.398,-280.056 160.213,-273.157"/>
<text text-anchor="middle" x="166.73" y="-263.47" font-family="Times,serif" font-size="14.00">0.29</text>
</g>
<!-- s12&#45;&gt;s11 -->
<g id="edge39" class="edge"><title>s12&#45;&gt;s11</title>
<path fill="none" stroke="#fc8d59" d="M227,-257.86C226.54,-246.01 224.5,-230.25 221.81,-216.82"/>
<polygon fill="#fc8d59" stroke="#fc8d59" points="225.137,-215.66 219.53,-206.67 218.307,-217.194 225.137,-215.66"/>
<text text-anchor="middle" x="236.9" y="-241.14" font-family="Times,serif" font-size="14.00">0.89</text>
</g>
<!-- s12&#45;&gt;s13 -->
<g id="edge40" class="edge"><title>s12&#45;&gt;s13</title>
<path fill="none" stroke="#d9ef8b" d="M220.7,-294.03C220.82,-307.07 222.58,-324.82 225.1,-339.6"/>
<polygon fill="#d9ef8b" stroke="#d9ef8b" points="221.719,-340.554 227.05,-349.71 228.593,-339.228 221.719,-340.554"/>
<text text-anchor="middle" x="235.4" y="-305.61" font-family="Times,serif" font-size="14.00">0.29</text>
</g>
<!-- h2 -->
<g id="node19" class="node"><title>h2</title>
<ellipse fill="none" stroke="black" cx="181.75" cy="-301.08" rx="27" ry="18"/>
<text text-anchor="middle" x="181.75" y="-297.38" font-family="Times,serif" font-size="14.00">h2</text>
</g>
<!-- s12&#45;&gt;h2 -->
<g id="edge41" class="edge"><title>s12&#45;&gt;h2</title>
<path fill="none" stroke="#91cf60" d="M198.96,-282.92C198.8,-283.02 198.64,-283.12 198.47,-283.22"/>
<polygon fill="#91cf60" stroke="#91cf60" points="201.677,-277.004 195.15,-285.35 205.457,-282.896 201.677,-277.004"/>
<text text-anchor="middle" x="192.47" y="-271.87" font-family="Times,serif" font-size="14.00">0.01</text>
</g>
<!-- s17 -->
<g id="17" class="node"><title>s17</title>
<ellipse fill="none" stroke="black" cx="309.24" cy="-266.33" rx="27" ry="18"/>
<text text-anchor="middle" x="309.24" y="-262.63" font-family="Times,serif" font-size="14.00">s17</text>
</g>
<!-- s12&#45;&gt;s17 -->
<g id="edge42" class="edge"><title>s12&#45;&gt;s17</title>
<path fill="none" stroke="#d9ef8b" d="M250.79,-279.11C258.62,-278.72 267.27,-277.89 275.48,-276.75"/>
<polygon fill="#d9ef8b" stroke="#d9ef8b" points="276.186,-280.182 285.52,-275.17 275.097,-273.267 276.186,-280.182"/>
<text text-anchor="middle" x="269.38" y="-266.73" font-family="Times,serif" font-size="14.00">0.29</text>
</g>
<!-- h1&#45;&gt;s11 -->
<g id="edge59" class="edge"><title>h1&#45;&gt;s11</title>
<path fill="none" stroke="#91cf60" d="M179.94,-148.48C182.5,-153.96 185.84,-160.06 189.42,-165.84"/>
<polygon fill="#91cf60" stroke="#91cf60" points="186.727,-168.114 195.15,-174.54 192.573,-164.263 186.727,-168.114"/>
<text text-anchor="middle" x="172.18" y="-160.96" font-family="Times,serif" font-size="14.00">0.01</text>
</g>
<!-- s16&#45;&gt;s11 -->
<g id="edge60" class="edge"><title>s16&#45;&gt;s11</title>
<path fill="none" stroke="#aaaaaa" d="M272.82,-177.4C264.15,-177.65 254.39,-178.4 245.24,-179.51"/>
<polygon fill="#aaaaaa" stroke="#aaaaaa" points="244.677,-176.055 235.26,-180.91 245.649,-182.987 244.677,-176.055"/>
<text text-anchor="middle" x="250.03" y="-167.26" font-family="Times,serif" font-size="14.00">0.0</text>
</g>
<!-- s16&#45;&gt;s15 -->
<g id="edge61" class="edge"><title>s16&#45;&gt;s15</title>
<path fill="none" stroke="#aaaaaa" d="M304.18,-163.18C304.85,-152 304.45,-137.42 303.24,-124.82"/>
<polygon fill="#aaaaaa" stroke="#aaaaaa" points="306.707,-124.332 302.04,-114.82 299.756,-125.166 306.707,-124.332"/>
<text text-anchor="middle" x="312.71" y="-147.8" font-family="Times,serif" font-size="14.00">0.0</text>
</g>
<!-- s16&#45;&gt;s17 -->
<g id="edge62" class="edge"><title>s16&#45;&gt;s17</title>
<path fill="none" stroke="#fee08b" d="M295.83,-199.09C295.93,-210.66 297.42,-225.94 299.63,-239.01"/>
<polygon fill="#fee08b" stroke="#fee08b" points="296.209,-239.754 301.54,-248.91 303.082,-238.428 296.209,-239.754"/>
<text text-anchor="middle" x="285.23" y="-222.85" font-family="Times,serif" font-size="14.00">0.59</text>
</g>
<!-- s21 -->
<g id="21" class="node"><title>s21</title>
<ellipse fill="none" stroke="black" cx="384.66" cy="-171.55" rx="27" ry="18"/>
<text text-anchor="middle" x="384.66" y="-167.85" font-family="Times,serif" font-size="14.00">s21</text>
</g>
<!-- s16&#45;&gt;s21 -->
<g id="edge63" class="edge"><title>s16&#45;&gt;s21</title>
<path fill="none" stroke="#aaaaaa" d="M326.11,-184.51C333.95,-184.09 342.62,-183.23 350.84,-182.07"/>
<polygon fill="#aaaaaa" stroke="#aaaaaa" points="351.588,-185.495 360.91,-180.46 350.483,-178.583 351.588,-185.495"/>
<text text-anchor="middle" x="347.47" y="-187.09" font-family="Times,serif" font-size="14.00">0.0</text>
</g>
<!-- s9&#45;&gt;s4 -->
<g id="edge43" class="edge"><title>s9&#45;&gt;s4</title>
<path fill="none" stroke="#aaaaaa" d="M127.8,-457.06C120.02,-457.27 111.42,-457.89 103.24,-458.81"/>
<polygon fill="#aaaaaa" stroke="#aaaaaa" points="102.659,-455.356 93.206,-460.14 103.579,-462.296 102.659,-455.356"/>
<text text-anchor="middle" x="106.52" y="-446.74" font-family="Times,serif" font-size="14.00">0.0</text>
</g>
<!-- s9&#45;&gt;s8 -->
<g id="edge44" class="edge"><title>s9&#45;&gt;s8</title>
<path fill="none" stroke="#fee08b" d="M157.23,-442.83C156.66,-431.12 154.54,-415.7 151.8,-402.55"/>
<polygon fill="#fee08b" stroke="#fee08b" points="155.159,-401.541 149.49,-392.59 148.34,-403.122 155.159,-401.541"/>
<text text-anchor="middle" x="167.02" y="-426.49" font-family="Times,serif" font-size="14.00">0.59</text>
</g>
<!-- s14 -->
<g id="14" class="node"><title>s14</title>
<ellipse fill="none" stroke="black" cx="253.8" cy="-454.02" rx="27" ry="18"/>
<text text-anchor="middle" x="253.8" y="-450.32" font-family="Times,serif" font-size="14.00">s14</text>
</g>
<!-- s9&#45;&gt;s14 -->
<g id="edge45" class="edge"><title>s9&#45;&gt;s14</title>
<path fill="none" stroke="#aaaaaa" d="M180.99,-465.22C192.72,-465.16 206.67,-464.33 219.2,-462.97"/>
<polygon fill="#aaaaaa" stroke="#aaaaaa" points="219.829,-466.419 229.32,-461.71 218.964,-459.472 219.829,-466.419"/>
<text text-anchor="middle" x="191.1" y="-467.89" font-family="Times,serif" font-size="14.00">0.0</text>
</g>
<!-- s13&#45;&gt;s8 -->
<g id="edge46" class="edge"><title>s13&#45;&gt;s8</title>
<path fill="none" stroke="#fee08b" d="M208.05,-363.41C197.83,-363.62 186.02,-364.48 175.2,-365.77"/>
<polygon fill="#fee08b" stroke="#fee08b" points="174.632,-362.315 165.2,-367.14 175.583,-369.25 174.632,-362.315"/>
<text text-anchor="middle" x="185.37" y="-353.39" font-family="Times,serif" font-size="14.00">0.59</text>
</g>
<!-- s13&#45;&gt;s12 -->
<g id="edge47" class="edge"><title>s13&#45;&gt;s12</title>
<path fill="none" stroke="#d9ef8b" d="M238.02,-349.03C237.9,-336 236.14,-318.24 233.62,-303.47"/>
<polygon fill="#d9ef8b" stroke="#d9ef8b" points="236.999,-302.507 231.67,-293.35 230.125,-303.832 236.999,-302.507"/>
<text text-anchor="middle" x="223.32" y="-330.05" font-family="Times,serif" font-size="14.00">0.29</text>
</g>
<!-- s13&#45;&gt;s14 -->
<g id="edge48" class="edge"><title>s13&#45;&gt;s14</title>
<path fill="none" stroke="#fc8d59" d="M233.04,-385.63C234.39,-397.7 237.63,-413.72 241.35,-427.22"/>
<polygon fill="#fc8d59" stroke="#fc8d59" points="238.039,-428.364 244.26,-436.94 244.745,-426.356 238.039,-428.364"/>
<text text-anchor="middle" x="249.7" y="-395.22" font-family="Times,serif" font-size="14.00">0.89</text>
</g>
<!-- h3 -->
<g id="node22" class="node"><title>h3</title>
<ellipse fill="none" stroke="black" cx="214.74" cy="-435.34" rx="27" ry="18"/>
<text text-anchor="middle" x="214.74" y="-431.64" font-family="Times,serif" font-size="14.00">h3</text>
</g>
<!-- s13&#45;&gt;h3 -->
<g id="edge49" class="edge"><title>s13&#45;&gt;h3</title>
<path fill="none" stroke="#91cf60" d="M223.48,-383.84C220.69,-390.95 218.02,-399.46 216.03,-407.49"/>
<polygon fill="#91cf60" stroke="#91cf60" points="212.608,-406.755 213.91,-417.27 219.449,-408.238 212.608,-406.755"/>
<text text-anchor="middle" x="207.26" y="-399.46" font-family="Times,serif" font-size="14.00">0.01</text>
</g>
<!-- s18 -->
<g id="18" class="node"><title>s18</title>
<ellipse fill="none" stroke="black" cx="321.61" cy="-351.39" rx="27" ry="18"/>
<text text-anchor="middle" x="321.61" y="-347.69" font-family="Times,serif" font-size="14.00">s18</text>
</g>
<!-- s13&#45;&gt;s18 -->
<g id="edge50" class="edge"><title>s13&#45;&gt;s18</title>
<path fill="none" stroke="#aaaaaa" d="M261.85,-368.67C270.6,-367.61 280.37,-365.94 289.44,-363.97"/>
<polygon fill="#aaaaaa" stroke="#aaaaaa" points="290.356,-367.35 299.28,-361.64 288.743,-360.538 290.356,-367.35"/>
<text text-anchor="middle" x="284.64" y="-370.12" font-family="Times,serif" font-size="14.00">0.0</text>
</g>
<!-- h2&#45;&gt;s12 -->
<g id="edge64" class="edge"><title>h2&#45;&gt;s12</title>
<path fill="none" stroke="#91cf60" d="M206.88,-293.91C207.04,-293.81 207.2,-293.72 207.36,-293.62"/>
<polygon fill="#91cf60" stroke="#91cf60" points="204.17,-299.831 210.69,-291.48 200.385,-293.942 204.17,-299.831"/>
<text text-anchor="middle" x="219.62" y="-297.56" font-family="Times,serif" font-size="14.00">0.01</text>
</g>
<!-- s17&#45;&gt;s12 -->
<g id="edge65" class="edge"><title>s17&#45;&gt;s12</title>
<path fill="none" stroke="#fee08b" d="M282.54,-262.98C274.72,-263.37 266.06,-264.2 257.86,-265.34"/>
<polygon fill="#fee08b" stroke="#fee08b" points="257.145,-261.909 247.81,-266.92 258.232,-268.824 257.145,-261.909"/>
<text text-anchor="middle" x="263.95" y="-252.96" font-family="Times,serif" font-size="14.00">0.59</text>
</g>
<!-- s17&#45;&gt;s16 -->
<g id="edge66" class="edge"><title>s17&#45;&gt;s16</title>
<path fill="none" stroke="#aaaaaa" d="M312.75,-248.47C312.65,-236.91 311.15,-221.63 308.95,-208.55"/>
<polygon fill="#aaaaaa" stroke="#aaaaaa" points="312.371,-207.806 307.04,-198.65 305.498,-209.132 312.371,-207.806"/>
<text text-anchor="middle" x="319.85" y="-232.31" font-family="Times,serif" font-size="14.00">0.0</text>
</g>
<!-- s17&#45;&gt;s18 -->
<g id="edge67" class="edge"><title>s17&#45;&gt;s18</title>
<path fill="none" stroke="#aaaaaa" d="M306.25,-284.34C306.68,-295.94 308.62,-311.21 311.21,-324.26"/>
<polygon fill="#aaaaaa" stroke="#aaaaaa" points="307.817,-325.126 313.4,-334.13 314.651,-323.609 307.817,-325.126"/>
<text text-anchor="middle" x="299.73" y="-308.1" font-family="Times,serif" font-size="14.00">0.0</text>
</g>
<!-- s22 -->
<g id="22" class="node"><title>s22</title>
<ellipse fill="none" stroke="black" cx="394.39" cy="-255.14" rx="27" ry="18"/>
<text text-anchor="middle" x="394.39" y="-251.44" font-family="Times,serif" font-size="14.00">s22</text>
</g>
<!-- s17&#45;&gt;s22 -->
<g id="edge68" class="edge"><title>s17&#45;&gt;s22</title>
<path fill="none" stroke="#d9ef8b" d="M336.07,-269.13C343.97,-268.57 352.72,-267.54 360.98,-266.22"/>
<polygon fill="#d9ef8b" stroke="#d9ef8b" points="361.854,-269.619 371.08,-264.41 360.619,-262.729 361.854,-269.619"/>
<text text-anchor="middle" x="354.77" y="-256.48" font-family="Times,serif" font-size="14.00">0.29</text>
</g>
<!-- s14&#45;&gt;s9 -->
<g id="edge51" class="edge"><title>s14&#45;&gt;s9</title>
<path fill="none" stroke="#fee08b" d="M227.27,-449.86C215.54,-449.91 201.59,-450.75 189.06,-452.11"/>
<polygon fill="#fee08b" stroke="#fee08b" points="188.431,-448.661 178.94,-453.37 189.296,-455.608 188.431,-448.661"/>
<text text-anchor="middle" x="195.67" y="-454.78" font-family="Times,serif" font-size="14.00">0.59</text>
</g>
<!-- s14&#45;&gt;s13 -->
<g id="edge52" class="edge"><title>s14&#45;&gt;s13</title>
<path fill="none" stroke="#d9ef8b" d="M255.39,-435.7C254.04,-423.62 250.79,-407.61 247.08,-394.11"/>
<polygon fill="#d9ef8b" stroke="#d9ef8b" points="250.389,-392.958 244.17,-384.38 243.682,-394.964 250.389,-392.958"/>
<text text-anchor="middle" x="263.73" y="-418.71" font-family="Times,serif" font-size="14.00">0.29</text>
</g>
<!-- h4 -->
<g id="node24" class="node"><title>h4</title>
<ellipse fill="none" stroke="black" cx="265.24" cy="-535.37" rx="27" ry="18"/>
<text text-anchor="middle" x="265.24" y="-531.67" font-family="Times,serif" font-size="14.00">h4</text>
</g>
<!-- s14&#45;&gt;h4 -->
<g id="edge53" class="edge"><title>s14&#45;&gt;h4</title>
<path fill="none" stroke="#91cf60" d="M250.64,-472.06C251,-482.68 252.64,-496.31 254.9,-508.21"/>
<polygon fill="#91cf60" stroke="#91cf60" points="251.501,-509.052 257.03,-518.09 258.344,-507.577 251.501,-509.052"/>
<text text-anchor="middle" x="243.77" y="-493.93" font-family="Times,serif" font-size="14.00">0.0</text>
</g>
<!-- s19 -->
<g id="19" class="node"><title>s19</title>
<ellipse fill="none" stroke="black" cx="339.4" cy="-433.53" rx="27" ry="18"/>
<text text-anchor="middle" x="339.4" y="-429.83" font-family="Times,serif" font-size="14.00">s19</text>
</g>
<!-- s14&#45;&gt;s19 -->
<g id="edge54" class="edge"><title>s14&#45;&gt;s19</title>
<path fill="none" stroke="#aaaaaa" d="M280.94,-453.95C289.65,-452.41 299.36,-450.2 308.33,-447.73"/>
<polygon fill="#aaaaaa" stroke="#aaaaaa" points="309.456,-451.047 318.05,-444.85 307.468,-444.335 309.456,-451.047"/>
<text text-anchor="middle" x="303.63" y="-454.64" font-family="Times,serif" font-size="14.00">0.0</text>
</g>
<!-- h3&#45;&gt;s13 -->
<g id="edge69" class="edge"><title>h3&#45;&gt;s13</title>
<path fill="none" stroke="#91cf60" d="M225.89,-418.81C228.68,-411.69 231.35,-403.19 233.34,-395.15"/>
<polygon fill="#91cf60" stroke="#91cf60" points="236.762,-395.885 235.46,-385.37 229.921,-394.402 236.762,-395.885"/>
<text text-anchor="middle" x="242.11" y="-410.78" font-family="Times,serif" font-size="14.00">0.01</text>
</g>
<!-- s18&#45;&gt;s13 -->
<g id="edge70" class="edge"><title>s18&#45;&gt;s13</title>
<path fill="none" stroke="#d9ef8b" d="M294.38,-350.02C285.64,-351.08 275.86,-352.76 266.8,-354.72"/>
<polygon fill="#d9ef8b" stroke="#d9ef8b" points="265.876,-351.342 256.95,-357.05 267.487,-358.154 265.876,-351.342"/>
<text text-anchor="middle" x="280.59" y="-341.17" font-family="Times,serif" font-size="14.00">0.29</text>
</g>
<!-- s18&#45;&gt;s17 -->
<g id="edge71" class="edge"><title>s18&#45;&gt;s17</title>
<path fill="none" stroke="#aaaaaa" d="M324.59,-333.38C324.16,-321.78 322.22,-306.5 319.64,-293.46"/>
<polygon fill="#aaaaaa" stroke="#aaaaaa" points="323.033,-292.594 317.45,-283.59 316.199,-294.111 323.033,-292.594"/>
<text text-anchor="middle" x="331.12" y="-317.22" font-family="Times,serif" font-size="14.00">0.0</text>
</g>
<!-- s18&#45;&gt;s19 -->
<g id="edge72" class="edge"><title>s18&#45;&gt;s19</title>
<path fill="none" stroke="#aaaaaa" d="M319.83,-369.59C321,-380.56 323.78,-394.71 327.05,-406.92"/>
<polygon fill="#aaaaaa" stroke="#aaaaaa" points="323.716,-407.99 329.89,-416.6 330.433,-406.019 323.716,-407.99"/>
<text text-anchor="middle" x="314.44" y="-392.05" font-family="Times,serif" font-size="14.00">0.0</text>
</g>
<!-- s23 -->
<g id="23" class="node"><title>s23</title>
<ellipse fill="none" stroke="black" cx="406.46" cy="-338.4" rx="27" ry="18"/>
<text text-anchor="middle" x="406.46" y="-334.7" font-family="Times,serif" font-size="14.00">s23</text>
</g>
<!-- s18&#45;&gt;s23 -->
<g id="edge73" class="edge"><title>s18&#45;&gt;s23</title>
<path fill="none" stroke="#aaaaaa" d="M348.47,-353.62C356.52,-352.88 365.42,-351.63 373.8,-350.1"/>
<polygon fill="#aaaaaa" stroke="#aaaaaa" points="374.552,-353.519 383.65,-348.09 373.152,-346.66 374.552,-353.519"/>
<text text-anchor="middle" x="370.13" y="-355.66" font-family="Times,serif" font-size="14.00">0.0</text>
</g>
<!-- h4&#45;&gt;s14 -->
<g id="edge74" class="edge"><title>h4&#45;&gt;s14</title>
<path fill="none" stroke="#91cf60" d="M268.4,-517.33C268.04,-506.72 266.4,-493.08 264.14,-481.18"/>
<polygon fill="#91cf60" stroke="#91cf60" points="267.539,-480.338 262.01,-471.3 260.696,-481.813 267.539,-480.338"/>
<text text-anchor="middle" x="275.27" y="-503.06" font-family="Times,serif" font-size="14.00">0.0</text>
</g>
<!-- s19&#45;&gt;s14 -->
<g id="edge75" class="edge"><title>s19&#45;&gt;s14</title>
<path fill="none" stroke="#aaaaaa" d="M312.26,-433.6C303.55,-435.14 293.84,-437.35 284.87,-439.82"/>
<polygon fill="#aaaaaa" stroke="#aaaaaa" points="283.75,-436.501 275.15,-442.69 285.732,-443.215 283.75,-436.501"/>
<text text-anchor="middle" x="289.57" y="-425.51" font-family="Times,serif" font-size="14.00">0.0</text>
</g>
<!-- s19&#45;&gt;s18 -->
<g id="edge76" class="edge"><title>s19&#45;&gt;s18</title>
<path fill="none" stroke="#aaaaaa" d="M341.18,-415.32C340,-404.35 337.23,-390.2 333.95,-378"/>
<polygon fill="#aaaaaa" stroke="#aaaaaa" points="337.283,-376.928 331.12,-368.31 330.564,-378.89 337.283,-376.928"/>
<text text-anchor="middle" x="346.57" y="-400.46" font-family="Times,serif" font-size="14.00">0.0</text>
</g>
<!-- s24 -->
<g id="24" class="node"><title>s24</title>
<ellipse fill="none" stroke="black" cx="421.89" cy="-419.42" rx="27" ry="18"/>
<text text-anchor="middle" x="421.89" y="-415.72" font-family="Times,serif" font-size="14.00">s24</text>
</g>
<!-- s19&#45;&gt;s24 -->
<g id="edge77" class="edge"><title>s19&#45;&gt;s24</title>
<path fill="none" stroke="#aaaaaa" d="M366.57,-435.3C373.91,-434.48 381.92,-433.21 389.51,-431.7"/>
<polygon fill="#aaaaaa" stroke="#aaaaaa" points="390.501,-435.066 399.51,-429.49 388.99,-428.23 390.501,-435.066"/>
<text text-anchor="middle" x="382.54" y="-422.3" font-family="Times,serif" font-size="14.00">0.0</text>
</g>
<!-- s20&#45;&gt;s15 -->
<g id="edge78" class="edge"><title>s20&#45;&gt;s15</title>
<path fill="none" stroke="#aaaaaa" d="M352.29,-85.482C345.04,-85.751 337.08,-86.4 329.48,-87.328"/>
<polygon fill="#aaaaaa" stroke="#aaaaaa" points="328.839,-83.8838 319.43,-88.754 329.823,-90.8144 328.839,-83.8838"/>
<text text-anchor="middle" x="331.89" y="-75.205" font-family="Times,serif" font-size="14.00">0.0</text>
</g>
<!-- s20&#45;&gt;s21 -->
<g id="edge79" class="edge"><title>s20&#45;&gt;s21</title>
<path fill="none" stroke="#aaaaaa" d="M374.38,-107.11C374.01,-117.85 374.74,-131.74 376.21,-143.88"/>
<polygon fill="#aaaaaa" stroke="#aaaaaa" points="372.774,-144.575 377.69,-153.96 379.7,-143.558 372.774,-144.575"/>
<text text-anchor="middle" x="366.29" y="-129.29" font-family="Times,serif" font-size="14.00">0.0</text>
</g>
<!-- s21&#45;&gt;s16 -->
<g id="edge80" class="edge"><title>s21&#45;&gt;s16</title>
<path fill="none" stroke="#aaaaaa" d="M357.89,-168.28C350.05,-168.69 341.37,-169.55 333.15,-170.71"/>
<polygon fill="#aaaaaa" stroke="#aaaaaa" points="332.406,-167.285 323.09,-172.33 333.519,-174.196 332.406,-167.285"/>
<text text-anchor="middle" x="336.52" y="-158.29" font-family="Times,serif" font-size="14.00">0.0</text>
</g>
<!-- s21&#45;&gt;s20 -->
<g id="edge81" class="edge"><title>s21&#45;&gt;s20</title>
<path fill="none" stroke="#aaaaaa" d="M389.03,-153.7C389.39,-142.96 388.66,-129.07 387.19,-116.93"/>
<polygon fill="#aaaaaa" stroke="#aaaaaa" points="390.625,-116.231 385.72,-106.84 383.698,-117.24 390.625,-116.231"/>
<text text-anchor="middle" x="397.11" y="-139.11" font-family="Times,serif" font-size="14.00">0.0</text>
</g>
<!-- s21&#45;&gt;s22 -->
<g id="edge82" class="edge"><title>s21&#45;&gt;s22</title>
<path fill="none" stroke="#aaaaaa" d="M381.12,-189.52C381.22,-200.64 382.63,-215.14 384.73,-227.68"/>
<polygon fill="#aaaaaa" stroke="#aaaaaa" points="381.316,-228.464 386.63,-237.63 388.192,-227.151 381.316,-228.464"/>
<text text-anchor="middle" x="373.92" y="-212.4" font-family="Times,serif" font-size="14.00">0.0</text>
</g>
<!-- s22&#45;&gt;s17 -->
<g id="edge83" class="edge"><title>s22&#45;&gt;s17</title>
<path fill="none" stroke="#aaaaaa" d="M367.56,-252.34C359.66,-252.9 350.92,-253.93 342.66,-255.25"/>
<polygon fill="#aaaaaa" stroke="#aaaaaa" points="341.772,-251.854 332.55,-257.07 343.012,-258.743 341.772,-251.854"/>
<text text-anchor="middle" x="346.11" y="-242.59" font-family="Times,serif" font-size="14.00">0.0</text>
</g>
<!-- s22&#45;&gt;s21 -->
<g id="edge84" class="edge"><title>s22&#45;&gt;s21</title>
<path fill="none" stroke="#aaaaaa" d="M397.93,-237.17C397.83,-226.05 396.42,-211.56 394.32,-199.02"/>
<polygon fill="#aaaaaa" stroke="#aaaaaa" points="397.732,-198.227 392.42,-189.06 390.856,-199.539 397.732,-198.227"/>
<text text-anchor="middle" x="405.13" y="-221.89" font-family="Times,serif" font-size="14.00">0.0</text>
</g>
<!-- s22&#45;&gt;s23 -->
<g id="edge85" class="edge"><title>s22&#45;&gt;s23</title>
<path fill="none" stroke="#d9ef8b" d="M391.36,-273.19C391.77,-284.3 393.59,-298.75 396.03,-311.22"/>
<polygon fill="#d9ef8b" stroke="#d9ef8b" points="392.641,-312.107 398.21,-321.12 399.478,-310.601 392.641,-312.107"/>
<text text-anchor="middle" x="381.19" y="-296.01" font-family="Times,serif" font-size="14.00">0.29</text>
</g>
<!-- s23&#45;&gt;s18 -->
<g id="edge86" class="edge"><title>s23&#45;&gt;s18</title>
<path fill="none" stroke="#d9ef8b" d="M379.59,-336.16C371.55,-336.91 362.64,-338.15 354.27,-339.69"/>
<polygon fill="#d9ef8b" stroke="#d9ef8b" points="353.524,-336.27 344.42,-341.69 354.917,-343.13 353.524,-336.27"/>
<text text-anchor="middle" x="366.93" y="-326.73" font-family="Times,serif" font-size="14.00">0.29</text>
</g>
<!-- s23&#45;&gt;s22 -->
<g id="edge87" class="edge"><title>s23&#45;&gt;s22</title>
<path fill="none" stroke="#aaaaaa" d="M409.49,-320.35C409.08,-309.24 407.26,-294.79 404.82,-282.31"/>
<polygon fill="#aaaaaa" stroke="#aaaaaa" points="408.211,-281.432 402.64,-272.42 401.375,-282.939 408.211,-281.432"/>
<text text-anchor="middle" x="416.16" y="-305.13" font-family="Times,serif" font-size="14.00">0.0</text>
</g>
<!-- s23&#45;&gt;s24 -->
<g id="edge88" class="edge"><title>s23&#45;&gt;s24</title>
<path fill="none" stroke="#aaaaaa" d="M404.19,-356.64C405.06,-367.19 407.35,-380.67 410.17,-392.43"/>
<polygon fill="#aaaaaa" stroke="#aaaaaa" points="406.815,-393.434 412.75,-402.21 413.583,-391.648 406.815,-393.434"/>
<text text-anchor="middle" x="398.18" y="-378.34" font-family="Times,serif" font-size="14.00">0.0</text>
</g>
<!-- s24&#45;&gt;s19 -->
<g id="edge89" class="edge"><title>s24&#45;&gt;s19</title>
<path fill="none" stroke="#aaaaaa" d="M394.72,-417.65C387.38,-418.47 379.37,-419.74 371.77,-421.25"/>
<polygon fill="#aaaaaa" stroke="#aaaaaa" points="370.788,-417.883 361.78,-423.46 372.3,-424.717 370.788,-417.883"/>
<text text-anchor="middle" x="378.75" y="-408.25" font-family="Times,serif" font-size="14.00">0.0</text>
</g>
<!-- s24&#45;&gt;s23 -->
<g id="edge90" class="edge"><title>s24&#45;&gt;s23</title>
<path fill="none" stroke="#aaaaaa" d="M424.15,-401.18C423.28,-390.63 420.99,-377.15 418.18,-365.39"/>
<polygon fill="#aaaaaa" stroke="#aaaaaa" points="421.533,-364.381 415.59,-355.61 414.767,-366.173 421.533,-364.381"/>
<text text-anchor="middle" x="430.16" y="-387.09" font-family="Times,serif" font-size="14.00">0.0</text>
</g>
</g>
</svg>
