<?xml version="1.0" encoding="UTF-8" standalone="no"?>
<!DOCTYPE svg PUBLIC "-//W3C//DTD SVG 1.1//EN"
 "http://www.w3.org/Graphics/SVG/1.1/DTD/svg11.dtd">
<!-- Generated by graphviz version 2.36.0 (20140111.2315)
 -->
<!-- Title: grid5h1 Pages: 1 -->
<svg width="458pt" height="561pt"
 viewBox="0.00 0.00 457.83 561.37" xmlns="http://www.w3.org/2000/svg" xmlns:xlink="http://www.w3.org/1999/xlink">
<g id="graph0" class="graph" transform="scale(1 1) rotate(0) translate(4 557.37)">
<title>grid5h1</title>
<polygon fill="white" stroke="none" points="-4,4 -4,-557.37 453.83,-557.37 453.83,4 -4,4"/>
<!-- s0 -->
<g id="0" class="node"><title>s0</title>
<ellipse fill="none" stroke="black" cx="27.94" cy="-127.97" rx="27" ry="18"/>
<text text-anchor="middle" x="27.94" y="-124.27" font-family="Times,serif" font-size="14.00">s0</text>
</g>
<!-- s1 -->
<g id="1" class="node"><title>s1</title>
<ellipse fill="none" stroke="black" cx="34.907" cy="-212.25" rx="27" ry="18"/>
<text text-anchor="middle" x="34.907" y="-208.55" font-family="Times,serif" font-size="14.00">s1</text>
</g>
<!-- s0&#45;&gt;s1 -->
<g id="edge1" class="edge"><title>s0&#45;&gt;s1</title>
<path fill="none" stroke="#91cf60" d="M23.81,-145.89C23.546,-157.14 24.49,-171.87 26.19,-184.59"/>
<polygon fill="#91cf60" stroke="#91cf60" points="22.7679,-185.358 27.785,-194.69 29.6822,-184.266 22.7679,-185.358"/>
<text text-anchor="middle" x="12.5" y="-169.04" font-family="Times,serif" font-size="14.00">0.14</text>
</g>
<!-- s5 -->
<g id="5" class="node"><title>s5</title>
<ellipse fill="none" stroke="black" cx="112.34" cy="-115.43" rx="27" ry="18"/>
<text text-anchor="middle" x="112.34" y="-111.73" font-family="Times,serif" font-size="14.00">s5</text>
</g>
<!-- s0&#45;&gt;s5 -->
<g id="edge2" class="edge"><title>s0&#45;&gt;s5</title>
<path fill="none" stroke="#91cf60" d="M55.107,-130.3C62.863,-129.61 71.397,-128.45 79.455,-127.02"/>
<polygon fill="#91cf60" stroke="#91cf60" points="80.1814,-130.444 89.312,-125.07 78.8229,-123.577 80.1814,-130.444"/>
<text text-anchor="middle" x="73.531" y="-117.46" font-family="Times,serif" font-size="14.00">0.22</text>
</g>
<!-- s1&#45;&gt;s0 -->
<g id="edge3" class="edge"><title>s1&#45;&gt;s0</title>
<path fill="none" stroke="#91cf60" d="M39.037,-194.32C39.302,-183.07 38.357,-168.34 36.658,-155.62"/>
<polygon fill="#91cf60" stroke="#91cf60" points="40.08,-154.851 35.062,-145.52 33.1658,-155.944 40.08,-154.851"/>
<text text-anchor="middle" x="50.347" y="-178.77" font-family="Times,serif" font-size="14.00">0.18</text>
</g>
<!-- s2 -->
<g id="2" class="node"><title>s2</title>
<ellipse fill="none" stroke="black" cx="43.253" cy="-298.53" rx="27" ry="18"/>
<text text-anchor="middle" x="43.253" y="-294.83" font-family="Times,serif" font-size="14.00">s2</text>
</g>
<!-- s1&#45;&gt;s2 -->
<g id="edge4" class="edge"><title>s1&#45;&gt;s2</title>
<path fill="none" stroke="#d9ef8b" d="M31.073,-230.24C30.958,-242.02 32.192,-257.64 34.181,-270.96"/>
<polygon fill="#d9ef8b" stroke="#d9ef8b" points="30.7715,-271.784 35.927,-281.04 37.6688,-270.589 30.7715,-271.784"/>
<text text-anchor="middle" x="20.127" y="-254.4" font-family="Times,serif" font-size="14.00">0.33</text>
</g>
<!-- s6 -->
<g id="6" class="node"><title>s6</title>
<ellipse fill="none" stroke="black" cx="120.78" cy="-201.79" rx="27" ry="18"/>
<text text-anchor="middle" x="120.78" y="-198.09" font-family="Times,serif" font-size="14.00">s6</text>
</g>
<!-- s1&#45;&gt;s6 -->
<g id="edge5" class="edge"><title>s1&#45;&gt;s6</title>
<path fill="none" stroke="#d9ef8b" d="M61.895,-215.28C69.948,-214.78 78.873,-213.81 87.288,-212.54"/>
<polygon fill="#d9ef8b" stroke="#d9ef8b" points="87.9319,-215.981 97.207,-210.86 86.7629,-209.079 87.9319,-215.981"/>
<text text-anchor="middle" x="80.842" y="-202.71" font-family="Times,serif" font-size="14.00">0.33</text>
</g>
<!-- s5&#45;&gt;s0 -->
<g id="edge6" class="edge"><title>s5&#45;&gt;s0</title>
<path fill="none" stroke="#91cf60" d="M85.17,-113.09C77.414,-113.79 68.88,-114.94 60.822,-116.38"/>
<polygon fill="#91cf60" stroke="#91cf60" points="60.1009,-112.955 50.965,-118.32 61.4527,-119.823 60.1009,-112.955"/>
<text text-anchor="middle" x="72.996" y="-103.54" font-family="Times,serif" font-size="14.00">0.22</text>
</g>
<!-- s5&#45;&gt;s6 -->
<g id="edge7" class="edge"><title>s5&#45;&gt;s6</title>
<path fill="none" stroke="#d9ef8b" d="M108.52,-133.45C108.42,-145.23 109.67,-160.86 111.67,-174.2"/>
<polygon fill="#d9ef8b" stroke="#d9ef8b" points="108.264,-175.04 113.43,-184.29 115.16,-173.837 108.264,-175.04"/>
<text text-anchor="middle" x="97.599" y="-157.62" font-family="Times,serif" font-size="14.00">0.37</text>
</g>
<!-- s10 -->
<g id="10" class="node"><title>s10</title>
<ellipse fill="none" stroke="black" cx="208.88" cy="-99.498" rx="27" ry="18"/>
<text text-anchor="middle" x="208.88" y="-95.798" font-family="Times,serif" font-size="14.00">s10</text>
</g>
<!-- s5&#45;&gt;s10 -->
<g id="edge8" class="edge"><title>s5&#45;&gt;s10</title>
<path fill="none" stroke="#d9ef8b" d="M139.45,-117.11C150.8,-115.98 164.09,-113.93 175.99,-111.49"/>
<polygon fill="#d9ef8b" stroke="#d9ef8b" points="177.004,-114.85 186.01,-109.27 175.49,-108.016 177.004,-114.85"/>
<text text-anchor="middle" x="151.47" y="-103.1" font-family="Times,serif" font-size="14.00">0.44</text>
</g>
<!-- s2&#45;&gt;s1 -->
<g id="edge9" class="edge"><title>s2&#45;&gt;s1</title>
<path fill="none" stroke="#91cf60" d="M47.087,-280.54C47.201,-268.76 45.968,-253.14 43.979,-239.82"/>
<polygon fill="#91cf60" stroke="#91cf60" points="47.3885,-238.996 42.233,-229.74 40.4912,-240.191 47.3885,-238.996"/>
<text text-anchor="middle" x="58.033" y="-263.98" font-family="Times,serif" font-size="14.00">0.14</text>
</g>
<!-- s3 -->
<g id="3" class="node"><title>s3</title>
<ellipse fill="none" stroke="black" cx="55.985" cy="-384.75" rx="27" ry="18"/>
<text text-anchor="middle" x="55.985" y="-381.05" font-family="Times,serif" font-size="14.00">s3</text>
</g>
<!-- s2&#45;&gt;s3 -->
<g id="edge10" class="edge"><title>s2&#45;&gt;s3</title>
<path fill="none" stroke="#d9ef8b" d="M40.34,-316.79C40.826,-328.62 42.853,-344.24 45.519,-357.52"/>
<polygon fill="#d9ef8b" stroke="#d9ef8b" points="42.166,-358.562 47.776,-367.55 48.9952,-357.026 42.166,-358.562"/>
<text text-anchor="middle" x="33.93" y="-340.96" font-family="Times,serif" font-size="14.00">0.4</text>
</g>
<!-- s7 -->
<g id="7" class="node"><title>s7</title>
<ellipse fill="none" stroke="black" cx="128.23" cy="-287.04" rx="27" ry="18"/>
<text text-anchor="middle" x="128.23" y="-283.34" font-family="Times,serif" font-size="14.00">s7</text>
</g>
<!-- s2&#45;&gt;s7 -->
<g id="edge11" class="edge"><title>s2&#45;&gt;s7</title>
<path fill="none" stroke="#d9ef8b" d="M70.053,-301.24C77.941,-300.65 86.669,-299.59 94.913,-298.24"/>
<polygon fill="#d9ef8b" stroke="#d9ef8b" points="95.7955,-301.637 105,-296.39 94.5326,-294.751 95.7955,-301.637"/>
<text text-anchor="middle" x="88.733" y="-288.54" font-family="Times,serif" font-size="14.00">0.37</text>
</g>
<!-- s6&#45;&gt;s1 -->
<g id="edge12" class="edge"><title>s6&#45;&gt;s1</title>
<path fill="none" stroke="#fee08b" d="M93.788,-198.76C85.736,-199.26 76.811,-200.22 68.396,-201.49"/>
<polygon fill="#fee08b" stroke="#fee08b" points="67.7461,-198.05 58.476,-203.18 68.9218,-204.951 67.7461,-198.05"/>
<text text-anchor="middle" x="74.842" y="-188.93" font-family="Times,serif" font-size="14.00">0.52</text>
</g>
<!-- s6&#45;&gt;s5 -->
<g id="edge13" class="edge"><title>s6&#45;&gt;s5</title>
<path fill="none" stroke="#d9ef8b" d="M124.59,-183.78C124.69,-171.99 123.44,-156.36 121.44,-143.02"/>
<polygon fill="#d9ef8b" stroke="#d9ef8b" points="124.846,-142.18 119.68,-132.93 117.95,-143.383 124.846,-142.18"/>
<text text-anchor="middle" x="135.52" y="-167.2" font-family="Times,serif" font-size="14.00">0.48</text>
</g>
<!-- s6&#45;&gt;s7 -->
<g id="edge14" class="edge"><title>s6&#45;&gt;s7</title>
<path fill="none" stroke="#fc8d59" d="M116.75,-219.94C116.55,-231.4 117.6,-246.43 119.39,-259.35"/>
<polygon fill="#fc8d59" stroke="#fc8d59" points="115.999,-260.298 121.07,-269.6 122.906,-259.166 115.999,-260.298"/>
<text text-anchor="middle" x="105.57" y="-243.45" font-family="Times,serif" font-size="14.00">0.85</text>
</g>
<!-- s11 -->
<g id="11" class="node"><title>s11</title>
<ellipse fill="none" stroke="black" cx="212.2" cy="-189.24" rx="27" ry="18"/>
<text text-anchor="middle" x="212.2" y="-185.54" font-family="Times,serif" font-size="14.00">s11</text>
</g>
<!-- s6&#45;&gt;s11 -->
<g id="edge15" class="edge"><title>s6&#45;&gt;s11</title>
<path fill="none" stroke="#fc8d59" d="M147.57,-204.33C157.39,-203.61 168.63,-202.2 178.95,-200.42"/>
<polygon fill="#fc8d59" stroke="#fc8d59" points="179.711,-203.838 188.88,-198.53 178.402,-196.962 179.711,-203.838"/>
<text text-anchor="middle" x="169.51" y="-191.17" font-family="Times,serif" font-size="14.00">0.89</text>
</g>
<!-- s10&#45;&gt;s5 -->
<g id="edge16" class="edge"><title>s10&#45;&gt;s5</title>
<path fill="none" stroke="#d9ef8b" d="M181.76,-97.816C170.41,-98.943 157.12,-101 145.22,-103.44"/>
<polygon fill="#d9ef8b" stroke="#d9ef8b" points="144.215,-100.078 135.21,-105.66 145.731,-106.912 144.215,-100.078"/>
<text text-anchor="middle" x="172.49" y="-89.426" font-family="Times,serif" font-size="14.00">0.4</text>
</g>
<!-- s10&#45;&gt;s11 -->
<g id="edge17" class="edge"><title>s10&#45;&gt;s11</title>
<path fill="none" stroke="#cb181d" d="M204.03,-117.43C203.18,-129.94 203.53,-146.87 204.83,-161.15"/>
<polygon fill="#cb181d" stroke="#cb181d" points="201.393,-161.899 206,-171.44 208.348,-161.109 201.393,-161.899"/>
<text text-anchor="middle" x="216.93" y="-128.09" font-family="Times,serif" font-size="14.00">1.04</text>
</g>
<!-- h0 -->
<g id="node10" class="node"><title>h0</title>
<ellipse fill="none" stroke="black" cx="200.26" cy="-18" rx="27" ry="18"/>
<text text-anchor="middle" x="200.26" y="-14.3" font-family="Times,serif" font-size="14.00">h0</text>
</g>
<!-- s10&#45;&gt;h0 -->
<g id="edge18" class="edge"><title>s10&#45;&gt;h0</title>
<path fill="none" stroke="#91cf60" d="M212.65,-81.622C212.67,-71.023 211.5,-57.373 209.65,-45.435"/>
<polygon fill="#91cf60" stroke="#91cf60" points="213.078,-44.7245 207.86,-35.504 206.189,-45.9663 213.078,-44.7245"/>
<text text-anchor="middle" x="202.15" y="-67.328" font-family="Times,serif" font-size="14.00">0.0</text>
</g>
<!-- s15 -->
<g id="15" class="node"><title>s15</title>
<ellipse fill="none" stroke="black" cx="296.56" cy="-97.3" rx="27" ry="18"/>
<text text-anchor="middle" x="296.56" y="-93.6" font-family="Times,serif" font-size="14.00">s15</text>
</g>
<!-- s10&#45;&gt;s15 -->
<g id="edge19" class="edge"><title>s10&#45;&gt;s15</title>
<path fill="none" stroke="#d9ef8b" d="M234.87,-105.06C243.16,-105.38 252.48,-105.28 261.31,-104.82"/>
<polygon fill="#d9ef8b" stroke="#d9ef8b" points="261.637,-108.306 271.37,-104.12 261.151,-101.323 261.637,-108.306"/>
<text text-anchor="middle" x="254.34" y="-93.744" font-family="Times,serif" font-size="14.00">0.37</text>
</g>
<!-- s3&#45;&gt;s2 -->
<g id="edge20" class="edge"><title>s3&#45;&gt;s2</title>
<path fill="none" stroke="#d9ef8b" d="M58.897,-366.49C58.412,-354.66 56.384,-339.04 53.719,-325.76"/>
<polygon fill="#d9ef8b" stroke="#d9ef8b" points="57.0719,-324.717 51.461,-315.73 50.2428,-326.255 57.0719,-324.717"/>
<text text-anchor="middle" x="68.808" y="-349.93" font-family="Times,serif" font-size="14.00">0.26</text>
</g>
<!-- s4 -->
<g id="4" class="node"><title>s4</title>
<ellipse fill="none" stroke="black" cx="69.887" cy="-468.45" rx="27" ry="18"/>
<text text-anchor="middle" x="69.887" y="-464.75" font-family="Times,serif" font-size="14.00">s4</text>
</g>
<!-- s3&#45;&gt;s4 -->
<g id="edge21" class="edge"><title>s3&#45;&gt;s4</title>
<path fill="none" stroke="#d9ef8b" d="M53.348,-403.01C54.009,-414.2 56.142,-428.73 58.86,-441.26"/>
<polygon fill="#d9ef8b" stroke="#d9ef8b" points="55.5088,-442.293 61.261,-451.19 62.3127,-440.647 55.5088,-442.293"/>
<text text-anchor="middle" x="43.604" y="-425.93" font-family="Times,serif" font-size="14.00">0.29</text>
</g>
<!-- s8 -->
<g id="8" class="node"><title>s8</title>
<ellipse fill="none" stroke="black" cx="142.01" cy="-375.23" rx="27" ry="18"/>
<text text-anchor="middle" x="142.01" y="-371.53" font-family="Times,serif" font-size="14.00">s8</text>
</g>
<!-- s3&#45;&gt;s8 -->
<g id="edge22" class="edge"><title>s3&#45;&gt;s8</title>
<path fill="none" stroke="#d9ef8b" d="M82.953,-388.08C91.015,-387.67 99.954,-386.8 108.39,-385.62"/>
<polygon fill="#d9ef8b" stroke="#d9ef8b" points="109.003,-389.067 118.33,-384.04 107.905,-382.153 109.003,-389.067"/>
<text text-anchor="middle" x="101.92" y="-375.65" font-family="Times,serif" font-size="14.00">0.37</text>
</g>
<!-- s7&#45;&gt;s2 -->
<g id="edge23" class="edge"><title>s7&#45;&gt;s2</title>
<path fill="none" stroke="#d9ef8b" d="M101.43,-284.33C93.546,-284.92 84.819,-285.98 76.575,-287.33"/>
<polygon fill="#d9ef8b" stroke="#d9ef8b" points="75.6943,-283.933 66.49,-289.18 76.9574,-290.818 75.6943,-283.933"/>
<text text-anchor="middle" x="80.005" y="-274.63" font-family="Times,serif" font-size="14.00">0.4</text>
</g>
<!-- s7&#45;&gt;s6 -->
<g id="edge24" class="edge"><title>s7&#45;&gt;s6</title>
<path fill="none" stroke="#fc8d59" d="M132.26,-268.89C132.46,-257.43 131.42,-242.4 129.62,-229.48"/>
<polygon fill="#fc8d59" stroke="#fc8d59" points="133.014,-228.546 127.95,-219.24 126.105,-229.673 133.014,-228.546"/>
<text text-anchor="middle" x="143.44" y="-252.98" font-family="Times,serif" font-size="14.00">0.78</text>
</g>
<!-- s7&#45;&gt;s8 -->
<g id="edge25" class="edge"><title>s7&#45;&gt;s8</title>
<path fill="none" stroke="#fee08b" d="M125.52,-305.31C126.13,-317.68 128.43,-334.21 131.36,-348.1"/>
<polygon fill="#fee08b" stroke="#fee08b" points="128.014,-349.161 133.7,-358.1 134.829,-347.566 128.014,-349.161"/>
<text text-anchor="middle" x="115.94" y="-330.51" font-family="Times,serif" font-size="14.00">0.67</text>
</g>
<!-- s12 -->
<g id="12" class="node"><title>s12</title>
<ellipse fill="none" stroke="black" cx="225.03" cy="-275.76" rx="27" ry="18"/>
<text text-anchor="middle" x="225.03" y="-272.06" font-family="Times,serif" font-size="14.00">s12</text>
</g>
<!-- s7&#45;&gt;s12 -->
<g id="edge26" class="edge"><title>s7&#45;&gt;s12</title>
<path fill="none" stroke="#fc8d59" d="M154.88,-290.03C166.14,-289.47 179.38,-288.07 191.31,-286.23"/>
<polygon fill="#fc8d59" stroke="#fc8d59" points="192.108,-289.644 201.37,-284.5 190.921,-282.746 192.108,-289.644"/>
<text text-anchor="middle" x="185.59" y="-276.93" font-family="Times,serif" font-size="14.00">0.81</text>
</g>
<!-- s11&#45;&gt;s6 -->
<g id="edge27" class="edge"><title>s11&#45;&gt;s6</title>
<path fill="none" stroke="#cb181d" d="M185.41,-186.7C175.58,-187.42 164.34,-188.83 154.02,-190.61"/>
<polygon fill="#cb181d" stroke="#cb181d" points="153.259,-187.192 144.09,-192.5 154.568,-194.068 153.259,-187.192"/>
<text text-anchor="middle" x="163.47" y="-177.46" font-family="Times,serif" font-size="14.00">1.08</text>
</g>
<!-- s11&#45;&gt;s10 -->
<g id="edge28" class="edge"><title>s11&#45;&gt;s10</title>
<path fill="none" stroke="#cb181d" d="M217.04,-171.31C217.9,-158.8 217.54,-141.87 216.25,-127.58"/>
<polygon fill="#cb181d" stroke="#cb181d" points="219.687,-126.826 215.07,-117.29 212.732,-127.624 219.687,-126.826"/>
<text text-anchor="middle" x="229.14" y="-153.24" font-family="Times,serif" font-size="14.00">1.08</text>
</g>
<!-- s11&#45;&gt;s12 -->
<g id="edge29" class="edge"><title>s11&#45;&gt;s12</title>
<path fill="none" stroke="#cb181d" d="M209.29,-207.14C209.76,-218.98 211.79,-234.75 214.48,-248.18"/>
<polygon fill="#cb181d" stroke="#cb181d" points="211.153,-249.34 216.76,-258.33 217.983,-247.806 211.153,-249.34"/>
<text text-anchor="middle" x="199.39" y="-231.46" font-family="Times,serif" font-size="14.00">1.89</text>
</g>
<!-- h1 -->
<g id="node15" class="node"><title>h1</title>
<ellipse fill="none" stroke="black" cx="177.14" cy="-130.63" rx="27" ry="18"/>
<text text-anchor="middle" x="177.14" y="-126.93" font-family="Times,serif" font-size="14.00">h1</text>
</g>
<!-- s11&#45;&gt;h1 -->
<g id="edge30" class="edge"><title>s11&#45;&gt;h1</title>
<path fill="none" stroke="#91cf60" d="M208.46,-171.39C205.9,-165.91 202.56,-159.81 198.98,-154.03"/>
<polygon fill="#91cf60" stroke="#91cf60" points="201.673,-151.756 193.25,-145.33 195.827,-155.607 201.673,-151.756"/>
<text text-anchor="middle" x="203.72" y="-151.51" font-family="Times,serif" font-size="14.00">0.01</text>
</g>
<!-- s16 -->
<g id="16" class="node"><title>s16</title>
<ellipse fill="none" stroke="black" cx="300.28" cy="-181.23" rx="27" ry="18"/>
<text text-anchor="middle" x="300.28" y="-177.53" font-family="Times,serif" font-size="14.00">s16</text>
</g>
<!-- s11&#45;&gt;s16 -->
<g id="edge31" class="edge"><title>s11&#45;&gt;s16</title>
<path fill="none" stroke="#cb181d" d="M238.71,-193.07C247.39,-192.82 257.15,-192.07 266.3,-190.96"/>
<polygon fill="#cb181d" stroke="#cb181d" points="266.863,-194.415 276.28,-189.56 265.891,-187.483 266.863,-194.415"/>
<text text-anchor="middle" x="258.75" y="-180.81" font-family="Times,serif" font-size="14.00">1.22</text>
</g>
<!-- h0&#45;&gt;s10 -->
<g id="edge55" class="edge"><title>h0&#45;&gt;s10</title>
<path fill="none" stroke="#91cf60" d="M196.48,-35.877C196.47,-46.475 197.64,-60.125 199.49,-72.064"/>
<polygon fill="#91cf60" stroke="#91cf60" points="196.06,-72.7685 201.27,-81.994 202.951,-71.5333 196.06,-72.7685"/>
<text text-anchor="middle" x="188.98" y="-42.77" font-family="Times,serif" font-size="14.00">0.0</text>
</g>
<!-- s15&#45;&gt;s10 -->
<g id="edge56" class="edge"><title>s15&#45;&gt;s10</title>
<path fill="none" stroke="#d9ef8b" d="M270.57,-91.733C262.28,-91.422 252.96,-91.515 244.13,-91.974"/>
<polygon fill="#d9ef8b" stroke="#d9ef8b" points="243.8,-88.4884 234.07,-92.68 244.291,-95.4713 243.8,-88.4884"/>
<text text-anchor="middle" x="257.35" y="-80.654" font-family="Times,serif" font-size="14.00">0.29</text>
</g>
<!-- s15&#45;&gt;s16 -->
<g id="edge57" class="edge"><title>s15&#45;&gt;s16</title>
<path fill="none" stroke="#fee08b" d="M291.72,-115.35C291.05,-126.53 291.44,-141.1 292.66,-153.7"/>
<polygon fill="#fee08b" stroke="#fee08b" points="289.193,-154.188 293.86,-163.7 296.144,-153.354 289.193,-154.188"/>
<text text-anchor="middle" x="279.69" y="-138.33" font-family="Times,serif" font-size="14.00">0.52</text>
</g>
<!-- s20 -->
<g id="20" class="node"><title>s20</title>
<ellipse fill="none" stroke="black" cx="379.69" cy="-89.252" rx="27" ry="18"/>
<text text-anchor="middle" x="379.69" y="-85.552" font-family="Times,serif" font-size="14.00">s20</text>
</g>
<!-- s15&#45;&gt;s20 -->
<g id="edge58" class="edge"><title>s15&#45;&gt;s20</title>
<path fill="none" stroke="#91cf60" d="M323.01,-101.07C330.26,-100.8 338.22,-100.15 345.83,-99.224"/>
<polygon fill="#91cf60" stroke="#91cf60" points="346.462,-102.669 355.87,-97.797 345.477,-95.7391 346.462,-102.669"/>
<text text-anchor="middle" x="340.67" y="-88.946" font-family="Times,serif" font-size="14.00">0.07</text>
</g>
<!-- s4&#45;&gt;s3 -->
<g id="edge32" class="edge"><title>s4&#45;&gt;s3</title>
<path fill="none" stroke="#91cf60" d="M72.523,-450.19C71.863,-439 69.73,-424.47 67.012,-411.94"/>
<polygon fill="#91cf60" stroke="#91cf60" points="70.3631,-410.907 64.61,-402.01 63.5593,-412.553 70.3631,-410.907"/>
<text text-anchor="middle" x="82.267" y="-434.86" font-family="Times,serif" font-size="14.00">0.11</text>
</g>
<!-- s9 -->
<g id="9" class="node"><title>s9</title>
<ellipse fill="none" stroke="black" cx="155.4" cy="-461.06" rx="27" ry="18"/>
<text text-anchor="middle" x="155.4" y="-457.36" font-family="Times,serif" font-size="14.00">s9</text>
</g>
<!-- s4&#45;&gt;s9 -->
<g id="edge33" class="edge"><title>s4&#45;&gt;s9</title>
<path fill="none" stroke="#91cf60" d="M96.549,-472.44C104.33,-472.23 112.93,-471.62 121.11,-470.69"/>
<polygon fill="#91cf60" stroke="#91cf60" points="121.682,-474.145 131.14,-469.37 120.769,-467.205 121.682,-474.145"/>
<text text-anchor="middle" x="115.08" y="-460.37" font-family="Times,serif" font-size="14.00">0.22</text>
</g>
<!-- s8&#45;&gt;s3 -->
<g id="edge34" class="edge"><title>s8&#45;&gt;s3</title>
<path fill="none" stroke="#d9ef8b" d="M115.04,-371.9C106.98,-372.31 98.041,-373.18 89.608,-374.36"/>
<polygon fill="#d9ef8b" stroke="#d9ef8b" points="88.9918,-370.914 79.665,-375.94 90.0904,-377.827 88.9918,-370.914"/>
<text text-anchor="middle" x="96.075" y="-361.93" font-family="Times,serif" font-size="14.00">0.44</text>
</g>
<!-- s8&#45;&gt;s7 -->
<g id="edge35" class="edge"><title>s8&#45;&gt;s7</title>
<path fill="none" stroke="#fee08b" d="M144.73,-356.96C144.12,-344.6 141.82,-328.06 138.89,-314.17"/>
<polygon fill="#fee08b" stroke="#fee08b" points="142.235,-313.104 136.54,-304.17 135.421,-314.706 142.235,-313.104"/>
<text text-anchor="middle" x="154.31" y="-339.36" font-family="Times,serif" font-size="14.00">0.63</text>
</g>
<!-- s8&#45;&gt;s9 -->
<g id="edge36" class="edge"><title>s8&#45;&gt;s9</title>
<path fill="none" stroke="#d9ef8b" d="M139.24,-393.45C139.81,-405.16 141.93,-420.58 144.67,-433.74"/>
<polygon fill="#d9ef8b" stroke="#d9ef8b" points="141.311,-434.746 146.99,-443.69 148.128,-433.156 141.311,-434.746"/>
<text text-anchor="middle" x="129.46" y="-417.4" font-family="Times,serif" font-size="14.00">0.29</text>
</g>
<!-- s13 -->
<g id="13" class="node"><title>s13</title>
<ellipse fill="none" stroke="black" cx="235.57" cy="-367.3" rx="27" ry="18"/>
<text text-anchor="middle" x="235.57" y="-363.6" font-family="Times,serif" font-size="14.00">s13</text>
</g>
<!-- s8&#45;&gt;s13 -->
<g id="edge37" class="edge"><title>s8&#45;&gt;s13</title>
<path fill="none" stroke="#fc8d59" d="M168.59,-379.12C178.81,-378.92 190.61,-378.06 201.44,-376.76"/>
<polygon fill="#fc8d59" stroke="#fc8d59" points="202.003,-380.216 211.44,-375.4 201.06,-373.28 202.003,-380.216"/>
<text text-anchor="middle" x="191.27" y="-366.74" font-family="Times,serif" font-size="14.00">0.89</text>
</g>
<!-- s12&#45;&gt;s7 -->
<g id="edge38" class="edge"><title>s12&#45;&gt;s7</title>
<path fill="none" stroke="#fc8d59" d="M198.39,-272.76C187.13,-273.33 173.89,-274.73 161.96,-276.57"/>
<polygon fill="#fc8d59" stroke="#fc8d59" points="161.153,-273.157 151.89,-278.3 162.338,-280.056 161.153,-273.157"/>
<text text-anchor="middle" x="167.67" y="-263.47" font-family="Times,serif" font-size="14.00">0.81</text>
</g>
<!-- s12&#45;&gt;s11 -->
<g id="edge39" class="edge"><title>s12&#45;&gt;s11</title>
<path fill="none" stroke="#cb181d" d="M227.94,-257.86C227.48,-246.01 225.44,-230.25 222.75,-216.82"/>
<polygon fill="#cb181d" stroke="#cb181d" points="226.077,-215.66 220.47,-206.67 219.247,-217.194 226.077,-215.66"/>
<text text-anchor="middle" x="237.84" y="-241.14" font-family="Times,serif" font-size="14.00">1.82</text>
</g>
<!-- s12&#45;&gt;s13 -->
<g id="edge40" class="edge"><title>s12&#45;&gt;s13</title>
<path fill="none" stroke="#cb181d" d="M221.64,-294.03C221.76,-307.07 223.52,-324.82 226.04,-339.6"/>
<polygon fill="#cb181d" stroke="#cb181d" points="222.659,-340.554 227.99,-349.71 229.533,-339.228 222.659,-340.554"/>
<text text-anchor="middle" x="236.34" y="-305.61" font-family="Times,serif" font-size="14.00">1.86</text>
</g>
<!-- h2 -->
<g id="node19" class="node"><title>h2</title>
<ellipse fill="none" stroke="black" cx="182.69" cy="-301.08" rx="27" ry="18"/>
<text text-anchor="middle" x="182.69" y="-297.38" font-family="Times,serif" font-size="14.00">h2</text>
</g>
<!-- s12&#45;&gt;h2 -->
<g id="edge41" class="edge"><title>s12&#45;&gt;h2</title>
<path fill="none" stroke="#91cf60" d="M199.9,-282.92C199.74,-283.02 199.58,-283.12 199.41,-283.22"/>
<polygon fill="#91cf60" stroke="#91cf60" points="202.617,-277.004 196.09,-285.35 206.397,-282.896 202.617,-277.004"/>
<text text-anchor="middle" x="193.41" y="-271.87" font-family="Times,serif" font-size="14.00">0.01</text>
</g>
<!-- s17 -->
<g id="17" class="node"><title>s17</title>
<ellipse fill="none" stroke="black" cx="310.18" cy="-266.33" rx="27" ry="18"/>
<text text-anchor="middle" x="310.18" y="-262.63" font-family="Times,serif" font-size="14.00">s17</text>
</g>
<!-- s12&#45;&gt;s17 -->
<g id="edge42" class="edge"><title>s12&#45;&gt;s17</title>
<path fill="none" stroke="#fc8d59" d="M251.73,-279.11C259.56,-278.72 268.21,-277.89 276.42,-276.75"/>
<polygon fill="#fc8d59" stroke="#fc8d59" points="277.126,-280.182 286.46,-275.17 276.037,-273.267 277.126,-280.182"/>
<text text-anchor="middle" x="270.32" y="-266.73" font-family="Times,serif" font-size="14.00">0.89</text>
</g>
<!-- h1&#45;&gt;s11 -->
<g id="edge59" class="edge"><title>h1&#45;&gt;s11</title>
<path fill="none" stroke="#91cf60" d="M180.88,-148.48C183.44,-153.96 186.78,-160.06 190.36,-165.84"/>
<polygon fill="#91cf60" stroke="#91cf60" points="187.667,-168.114 196.09,-174.54 193.513,-164.263 187.667,-168.114"/>
<text text-anchor="middle" x="173.12" y="-160.96" font-family="Times,serif" font-size="14.00">0.01</text>
</g>
<!-- s16&#45;&gt;s11 -->
<g id="edge60" class="edge"><title>s16&#45;&gt;s11</title>
<path fill="none" stroke="#cb181d" d="M273.76,-177.4C265.09,-177.65 255.33,-178.4 246.18,-179.51"/>
<polygon fill="#cb181d" stroke="#cb181d" points="245.617,-176.055 236.2,-180.91 246.589,-182.987 245.617,-176.055"/>
<text text-anchor="middle" x="253.72" y="-167.26" font-family="Times,serif" font-size="14.00">1.11</text>
</g>
<!-- s16&#45;&gt;s15 -->
<g id="edge61" class="edge"><title>s16&#45;&gt;s15</title>
<path fill="none" stroke="#d9ef8b" d="M305.12,-163.18C305.79,-152 305.4,-137.42 304.18,-124.82"/>
<polygon fill="#d9ef8b" stroke="#d9ef8b" points="307.647,-124.332 302.98,-114.82 300.696,-125.166 307.647,-124.332"/>
<text text-anchor="middle" x="313.65" y="-147.8" font-family="Times,serif" font-size="14.00">0.4</text>
</g>
<!-- s16&#45;&gt;s17 -->
<g id="edge62" class="edge"><title>s16&#45;&gt;s17</title>
<path fill="none" stroke="#fee08b" d="M296.77,-199.09C296.87,-210.66 298.36,-225.94 300.57,-239.01"/>
<polygon fill="#fee08b" stroke="#fee08b" points="297.149,-239.754 302.48,-248.91 304.022,-238.428 297.149,-239.754"/>
<text text-anchor="middle" x="286.17" y="-222.85" font-family="Times,serif" font-size="14.00">0.52</text>
</g>
<!-- s21 -->
<g id="21" class="node"><title>s21</title>
<ellipse fill="none" stroke="black" cx="385.6" cy="-171.55" rx="27" ry="18"/>
<text text-anchor="middle" x="385.6" y="-167.85" font-family="Times,serif" font-size="14.00">s21</text>
</g>
<!-- s16&#45;&gt;s21 -->
<g id="edge63" class="edge"><title>s16&#45;&gt;s21</title>
<path fill="none" stroke="#fee08b" d="M327.05,-184.51C334.89,-184.09 343.56,-183.23 351.78,-182.07"/>
<polygon fill="#fee08b" stroke="#fee08b" points="352.528,-185.495 361.85,-180.46 351.423,-178.583 352.528,-185.495"/>
<text text-anchor="middle" x="345.66" y="-172.09" font-family="Times,serif" font-size="14.00">0.59</text>
</g>
<!-- s9&#45;&gt;s4 -->
<g id="edge43" class="edge"><title>s9&#45;&gt;s4</title>
<path fill="none" stroke="#91cf60" d="M128.74,-457.06C120.96,-457.27 112.36,-457.89 104.18,-458.81"/>
<polygon fill="#91cf60" stroke="#91cf60" points="103.599,-455.356 94.146,-460.14 104.519,-462.296 103.599,-455.356"/>
<text text-anchor="middle" x="110.21" y="-446.74" font-family="Times,serif" font-size="14.00">0.18</text>
</g>
<!-- s9&#45;&gt;s8 -->
<g id="edge44" class="edge"><title>s9&#45;&gt;s8</title>
<path fill="none" stroke="#fee08b" d="M158.18,-442.83C157.6,-431.12 155.48,-415.7 152.74,-402.55"/>
<polygon fill="#fee08b" stroke="#fee08b" points="156.099,-401.541 150.43,-392.59 149.28,-403.122 156.099,-401.541"/>
<text text-anchor="middle" x="167.96" y="-426.49" font-family="Times,serif" font-size="14.00">0.55</text>
</g>
<!-- s14 -->
<g id="14" class="node"><title>s14</title>
<ellipse fill="none" stroke="black" cx="254.74" cy="-454.02" rx="27" ry="18"/>
<text text-anchor="middle" x="254.74" y="-450.32" font-family="Times,serif" font-size="14.00">s14</text>
</g>
<!-- s9&#45;&gt;s14 -->
<g id="edge45" class="edge"><title>s9&#45;&gt;s14</title>
<path fill="none" stroke="#d9ef8b" d="M181.93,-465.22C193.66,-465.16 207.61,-464.33 220.14,-462.97"/>
<polygon fill="#d9ef8b" stroke="#d9ef8b" points="220.769,-466.419 230.26,-461.71 219.904,-459.472 220.769,-466.419"/>
<text text-anchor="middle" x="213.54" y="-467.89" font-family="Times,serif" font-size="14.00">0.33</text>
</g>
<!-- s13&#45;&gt;s8 -->
<g id="edge46" class="edge"><title>s13&#45;&gt;s8</title>
<path fill="none" stroke="#fee08b" d="M208.99,-363.41C198.77,-363.62 186.97,-364.48 176.14,-365.77"/>
<polygon fill="#fee08b" stroke="#fee08b" points="175.572,-362.315 166.14,-367.14 176.523,-369.25 175.572,-362.315"/>
<text text-anchor="middle" x="183.56" y="-353.39" font-family="Times,serif" font-size="14.00">0.7</text>
</g>
<!-- s13&#45;&gt;s12 -->
<g id="edge47" class="edge"><title>s13&#45;&gt;s12</title>
<path fill="none" stroke="#a50f15" d="M238.96,-349.03C238.84,-336 237.08,-318.24 234.56,-303.47"/>
<polygon fill="#a50f15" stroke="#a50f15" points="237.939,-302.507 232.61,-293.35 231.065,-303.832 237.939,-302.507"/>
<text text-anchor="middle" x="224.26" y="-330.05" font-family="Times,serif" font-size="14.00">2.19</text>
</g>
<!-- s13&#45;&gt;s14 -->
<g id="edge48" class="edge"><title>s13&#45;&gt;s14</title>
<path fill="none" stroke="#cb181d" d="M233.98,-385.63C235.33,-397.7 238.58,-413.72 242.29,-427.22"/>
<polygon fill="#cb181d" stroke="#cb181d" points="238.979,-428.364 245.2,-436.94 245.685,-426.356 238.979,-428.364"/>
<text text-anchor="middle" x="250.64" y="-395.22" font-family="Times,serif" font-size="14.00">1.15</text>
</g>
<!-- h3 -->
<g id="node22" class="node"><title>h3</title>
<ellipse fill="none" stroke="black" cx="215.68" cy="-435.34" rx="27" ry="18"/>
<text text-anchor="middle" x="215.68" y="-431.64" font-family="Times,serif" font-size="14.00">h3</text>
</g>
<!-- s13&#45;&gt;h3 -->
<g id="edge49" class="edge"><title>s13&#45;&gt;h3</title>
<path fill="none" stroke="#91cf60" d="M224.42,-383.84C221.63,-390.95 218.96,-399.46 216.97,-407.49"/>
<polygon fill="#91cf60" stroke="#91cf60" points="213.548,-406.755 214.85,-417.27 220.389,-408.238 213.548,-406.755"/>
<text text-anchor="middle" x="208.2" y="-399.46" font-family="Times,serif" font-size="14.00">0.01</text>
</g>
<!-- s18 -->
<g id="18" class="node"><title>s18</title>
<ellipse fill="none" stroke="black" cx="322.55" cy="-351.39" rx="27" ry="18"/>
<text text-anchor="middle" x="322.55" y="-347.69" font-family="Times,serif" font-size="14.00">s18</text>
</g>
<!-- s13&#45;&gt;s18 -->
<g id="edge50" class="edge"><title>s13&#45;&gt;s18</title>
<path fill="none" stroke="#fc8d59" d="M262.79,-368.67C271.54,-367.61 281.31,-365.94 290.38,-363.97"/>
<polygon fill="#fc8d59" stroke="#fc8d59" points="291.296,-367.35 300.22,-361.64 289.683,-360.538 291.296,-367.35"/>
<text text-anchor="middle" x="282.83" y="-355.12" font-family="Times,serif" font-size="14.00">0.81</text>
</g>
<!-- h2&#45;&gt;s12 -->
<g id="edge64" class="edge"><title>h2&#45;&gt;s12</title>
<path fill="none" stroke="#91cf60" d="M207.82,-293.91C207.98,-293.81 208.14,-293.72 208.3,-293.62"/>
<polygon fill="#91cf60" stroke="#91cf60" points="205.11,-299.831 211.63,-291.48 201.325,-293.942 205.11,-299.831"/>
<text text-anchor="middle" x="220.56" y="-297.56" font-family="Times,serif" font-size="14.00">0.01</text>
</g>
<!-- s17&#45;&gt;s12 -->
<g id="edge65" class="edge"><title>s17&#45;&gt;s12</title>
<path fill="none" stroke="#fc8d59" d="M283.48,-262.98C275.66,-263.37 267,-264.2 258.8,-265.34"/>
<polygon fill="#fc8d59" stroke="#fc8d59" points="258.085,-261.909 248.75,-266.92 259.172,-268.824 258.085,-261.909"/>
<text text-anchor="middle" x="264.89" y="-252.96" font-family="Times,serif" font-size="14.00">0.78</text>
</g>
<!-- s17&#45;&gt;s16 -->
<g id="edge66" class="edge"><title>s17&#45;&gt;s16</title>
<path fill="none" stroke="#fee08b" d="M313.69,-248.47C313.59,-236.91 312.09,-221.63 309.89,-208.55"/>
<polygon fill="#fee08b" stroke="#fee08b" points="313.311,-207.806 307.98,-198.65 306.438,-209.132 313.311,-207.806"/>
<text text-anchor="middle" x="324.29" y="-232.31" font-family="Times,serif" font-size="14.00">0.63</text>
</g>
<!-- s17&#45;&gt;s18 -->
<g id="edge67" class="edge"><title>s17&#45;&gt;s18</title>
<path fill="none" stroke="#d9ef8b" d="M307.19,-284.34C307.63,-295.94 309.56,-311.21 312.15,-324.26"/>
<polygon fill="#d9ef8b" stroke="#d9ef8b" points="308.757,-325.126 314.34,-334.13 315.591,-323.609 308.757,-325.126"/>
<text text-anchor="middle" x="297.17" y="-308.1" font-family="Times,serif" font-size="14.00">0.44</text>
</g>
<!-- s22 -->
<g id="22" class="node"><title>s22</title>
<ellipse fill="none" stroke="black" cx="395.33" cy="-255.14" rx="27" ry="18"/>
<text text-anchor="middle" x="395.33" y="-251.44" font-family="Times,serif" font-size="14.00">s22</text>
</g>
<!-- s17&#45;&gt;s22 -->
<g id="edge68" class="edge"><title>s17&#45;&gt;s22</title>
<path fill="none" stroke="#fee08b" d="M337.01,-269.13C344.91,-268.57 353.66,-267.54 361.92,-266.22"/>
<polygon fill="#fee08b" stroke="#fee08b" points="362.803,-269.618 372.03,-264.41 361.57,-262.727 362.803,-269.618"/>
<text text-anchor="middle" x="355.71" y="-256.48" font-family="Times,serif" font-size="14.00">0.55</text>
</g>
<!-- s14&#45;&gt;s9 -->
<g id="edge51" class="edge"><title>s14&#45;&gt;s9</title>
<path fill="none" stroke="#fee08b" d="M228.21,-449.86C216.48,-449.91 202.53,-450.75 190,-452.11"/>
<polygon fill="#fee08b" stroke="#fee08b" points="189.371,-448.661 179.88,-453.37 190.236,-455.608 189.371,-448.661"/>
<text text-anchor="middle" x="196.61" y="-454.78" font-family="Times,serif" font-size="14.00">0.55</text>
</g>
<!-- s14&#45;&gt;s13 -->
<g id="edge52" class="edge"><title>s14&#45;&gt;s13</title>
<path fill="none" stroke="#cb181d" d="M256.33,-435.7C254.98,-423.62 251.73,-407.61 248.02,-394.11"/>
<polygon fill="#cb181d" stroke="#cb181d" points="251.329,-392.958 245.11,-384.38 244.622,-394.964 251.329,-392.958"/>
<text text-anchor="middle" x="264.67" y="-418.71" font-family="Times,serif" font-size="14.00">1.15</text>
</g>
<!-- h4 -->
<g id="node24" class="node"><title>h4</title>
<ellipse fill="none" stroke="black" cx="266.18" cy="-535.37" rx="27" ry="18"/>
<text text-anchor="middle" x="266.18" y="-531.67" font-family="Times,serif" font-size="14.00">h4</text>
</g>
<!-- s14&#45;&gt;h4 -->
<g id="edge53" class="edge"><title>s14&#45;&gt;h4</title>
<path fill="none" stroke="#91cf60" d="M251.59,-472.06C251.94,-482.68 253.58,-496.31 255.84,-508.21"/>
<polygon fill="#91cf60" stroke="#91cf60" points="252.441,-509.052 257.97,-518.09 259.284,-507.577 252.441,-509.052"/>
<text text-anchor="middle" x="244.71" y="-493.93" font-family="Times,serif" font-size="14.00">0.0</text>
</g>
<!-- s19 -->
<g id="19" class="node"><title>s19</title>
<ellipse fill="none" stroke="black" cx="340.34" cy="-433.53" rx="27" ry="18"/>
<text text-anchor="middle" x="340.34" y="-429.83" font-family="Times,serif" font-size="14.00">s19</text>
</g>
<!-- s14&#45;&gt;s19 -->
<g id="edge54" class="edge"><title>s14&#45;&gt;s19</title>
<path fill="none" stroke="#d9ef8b" d="M281.88,-453.95C290.59,-452.41 300.3,-450.2 309.27,-447.73"/>
<polygon fill="#d9ef8b" stroke="#d9ef8b" points="310.396,-451.047 318.99,-444.85 308.408,-444.335 310.396,-451.047"/>
<text text-anchor="middle" x="295.58" y="-439.64" font-family="Times,serif" font-size="14.00">0.37</text>
</g>
<!-- h3&#45;&gt;s13 -->
<g id="edge69" class="edge"><title>h3&#45;&gt;s13</title>
<path fill="none" stroke="#91cf60" d="M226.83,-418.81C229.62,-411.69 232.29,-403.19 234.28,-395.15"/>
<polygon fill="#91cf60" stroke="#91cf60" points="237.702,-395.886 236.41,-385.37 230.862,-394.396 237.702,-395.886"/>
<text text-anchor="middle" x="243.06" y="-410.78" font-family="Times,serif" font-size="14.00">0.01</text>
</g>
<!-- s18&#45;&gt;s13 -->
<g id="edge70" class="edge"><title>s18&#45;&gt;s13</title>
<path fill="none" stroke="#fee08b" d="M295.32,-350.02C286.58,-351.08 276.8,-352.76 267.74,-354.72"/>
<polygon fill="#fee08b" stroke="#fee08b" points="266.816,-351.342 257.89,-357.05 268.427,-358.154 266.816,-351.342"/>
<text text-anchor="middle" x="272.53" y="-341.17" font-family="Times,serif" font-size="14.00">0.7</text>
</g>
<!-- s18&#45;&gt;s17 -->
<g id="edge71" class="edge"><title>s18&#45;&gt;s17</title>
<path fill="none" stroke="#fee08b" d="M325.53,-333.38C325.1,-321.78 323.16,-306.5 320.58,-293.46"/>
<polygon fill="#fee08b" stroke="#fee08b" points="323.973,-292.594 318.39,-283.59 317.139,-294.111 323.973,-292.594"/>
<text text-anchor="middle" x="335.56" y="-317.22" font-family="Times,serif" font-size="14.00">0.63</text>
</g>
<!-- s18&#45;&gt;s19 -->
<g id="edge72" class="edge"><title>s18&#45;&gt;s19</title>
<path fill="none" stroke="#d9ef8b" d="M320.77,-369.59C321.94,-380.56 324.72,-394.71 327.99,-406.92"/>
<polygon fill="#d9ef8b" stroke="#d9ef8b" points="324.656,-407.99 330.83,-416.6 331.373,-406.019 324.656,-407.99"/>
<text text-anchor="middle" x="311.88" y="-392.05" font-family="Times,serif" font-size="14.00">0.37</text>
</g>
<!-- s23 -->
<g id="23" class="node"><title>s23</title>
<ellipse fill="none" stroke="black" cx="407.4" cy="-338.4" rx="27" ry="18"/>
<text text-anchor="middle" x="407.4" y="-334.7" font-family="Times,serif" font-size="14.00">s23</text>
</g>
<!-- s18&#45;&gt;s23 -->
<g id="edge73" class="edge"><title>s18&#45;&gt;s23</title>
<path fill="none" stroke="#d9ef8b" d="M349.41,-353.62C357.46,-352.88 366.36,-351.63 374.74,-350.1"/>
<polygon fill="#d9ef8b" stroke="#d9ef8b" points="375.492,-353.519 384.59,-348.09 374.092,-346.66 375.492,-353.519"/>
<text text-anchor="middle" x="368.33" y="-340.66" font-family="Times,serif" font-size="14.00">0.33</text>
</g>
<!-- h4&#45;&gt;s14 -->
<g id="edge74" class="edge"><title>h4&#45;&gt;s14</title>
<path fill="none" stroke="#91cf60" d="M269.34,-517.33C268.98,-506.72 267.34,-493.08 265.08,-481.18"/>
<polygon fill="#91cf60" stroke="#91cf60" points="268.479,-480.338 262.95,-471.3 261.636,-481.813 268.479,-480.338"/>
<text text-anchor="middle" x="276.21" y="-503.06" font-family="Times,serif" font-size="14.00">0.0</text>
</g>
<!-- s19&#45;&gt;s14 -->
<g id="edge75" class="edge"><title>s19&#45;&gt;s14</title>
<path fill="none" stroke="#d9ef8b" d="M313.2,-433.6C304.49,-435.14 294.78,-437.35 285.81,-439.82"/>
<polygon fill="#d9ef8b" stroke="#d9ef8b" points="284.69,-436.501 276.09,-442.69 286.672,-443.215 284.69,-436.501"/>
<text text-anchor="middle" x="304.01" y="-425.51" font-family="Times,serif" font-size="14.00">0.4</text>
</g>
<!-- s19&#45;&gt;s18 -->
<g id="edge76" class="edge"><title>s19&#45;&gt;s18</title>
<path fill="none" stroke="#d9ef8b" d="M342.12,-415.32C340.95,-404.35 338.17,-390.2 334.9,-378"/>
<polygon fill="#d9ef8b" stroke="#d9ef8b" points="338.231,-376.922 332.06,-368.31 331.514,-378.891 338.231,-376.922"/>
<text text-anchor="middle" x="351.01" y="-400.46" font-family="Times,serif" font-size="14.00">0.33</text>
</g>
<!-- s24 -->
<g id="24" class="node"><title>s24</title>
<ellipse fill="none" stroke="black" cx="422.83" cy="-419.42" rx="27" ry="18"/>
<text text-anchor="middle" x="422.83" y="-415.72" font-family="Times,serif" font-size="14.00">s24</text>
</g>
<!-- s19&#45;&gt;s24 -->
<g id="edge77" class="edge"><title>s19&#45;&gt;s24</title>
<path fill="none" stroke="#91cf60" d="M367.51,-435.3C374.85,-434.48 382.86,-433.21 390.46,-431.7"/>
<polygon fill="#91cf60" stroke="#91cf60" points="391.442,-435.067 400.45,-429.49 389.93,-428.233 391.442,-435.067"/>
<text text-anchor="middle" x="378.98" y="-422.3" font-family="Times,serif" font-size="14.00">0.18</text>
</g>
<!-- s20&#45;&gt;s15 -->
<g id="edge78" class="edge"><title>s20&#45;&gt;s15</title>
<path fill="none" stroke="#d9ef8b" d="M353.23,-85.482C345.98,-85.751 338.02,-86.4 330.42,-87.328"/>
<polygon fill="#d9ef8b" stroke="#d9ef8b" points="329.779,-83.8838 320.37,-88.754 330.763,-90.8144 329.779,-83.8838"/>
<text text-anchor="middle" x="335.58" y="-75.205" font-family="Times,serif" font-size="14.00">0.26</text>
</g>
<!-- s20&#45;&gt;s21 -->
<g id="edge79" class="edge"><title>s20&#45;&gt;s21</title>
<path fill="none" stroke="#91cf60" d="M375.32,-107.11C374.95,-117.85 375.68,-131.74 377.15,-143.88"/>
<polygon fill="#91cf60" stroke="#91cf60" points="373.714,-144.575 378.63,-153.96 380.64,-143.558 373.714,-144.575"/>
<text text-anchor="middle" x="363.74" y="-129.29" font-family="Times,serif" font-size="14.00">0.14</text>
</g>
<!-- s21&#45;&gt;s16 -->
<g id="edge80" class="edge"><title>s21&#45;&gt;s16</title>
<path fill="none" stroke="#d9ef8b" d="M358.83,-168.28C350.99,-168.69 342.31,-169.55 334.1,-170.71"/>
<polygon fill="#d9ef8b" stroke="#d9ef8b" points="333.347,-167.286 324.03,-172.33 334.459,-174.197 333.347,-167.286"/>
<text text-anchor="middle" x="340.21" y="-158.29" font-family="Times,serif" font-size="14.00">0.26</text>
</g>
<!-- s21&#45;&gt;s20 -->
<g id="edge81" class="edge"><title>s21&#45;&gt;s20</title>
<path fill="none" stroke="#d9ef8b" d="M389.97,-153.7C390.33,-142.96 389.6,-129.07 388.13,-116.93"/>
<polygon fill="#d9ef8b" stroke="#d9ef8b" points="391.565,-116.231 386.66,-106.84 384.638,-117.24 391.565,-116.231"/>
<text text-anchor="middle" x="401.55" y="-139.11" font-family="Times,serif" font-size="14.00">0.29</text>
</g>
<!-- s21&#45;&gt;s22 -->
<g id="edge82" class="edge"><title>s21&#45;&gt;s22</title>
<path fill="none" stroke="#d9ef8b" d="M382.06,-189.52C382.17,-200.64 383.57,-215.14 385.67,-227.68"/>
<polygon fill="#d9ef8b" stroke="#d9ef8b" points="382.256,-228.464 387.57,-237.63 389.132,-227.151 382.256,-228.464"/>
<text text-anchor="middle" x="371.36" y="-212.4" font-family="Times,serif" font-size="14.00">0.33</text>
</g>
<!-- s22&#45;&gt;s17 -->
<g id="edge83" class="edge"><title>s22&#45;&gt;s17</title>
<path fill="none" stroke="#d9ef8b" d="M368.5,-252.34C360.6,-252.9 351.86,-253.93 343.6,-255.25"/>
<polygon fill="#d9ef8b" stroke="#d9ef8b" points="342.712,-251.854 333.49,-257.07 343.952,-258.743 342.712,-251.854"/>
<text text-anchor="middle" x="349.8" y="-242.59" font-family="Times,serif" font-size="14.00">0.44</text>
</g>
<!-- s22&#45;&gt;s21 -->
<g id="edge84" class="edge"><title>s22&#45;&gt;s21</title>
<path fill="none" stroke="#d9ef8b" d="M398.87,-237.17C398.77,-226.05 397.36,-211.56 395.26,-199.02"/>
<polygon fill="#d9ef8b" stroke="#d9ef8b" points="398.672,-198.227 393.36,-189.06 391.796,-199.539 398.672,-198.227"/>
<text text-anchor="middle" x="409.57" y="-221.89" font-family="Times,serif" font-size="14.00">0.33</text>
</g>
<!-- s22&#45;&gt;s23 -->
<g id="edge85" class="edge"><title>s22&#45;&gt;s23</title>
<path fill="none" stroke="#d9ef8b" d="M392.3,-273.19C392.71,-284.3 394.53,-298.75 396.97,-311.22"/>
<polygon fill="#d9ef8b" stroke="#d9ef8b" points="393.581,-312.107 399.15,-321.12 400.418,-310.601 393.581,-312.107"/>
<text text-anchor="middle" x="382.13" y="-296.01" font-family="Times,serif" font-size="14.00">0.37</text>
</g>
<!-- s23&#45;&gt;s18 -->
<g id="edge86" class="edge"><title>s23&#45;&gt;s18</title>
<path fill="none" stroke="#d9ef8b" d="M380.53,-336.16C372.49,-336.91 363.58,-338.15 355.21,-339.69"/>
<polygon fill="#d9ef8b" stroke="#d9ef8b" points="354.464,-336.27 345.36,-341.69 355.857,-343.13 354.464,-336.27"/>
<text text-anchor="middle" x="361.62" y="-326.73" font-family="Times,serif" font-size="14.00">0.44</text>
</g>
<!-- s23&#45;&gt;s22 -->
<g id="edge87" class="edge"><title>s23&#45;&gt;s22</title>
<path fill="none" stroke="#d9ef8b" d="M410.43,-320.35C410.02,-309.24 408.2,-294.79 405.76,-282.31"/>
<polygon fill="#d9ef8b" stroke="#d9ef8b" points="409.151,-281.432 403.58,-272.42 402.315,-282.939 409.151,-281.432"/>
<text text-anchor="middle" x="420.6" y="-305.13" font-family="Times,serif" font-size="14.00">0.26</text>
</g>
<!-- s23&#45;&gt;s24 -->
<g id="edge88" class="edge"><title>s23&#45;&gt;s24</title>
<path fill="none" stroke="#d9ef8b" d="M405.13,-356.64C406.01,-367.19 408.29,-380.67 411.11,-392.43"/>
<polygon fill="#d9ef8b" stroke="#d9ef8b" points="407.757,-393.439 413.7,-402.21 414.523,-391.647 407.757,-393.439"/>
<text text-anchor="middle" x="395.62" y="-378.34" font-family="Times,serif" font-size="14.00">0.26</text>
</g>
<!-- s24&#45;&gt;s19 -->
<g id="edge89" class="edge"><title>s24&#45;&gt;s19</title>
<path fill="none" stroke="#d9ef8b" d="M395.66,-417.65C388.32,-418.47 380.31,-419.74 372.71,-421.25"/>
<polygon fill="#d9ef8b" stroke="#d9ef8b" points="371.728,-417.883 362.72,-423.46 373.24,-424.717 371.728,-417.883"/>
<text text-anchor="middle" x="384.19" y="-408.25" font-family="Times,serif" font-size="14.00">0.26</text>
</g>
<!-- s24&#45;&gt;s23 -->
<g id="edge90" class="edge"><title>s24&#45;&gt;s23</title>
<path fill="none" stroke="#d9ef8b" d="M425.09,-401.18C424.22,-390.63 421.93,-377.15 419.12,-365.39"/>
<polygon fill="#d9ef8b" stroke="#d9ef8b" points="422.473,-364.381 416.53,-355.61 415.707,-366.173 422.473,-364.381"/>
<text text-anchor="middle" x="434.6" y="-387.09" font-family="Times,serif" font-size="14.00">0.26</text>
</g>
</g>
</svg>
