<svg id="svg" version="1.1" width="400" height="352.19123505976097" xmlns="http://www.w3.org/2000/svg" xmlns:xlink="http://www.w3.org/1999/xlink" style="display: block;"><g id="svgg"><path id="path0" d="M0.000 4.053 C 0.000 5.541,0.123 5.991,0.529 5.991 C 0.934 5.991,1.057 5.541,1.057 4.053 C 1.057 2.565,0.934 2.115,0.529 2.115 C 0.123 2.115,0.000 2.565,0.000 4.053 " stroke="none" fill="#000000" fill-rule="evenodd"></path><path id="path2" d="M0.441 1.984 C 1.340 2.250,1.340 5.856,0.441 6.121 C -0.039 6.263,-0.019 6.287,0.529 6.230 C 1.596 6.120,1.596 1.985,0.529 1.875 C -0.019 1.819,-0.039 1.843,0.441 1.984 M267.438 14.631 C 265.913 15.460,265.727 16.694,265.727 25.967 C 265.727 38.103,265.698 38.062,274.329 38.062 C 280.138 38.062,280.496 38.249,280.748 41.416 C 281.040 45.086,280.567 45.462,274.771 46.159 C 271.153 46.594,266.198 47.674,263.224 48.675 C 262.138 49.040,261.055 49.339,260.817 49.339 C 260.162 49.339,252.714 52.238,248.987 53.943 C 247.824 54.475,245.306 55.798,243.391 56.883 C 239.011 59.363,238.812 59.361,236.637 56.793 C 225.124 43.201,225.594 43.255,214.340 54.238 C 212.342 56.189,210.017 58.350,209.174 59.041 C 205.560 62.002,205.895 64.467,210.626 69.707 C 216.477 76.188,217.093 76.948,217.086 77.681 C 217.080 78.367,215.715 80.670,214.594 81.885 C 214.321 82.182,213.700 83.000,213.216 83.704 C 212.731 84.407,211.978 85.431,211.542 85.978 C 211.106 86.526,210.749 87.097,210.749 87.248 C 210.749 87.398,210.496 87.801,210.188 88.142 C 209.565 88.830,208.683 90.352,207.628 92.560 C 207.244 93.363,206.771 94.118,206.576 94.238 C 206.381 94.359,206.118 94.929,205.991 95.506 C 205.865 96.083,205.370 96.862,204.893 97.238 C 204.019 97.925,202.293 100.820,202.289 101.605 C 202.287 101.837,202.033 102.502,201.724 103.084 C 201.415 103.665,200.938 104.880,200.665 105.782 C 200.392 106.685,199.933 107.874,199.646 108.425 C 199.358 108.976,199.122 109.778,199.121 110.207 C 199.120 110.636,198.823 111.746,198.461 112.674 C 198.099 113.602,197.690 115.154,197.552 116.123 C 197.414 117.093,197.009 119.075,196.652 120.529 C 195.624 124.712,194.988 135.307,195.675 136.796 C 196.074 137.660,196.267 139.662,196.401 144.317 C 196.534 148.941,196.732 151.007,197.132 151.936 C 197.433 152.638,197.788 154.303,197.920 155.637 C 198.052 156.970,198.436 158.775,198.773 159.648 C 199.110 160.520,199.499 161.947,199.638 162.819 C 199.778 163.692,200.103 164.739,200.361 165.147 C 200.619 165.554,200.940 166.506,201.075 167.261 C 201.209 168.016,201.604 169.110,201.952 169.692 C 202.299 170.273,202.694 171.344,202.829 172.070 C 202.964 172.797,203.196 173.392,203.344 173.392 C 203.493 173.392,203.809 173.907,204.047 174.537 C 204.688 176.235,206.605 180.099,206.895 180.278 C 207.033 180.364,207.250 180.848,207.377 181.354 C 207.504 181.859,207.897 182.694,208.251 183.207 C 208.845 184.070,212.292 189.237,213.607 191.236 C 217.827 197.649,230.811 210.151,236.652 213.426 C 237.233 213.752,237.789 214.133,237.885 214.273 C 237.982 214.413,238.560 214.782,239.168 215.094 C 239.777 215.406,240.993 216.379,241.872 217.258 C 242.750 218.136,243.618 218.855,243.801 218.855 C 243.984 218.855,244.512 219.140,244.974 219.489 C 246.449 220.603,255.802 224.568,259.912 225.822 C 261.269 226.236,263.410 226.893,264.670 227.281 C 265.930 227.670,267.991 228.151,269.251 228.351 C 270.511 228.551,272.599 228.938,273.890 229.210 C 276.669 229.796,298.817 229.400,300.969 228.726 C 301.648 228.513,303.840 228.118,305.840 227.848 C 307.841 227.578,309.668 227.199,309.900 227.007 C 310.132 226.814,311.429 226.465,312.782 226.229 C 314.135 225.994,315.559 225.598,315.947 225.350 C 316.335 225.101,317.286 224.788,318.062 224.653 C 318.837 224.518,319.947 224.123,320.529 223.775 C 321.110 223.427,322.175 223.034,322.895 222.900 C 323.615 222.767,324.379 222.446,324.593 222.188 C 324.807 221.930,325.475 221.611,326.077 221.479 C 327.254 221.220,333.558 218.029,334.477 217.226 C 334.783 216.959,335.171 216.740,335.339 216.740 C 335.507 216.740,336.209 216.370,336.897 215.917 C 337.586 215.464,339.339 214.321,340.793 213.377 C 346.069 209.952,354.063 202.828,358.607 197.503 C 364.259 190.879,367.359 186.333,370.604 179.912 C 370.898 179.330,371.291 178.617,371.479 178.326 C 371.667 178.035,372.055 177.242,372.343 176.564 C 372.630 175.885,373.159 174.775,373.518 174.097 C 373.877 173.419,374.285 172.388,374.425 171.806 C 374.566 171.225,374.886 170.511,375.137 170.220 C 375.388 169.930,375.705 169.057,375.840 168.282 C 375.976 167.507,376.310 166.527,376.582 166.104 C 376.854 165.682,377.182 164.651,377.311 163.813 C 377.440 162.976,377.824 161.571,378.165 160.692 C 378.506 159.812,378.899 158.147,379.039 156.991 C 379.178 155.836,379.521 154.335,379.801 153.656 C 381.284 150.063,381.285 124.488,379.803 120.881 C 379.524 120.203,379.187 118.637,379.053 117.401 C 378.919 116.165,378.503 114.375,378.127 113.423 C 377.752 112.471,377.445 111.335,377.445 110.898 C 377.445 110.462,377.146 109.518,376.780 108.801 C 376.414 108.084,376.005 106.900,375.869 106.171 C 375.734 105.442,375.337 104.370,374.986 103.789 C 374.636 103.207,374.243 102.227,374.112 101.610 C 373.982 100.994,373.658 100.309,373.392 100.088 C 373.126 99.867,372.802 99.183,372.671 98.566 C 372.540 97.949,372.238 97.207,372.000 96.916 C 371.762 96.626,371.020 95.278,370.351 93.921 C 368.998 91.176,368.575 90.464,366.113 86.792 C 365.174 85.392,364.405 84.163,364.405 84.061 C 364.405 83.960,364.128 83.572,363.789 83.200 C 360.418 79.505,359.853 77.846,361.425 76.266 C 362.719 74.966,368.335 68.559,369.956 66.533 C 371.406 64.722,371.547 62.409,370.308 60.746 C 369.189 59.244,364.172 54.774,362.332 53.639 C 361.483 53.116,359.647 51.635,358.253 50.349 C 353.162 45.654,351.088 45.630,347.142 50.220 C 338.419 60.368,339.071 59.939,335.605 57.813 C 326.857 52.449,311.928 47.178,302.555 46.146 C 297.147 45.550,296.740 45.268,296.740 42.107 C 296.740 38.308,297.133 38.062,303.197 38.061 C 311.804 38.060,311.895 37.933,311.888 25.903 C 311.882 16.562,311.548 15.003,309.425 14.412 C 307.528 13.884,268.438 14.088,267.438 14.631 M296.035 73.682 C 296.907 73.872,299.128 74.264,300.969 74.552 C 302.811 74.839,304.872 75.302,305.551 75.580 C 306.229 75.858,307.339 76.195,308.018 76.328 C 308.696 76.461,309.804 76.866,310.479 77.228 C 311.155 77.589,311.918 77.885,312.175 77.885 C 312.643 77.885,316.185 79.397,317.181 80.022 C 317.471 80.205,318.106 80.521,318.590 80.725 C 319.075 80.930,320.026 81.457,320.705 81.897 C 321.383 82.337,322.652 83.158,323.524 83.721 C 329.690 87.702,334.737 92.445,340.408 99.589 C 341.599 101.089,344.773 106.275,345.567 108.018 C 346.097 109.181,346.729 110.529,346.972 111.013 C 347.556 112.177,349.335 116.953,350.254 119.824 C 353.430 129.746,353.363 145.577,350.103 155.242 C 349.076 158.288,347.433 162.607,346.953 163.524 C 346.699 164.009,346.007 165.457,345.414 166.743 C 342.455 173.158,333.403 183.964,327.863 187.696 C 326.736 188.454,325.736 189.173,325.639 189.294 C 325.542 189.414,324.329 190.244,322.943 191.138 C 304.867 202.799,280.328 204.183,260.793 194.644 C 258.084 193.321,257.144 192.770,252.863 189.996 C 248.007 186.848,240.317 179.602,237.885 175.883 C 237.595 175.438,236.927 174.523,236.402 173.850 C 235.876 173.176,235.350 172.322,235.232 171.951 C 235.115 171.581,234.902 171.278,234.759 171.278 C 234.616 171.278,233.881 170.048,233.126 168.546 C 232.371 167.044,231.568 165.577,231.342 165.286 C 231.116 164.996,230.819 164.282,230.681 163.700 C 230.543 163.119,230.219 162.405,229.961 162.115 C 229.704 161.824,229.307 160.887,229.079 160.032 C 228.851 159.177,228.455 158.146,228.199 157.741 C 227.943 157.336,227.627 156.291,227.497 155.419 C 227.367 154.546,227.022 153.304,226.728 152.659 C 226.435 152.013,226.066 150.106,225.908 148.420 C 225.750 146.735,225.425 144.647,225.187 143.779 C 224.638 141.783,224.606 132.818,225.142 130.903 C 225.362 130.116,225.705 127.904,225.903 125.989 C 226.102 124.073,226.477 122.180,226.737 121.781 C 226.997 121.383,227.326 120.264,227.468 119.295 C 227.611 118.326,228.030 117.039,228.401 116.434 C 228.772 115.830,229.075 114.939,229.075 114.455 C 229.075 113.971,229.382 113.184,229.758 112.707 C 230.134 112.229,230.553 111.375,230.690 110.809 C 230.828 110.243,231.213 109.383,231.547 108.899 C 231.881 108.414,232.276 107.621,232.425 107.137 C 232.574 106.652,232.991 105.877,233.352 105.415 C 233.713 104.953,234.009 104.377,234.009 104.137 C 234.009 103.896,234.263 103.488,234.574 103.229 C 234.885 102.971,235.286 102.437,235.464 102.041 C 237.053 98.521,246.039 89.144,251.278 85.540 C 256.613 81.868,261.018 79.295,261.968 79.295 C 262.244 79.295,262.658 79.067,262.889 78.789 C 263.120 78.511,263.813 78.177,264.430 78.047 C 265.046 77.917,266.026 77.591,266.608 77.322 C 268.909 76.256,272.614 75.296,279.295 74.035 C 283.247 73.289,293.273 73.077,296.035 73.682 M253.464 99.315 C 252.527 99.598,250.573 102.332,250.573 103.359 C 250.573 104.833,252.448 106.964,263.580 118.142 C 276.292 130.907,275.995 130.506,275.137 133.723 C 272.309 144.339,281.767 153.211,293.275 150.736 C 294.625 150.446,295.824 150.357,296.094 150.528 C 298.903 152.309,303.111 148.461,301.961 145.163 C 301.681 144.358,301.741 143.396,302.212 141.150 C 304.584 129.848,294.804 120.078,284.680 123.636 L 282.665 124.344 281.332 123.356 C 280.600 122.813,276.320 118.663,271.821 114.136 C 255.598 97.805,256.377 98.435,253.464 99.315 " stroke="none" fill="#ffffff" fill-rule="evenodd"></path><path id="path3" d="M1.510 4.053 C 1.513 5.022,1.582 5.377,1.663 4.841 C 1.744 4.305,1.741 3.512,1.658 3.079 C 1.574 2.645,1.508 3.084,1.510 4.053 M149.713 71.732 C 148.733 72.264,148.733 72.266,148.178 77.093 C 148.072 78.013,147.754 80.352,147.472 82.291 C 147.191 84.229,146.841 86.829,146.696 88.069 C 146.364 90.898,145.721 91.442,141.847 92.170 C 140.298 92.461,138.317 92.866,137.445 93.069 C 131.919 94.358,130.432 94.738,130.096 94.946 C 129.888 95.074,128.642 95.472,127.326 95.830 C 126.010 96.187,123.899 96.862,122.634 97.329 C 119.438 98.509,119.050 98.339,116.022 94.436 C 108.757 85.071,107.709 83.801,106.965 83.462 C 106.229 83.127,100.196 86.263,90.573 91.982 C 86.334 94.501,84.388 95.597,83.678 95.868 C 82.162 96.444,82.526 98.175,85.639 105.198 C 87.123 108.548,88.508 111.901,89.164 113.734 L 89.823 115.574 85.528 119.425 C 80.970 123.511,75.842 128.680,72.454 132.599 C 71.324 133.907,70.140 134.978,69.825 134.978 C 69.212 134.978,66.065 133.870,64.317 133.040 C 62.911 132.371,60.573 131.396,55.705 129.447 L 51.675 127.834 50.840 128.851 C 50.381 129.410,49.688 130.423,49.299 131.101 C 48.911 131.780,48.166 133.065,47.645 133.958 C 47.123 134.850,45.269 138.071,43.524 141.116 C 39.893 147.453,39.903 147.436,38.893 149.080 C 37.074 152.039,37.346 152.616,42.291 156.308 C 53.050 164.340,52.928 164.217,52.429 166.603 C 52.235 167.526,51.961 168.441,51.819 168.634 C 51.677 168.828,51.045 170.652,50.416 172.687 C 49.786 174.722,48.975 177.339,48.614 178.502 C 48.252 179.665,47.853 181.330,47.727 182.203 C 47.600 183.075,47.211 184.978,46.862 186.432 C 46.513 187.885,46.133 189.506,46.017 190.034 C 45.698 191.489,45.003 191.686,36.188 192.808 C 27.246 193.947,27.030 193.990,26.258 194.762 C 25.442 195.578,25.463 221.360,26.280 222.177 C 26.980 222.877,27.538 222.997,32.070 223.430 C 35.318 223.739,39.671 224.350,44.221 225.133 C 45.310 225.321,45.678 225.570,45.874 226.256 C 46.253 227.581,47.501 233.286,47.763 234.890 C 47.890 235.665,48.282 237.251,48.634 238.414 C 50.594 244.889,51.589 247.968,51.823 248.282 C 52.327 248.958,52.842 251.417,52.645 252.203 C 52.524 252.684,50.904 254.135,48.514 255.903 C 46.351 257.503,44.502 258.904,44.405 259.017 C 44.028 259.457,39.577 262.826,38.880 263.199 C 37.309 264.040,37.523 265.541,39.745 269.280 C 40.273 270.168,41.641 272.546,42.786 274.566 C 45.887 280.037,49.535 286.171,50.569 287.653 C 51.623 289.165,52.387 289.182,55.507 287.763 C 56.476 287.323,58.141 286.598,59.207 286.154 C 60.273 285.709,61.968 284.975,62.974 284.523 C 63.979 284.070,64.933 283.700,65.094 283.700 C 65.254 283.700,66.008 283.367,66.769 282.959 C 69.344 281.579,70.344 281.831,72.570 284.422 C 74.895 287.127,83.773 296.025,87.195 299.079 C 90.117 301.687,90.109 301.860,86.680 309.251 C 81.795 319.783,81.805 320.034,87.250 322.996 C 88.981 323.938,91.964 325.648,93.879 326.797 C 95.795 327.946,98.332 329.404,99.518 330.037 C 100.704 330.670,102.546 331.681,103.612 332.283 C 107.131 334.273,106.505 334.762,115.716 322.832 C 119.256 318.247,119.134 318.287,124.296 320.028 C 129.387 321.745,136.485 323.616,140.969 324.422 C 146.165 325.357,146.956 326.183,146.962 330.678 C 146.963 331.299,147.196 333.240,147.480 334.994 C 147.764 336.747,148.147 339.517,148.329 341.151 C 148.837 345.691,147.710 345.374,163.361 345.374 L 176.513 345.374 177.196 344.506 C 177.913 343.594,178.108 342.555,178.669 336.668 C 179.687 325.969,179.917 325.571,185.727 324.399 C 191.697 323.196,198.559 321.367,202.908 319.821 C 207.185 318.300,207.346 318.332,209.559 321.149 C 211.349 323.427,212.038 324.325,216.339 329.980 C 219.742 334.455,219.116 334.508,228.858 328.931 C 233.145 326.478,237.965 323.723,239.569 322.810 C 244.856 319.800,244.813 320.035,241.385 312.737 C 241.011 311.940,240.705 311.158,240.705 310.998 C 240.705 310.838,240.402 310.062,240.032 309.274 C 236.498 301.753,236.485 301.280,239.737 298.681 C 242.963 296.103,249.149 290.035,252.720 285.944 C 256.238 281.914,256.932 281.552,259.153 282.596 C 259.958 282.975,261.806 283.784,263.260 284.395 C 268.620 286.647,270.164 287.311,271.565 287.965 C 274.845 289.497,275.466 289.100,278.801 283.348 C 287.766 267.883,289.021 265.559,288.827 264.787 C 288.644 264.057,286.687 262.454,277.049 255.138 C 273.758 252.640,273.273 251.698,274.338 249.868 C 275.423 248.003,277.004 244.457,277.004 243.889 C 277.004 243.562,277.401 242.160,277.885 240.773 C 278.370 239.386,278.767 237.858,278.767 237.376 C 278.767 236.895,279.084 235.697,279.471 234.714 C 279.859 233.730,280.176 232.300,280.176 231.536 C 280.176 229.976,280.443 230.106,275.947 229.481 C 271.368 228.846,267.041 227.999,264.670 227.275 C 263.410 226.890,261.269 226.236,259.912 225.822 C 256.219 224.695,246.420 220.609,245.286 219.723 C 242.122 217.250,240.896 217.995,240.505 222.631 C 240.378 224.140,240.040 225.850,239.755 226.432 C 239.470 227.013,239.088 228.512,238.905 229.761 C 238.723 231.011,238.362 232.280,238.103 232.581 C 237.844 232.882,237.457 233.841,237.243 234.714 C 237.028 235.586,236.530 236.928,236.136 237.696 C 235.741 238.464,235.419 239.311,235.419 239.578 C 235.419 239.846,235.101 240.468,234.714 240.961 C 234.326 241.454,234.009 242.132,234.009 242.467 C 234.009 242.802,233.692 243.480,233.304 243.973 C 232.916 244.466,232.599 245.109,232.599 245.403 C 232.599 245.697,232.236 246.385,231.792 246.933 C 231.349 247.481,230.792 248.326,230.555 248.811 C 230.318 249.295,229.849 250.104,229.512 250.608 C 227.960 252.929,227.465 253.640,226.714 254.626 C 226.272 255.207,225.630 256.053,225.289 256.506 C 222.085 260.760,213.433 269.124,209.868 271.414 C 208.899 272.036,207.755 272.857,207.326 273.238 C 206.523 273.951,205.588 274.540,204.053 275.296 C 203.568 275.535,202.917 275.942,202.606 276.200 C 201.907 276.779,197.302 279.116,196.856 279.118 C 196.677 279.118,196.281 279.345,195.975 279.620 C 195.400 280.139,193.731 280.808,190.200 281.937 C 189.074 282.297,187.964 282.741,187.733 282.925 C 187.502 283.109,186.557 283.369,185.633 283.502 C 184.709 283.636,183.281 284.034,182.461 284.386 C 181.640 284.739,179.909 285.128,178.614 285.252 C 177.318 285.376,175.573 285.725,174.737 286.027 C 172.449 286.854,154.581 286.879,152.063 286.058 C 151.098 285.744,149.001 285.327,147.403 285.132 C 145.805 284.937,144.061 284.557,143.526 284.286 C 142.992 284.016,141.921 283.690,141.145 283.562 C 140.370 283.435,139.022 283.036,138.150 282.677 C 137.278 282.317,135.612 281.674,134.449 281.246 C 129.867 279.564,121.096 274.826,117.953 272.337 C 117.182 271.727,115.950 270.822,115.214 270.327 C 106.242 264.293,94.360 248.386,90.192 236.828 C 85.306 223.278,84.028 213.264,85.424 199.471 C 87.551 178.468,100.171 156.976,117.357 145.093 C 122.458 141.566,124.920 140.075,128.211 138.521 C 129.898 137.725,131.833 136.781,132.511 136.423 C 133.189 136.064,134.300 135.651,134.978 135.504 C 135.656 135.357,136.764 134.940,137.440 134.579 C 138.115 134.217,139.067 133.920,139.554 133.919 C 140.042 133.917,140.916 133.667,141.498 133.361 C 142.079 133.056,143.744 132.582,145.198 132.308 C 146.652 132.034,148.714 131.556,149.780 131.245 C 152.644 130.411,173.716 130.408,176.564 131.242 C 177.630 131.555,179.692 132.036,181.145 132.311 C 182.599 132.586,184.378 133.061,185.099 133.366 C 185.819 133.671,186.681 133.921,187.014 133.921 C 187.347 133.921,188.264 134.219,189.052 134.584 C 194.974 137.324,195.030 137.281,195.558 129.590 C 195.800 126.060,196.292 121.982,196.650 120.529 C 197.008 119.075,197.414 117.093,197.552 116.123 C 197.690 115.154,198.099 113.602,198.461 112.674 C 198.823 111.746,199.120 110.636,199.121 110.207 C 199.122 109.778,199.358 108.976,199.646 108.425 C 199.933 107.874,200.392 106.685,200.665 105.782 C 200.938 104.880,201.415 103.665,201.724 103.084 C 202.033 102.502,202.288 101.789,202.291 101.498 C 202.293 101.207,202.610 100.493,202.996 99.912 C 204.439 97.732,203.628 96.461,200.299 95.684 C 199.165 95.420,197.761 94.955,197.180 94.652 C 196.599 94.349,195.568 94.099,194.890 94.097 C 194.211 94.095,193.181 93.840,192.599 93.531 C 192.018 93.222,189.457 92.684,186.908 92.336 C 179.687 91.349,179.751 91.444,178.682 80.176 C 178.171 74.785,177.761 72.970,176.834 71.983 L 176.089 71.189 163.375 71.204 C 152.917 71.215,150.493 71.309,149.713 71.732 M345.930 227.046 C 345.624 227.513,344.803 229.231,344.105 230.864 C 342.594 234.398,342.429 234.551,339.823 234.846 C 338.709 234.972,336.211 235.338,334.273 235.661 C 329.585 236.440,329.385 236.364,326.693 232.798 C 323.819 228.991,323.343 228.847,320.087 230.790 C 318.779 231.570,316.489 232.891,314.997 233.725 C 311.288 235.800,311.191 236.099,312.927 240.161 C 315.050 245.131,315.059 244.811,312.739 247.410 C 311.630 248.653,310.021 250.755,309.163 252.082 C 307.164 255.171,306.646 255.407,303.161 254.815 C 296.395 253.665,297.172 252.811,294.284 264.587 L 293.656 267.148 294.668 267.999 C 295.224 268.467,296.037 268.954,296.474 269.081 C 296.911 269.208,298.476 269.869,299.952 270.548 L 302.635 271.784 302.867 274.659 C 302.994 276.240,303.350 278.923,303.657 280.621 C 304.338 284.384,304.270 284.530,300.515 287.357 C 298.197 289.101,296.864 290.726,297.205 291.392 C 301.416 299.622,304.194 302.862,306.170 301.846 C 311.569 299.070,312.840 298.985,315.393 301.233 C 316.438 302.154,318.339 303.636,319.616 304.526 C 322.839 306.772,322.990 307.173,322.316 311.710 C 321.492 317.259,321.334 317.091,329.422 319.281 C 335.389 320.896,335.495 320.853,337.413 316.004 C 339.212 311.458,339.375 311.336,344.317 310.849 C 346.546 310.629,349.054 310.277,349.890 310.067 C 351.960 309.547,352.603 309.950,355.410 313.534 C 358.251 317.161,358.192 317.156,363.562 314.231 C 370.335 310.541,370.830 309.909,369.369 306.807 C 366.834 301.425,366.840 300.908,369.483 298.123 C 370.140 297.429,371.402 295.783,372.286 294.465 C 374.626 290.976,374.546 291.009,379.350 291.510 C 384.318 292.028,384.993 291.821,385.534 289.619 C 385.739 288.787,386.207 287.075,386.575 285.815 C 388.288 279.949,388.356 278.521,386.958 277.826 C 384.716 276.712,383.487 276.197,381.937 275.725 C 379.856 275.091,379.346 274.301,379.090 271.319 C 378.979 270.034,378.609 267.624,378.268 265.965 C 377.532 262.389,377.758 261.376,379.564 260.170 C 384.847 256.640,385.256 255.579,382.884 251.554 C 382.165 250.336,381.291 248.834,380.940 248.217 C 378.062 243.152,377.569 243.048,371.337 246.193 C 369.573 247.083,368.722 246.825,366.226 244.645 C 364.934 243.517,363.004 242.028,361.938 241.336 C 358.622 239.183,358.582 239.100,359.127 235.508 C 360.005 229.715,359.549 228.832,355.350 228.202 C 354.500 228.075,352.970 227.683,351.949 227.332 C 348.522 226.152,346.576 226.060,345.930 227.046 M347.093 261.155 C 352.470 263.896,355.168 269.466,354.216 275.862 C 352.638 286.476,338.965 290.745,331.375 282.993 C 320.620 272.010,333.442 254.195,347.093 261.155 " stroke="none" fill="#ffffff" fill-rule="evenodd"></path><path id="path4" d="M0.624 1.491 C 2.087 2.196,2.208 5.542,0.793 6.163 C -0.031 6.524,-0.278 7.048,0.376 7.048 C 1.678 7.048,2.115 6.312,2.115 4.111 C 2.115 1.771,1.737 1.042,0.546 1.081 C -0.139 1.104,-0.135 1.125,0.624 1.491 M269.251 12.550 C 264.547 14.070,264.141 15.156,264.141 26.213 L 264.141 35.127 265.177 36.621 C 266.852 39.038,268.101 39.471,273.388 39.471 C 278.486 39.471,279.471 39.811,279.471 41.567 C 279.471 43.366,278.555 43.981,275.242 44.405 C 271.676 44.862,265.075 46.289,261.863 47.297 C 258.722 48.284,251.197 51.127,249.893 51.821 C 249.588 51.983,248.150 52.684,246.696 53.378 C 245.242 54.073,243.736 54.831,243.348 55.063 C 242.960 55.296,242.052 55.847,241.329 56.289 C 239.304 57.527,238.637 57.354,236.649 55.077 C 235.681 53.969,234.493 52.636,234.009 52.115 C 233.524 51.595,232.256 50.144,231.189 48.891 C 228.051 45.203,224.474 43.612,223.084 45.286 C 222.842 45.577,222.466 45.815,222.247 45.815 C 222.029 45.815,221.136 46.467,220.264 47.265 C 219.392 48.063,218.123 49.195,217.445 49.782 C 216.767 50.369,214.702 52.293,212.856 54.059 C 211.011 55.824,209.019 57.670,208.429 58.160 C 204.222 61.654,204.491 64.520,209.552 70.155 C 210.695 71.427,212.344 73.307,213.216 74.334 C 214.088 75.360,215.078 76.470,215.416 76.802 C 216.061 77.435,215.952 77.672,213.216 81.596 C 210.442 85.575,209.644 86.741,208.979 87.789 C 207.827 89.604,207.544 90.092,206.852 91.454 C 205.244 94.617,204.862 95.218,203.985 95.972 C 203.205 96.642,203.134 96.852,203.511 97.368 C 204.115 98.193,205.655 97.037,205.991 95.506 C 206.118 94.929,206.381 94.359,206.576 94.238 C 206.771 94.118,207.244 93.363,207.628 92.560 C 208.683 90.352,209.565 88.830,210.188 88.142 C 210.496 87.801,210.749 87.398,210.749 87.248 C 210.749 87.097,211.106 86.526,211.542 85.978 C 211.978 85.431,212.731 84.407,213.216 83.704 C 213.700 83.000,214.321 82.182,214.594 81.885 C 215.715 80.670,217.080 78.367,217.086 77.681 C 217.093 76.948,216.477 76.188,210.626 69.707 C 205.895 64.467,205.560 62.002,209.174 59.041 C 210.017 58.350,212.342 56.189,214.340 54.238 C 225.594 43.255,225.124 43.201,236.637 56.793 C 238.812 59.361,239.011 59.363,243.391 56.883 C 245.306 55.798,247.824 54.475,248.987 53.943 C 252.714 52.238,260.162 49.339,260.817 49.339 C 261.055 49.339,262.138 49.040,263.224 48.675 C 266.198 47.674,271.153 46.594,274.771 46.159 C 280.567 45.462,281.040 45.086,280.748 41.416 C 280.496 38.249,280.138 38.062,274.329 38.062 C 265.698 38.062,265.727 38.103,265.727 25.967 C 265.727 16.599,265.908 15.443,267.510 14.615 C 268.580 14.062,307.489 13.873,309.425 14.412 C 311.548 15.003,311.882 16.562,311.888 25.903 C 311.895 37.933,311.804 38.060,303.197 38.061 C 297.133 38.062,296.740 38.308,296.740 42.107 C 296.740 45.268,297.147 45.550,302.555 46.146 C 311.928 47.178,326.857 52.449,335.605 57.813 C 339.071 59.939,338.419 60.368,347.142 50.220 C 351.088 45.630,353.162 45.654,358.253 50.349 C 359.647 51.635,361.483 53.116,362.332 53.639 C 364.172 54.774,369.189 59.244,370.308 60.746 C 371.547 62.409,371.406 64.722,369.956 66.533 C 368.335 68.559,362.719 74.966,361.425 76.266 C 359.853 77.846,360.418 79.505,363.789 83.200 C 364.128 83.572,364.405 83.960,364.405 84.061 C 364.405 84.163,365.174 85.392,366.113 86.792 C 368.575 90.464,368.998 91.176,370.351 93.921 C 371.020 95.278,371.762 96.626,372.000 96.916 C 372.238 97.207,372.540 97.949,372.671 98.566 C 372.802 99.183,373.126 99.867,373.392 100.088 C 373.658 100.309,373.982 100.994,374.112 101.610 C 374.243 102.227,374.636 103.207,374.986 103.789 C 375.337 104.370,375.734 105.442,375.869 106.171 C 376.005 106.900,376.414 108.084,376.780 108.801 C 377.146 109.518,377.445 110.462,377.445 110.898 C 377.445 111.335,377.752 112.471,378.127 113.423 C 378.503 114.375,378.919 116.165,379.053 117.401 C 379.187 118.637,379.524 120.203,379.803 120.881 C 381.285 124.488,381.284 150.063,379.801 153.656 C 379.521 154.335,379.178 155.836,379.039 156.991 C 378.899 158.147,378.506 159.812,378.165 160.692 C 377.824 161.571,377.440 162.976,377.311 163.813 C 377.182 164.651,376.854 165.682,376.582 166.104 C 376.310 166.527,375.976 167.507,375.840 168.282 C 375.705 169.057,375.388 169.930,375.137 170.220 C 374.886 170.511,374.566 171.225,374.425 171.806 C 374.285 172.388,373.877 173.419,373.518 174.097 C 373.159 174.775,372.621 175.885,372.323 176.564 C 371.647 178.102,370.818 179.748,370.371 180.441 C 370.183 180.731,369.791 181.445,369.500 182.026 C 364.278 192.436,351.423 206.476,340.793 213.377 C 339.339 214.321,337.586 215.464,336.897 215.917 C 336.209 216.370,335.507 216.740,335.339 216.740 C 335.171 216.740,334.783 216.959,334.477 217.226 C 333.558 218.029,327.254 221.220,326.077 221.479 C 325.475 221.611,324.807 221.930,324.593 222.188 C 324.379 222.446,323.615 222.767,322.895 222.900 C 322.175 223.034,321.110 223.427,320.529 223.775 C 319.947 224.123,318.837 224.518,318.062 224.653 C 317.286 224.788,316.335 225.101,315.947 225.350 C 315.559 225.598,314.135 225.994,312.782 226.229 C 311.429 226.465,310.132 226.814,309.900 227.007 C 309.668 227.199,307.841 227.578,305.840 227.848 C 303.840 228.118,301.648 228.519,300.969 228.738 C 300.239 228.974,295.711 229.211,289.868 229.321 C 284.441 229.422,279.849 229.646,279.665 229.819 C 279.457 230.014,279.490 230.132,279.753 230.132 C 279.986 230.132,280.179 230.568,280.181 231.101 L 280.187 232.070 280.633 231.189 L 281.079 230.308 286.178 230.418 C 292.830 230.561,303.514 229.943,305.737 229.287 C 306.701 229.003,308.678 228.533,310.132 228.244 C 314.453 227.383,320.963 225.373,322.874 224.309 C 323.388 224.023,324.020 223.789,324.278 223.789 C 325.046 223.789,333.848 219.548,335.725 218.275 C 336.397 217.818,337.037 217.445,337.147 217.445 C 337.257 217.445,338.368 216.731,339.615 215.859 C 340.863 214.987,342.003 214.273,342.149 214.273 C 343.238 214.273,355.270 203.703,358.396 200.000 C 359.705 198.449,361.297 196.594,361.934 195.878 C 363.675 193.919,369.724 185.089,370.414 183.500 C 370.597 183.077,370.902 182.493,371.092 182.203 C 371.282 181.912,371.675 181.119,371.967 180.441 C 372.258 179.762,372.648 178.969,372.833 178.678 C 373.018 178.388,373.559 177.278,374.035 176.211 C 374.511 175.145,375.224 173.559,375.619 172.687 C 376.015 171.815,376.446 170.665,376.578 170.131 C 376.709 169.598,377.117 168.573,377.483 167.854 C 377.850 167.135,378.150 166.174,378.150 165.718 C 378.150 165.262,378.464 164.145,378.847 163.237 C 379.231 162.329,379.700 160.714,379.890 159.648 C 380.079 158.581,380.466 156.758,380.749 155.595 C 381.033 154.432,381.440 152.053,381.654 150.308 C 381.868 148.564,382.187 146.264,382.362 145.198 C 382.775 142.679,382.773 131.837,382.358 129.339 C 382.181 128.273,381.860 125.815,381.645 123.877 C 381.429 121.938,380.962 119.322,380.606 118.062 C 380.249 116.802,379.862 115.067,379.744 114.207 C 379.626 113.347,379.304 112.158,379.028 111.564 C 378.752 110.970,378.354 109.692,378.142 108.722 C 377.931 107.753,377.550 106.641,377.295 106.250 C 377.041 105.860,376.715 104.988,376.572 104.312 C 376.429 103.636,376.029 102.608,375.683 102.026 C 375.337 101.445,374.947 100.465,374.817 99.848 C 374.687 99.232,374.353 98.538,374.074 98.307 C 373.796 98.076,373.568 97.706,373.568 97.483 C 373.568 97.261,372.943 95.893,372.179 94.443 C 371.415 92.993,370.465 91.172,370.067 90.396 C 369.669 89.621,369.065 88.572,368.725 88.065 C 368.384 87.559,367.655 86.409,367.103 85.510 C 366.552 84.612,365.957 83.877,365.781 83.877 C 365.606 83.877,365.463 83.703,365.463 83.491 C 365.463 83.279,364.774 82.200,363.932 81.093 C 361.756 78.232,361.683 77.654,363.281 75.944 C 364.003 75.170,365.622 73.361,366.878 71.923 C 368.135 70.485,369.680 68.741,370.312 68.046 C 373.042 65.045,372.764 61.234,369.598 58.286 C 366.547 55.444,363.490 52.838,362.419 52.164 C 361.864 51.816,360.085 50.339,358.465 48.883 C 353.220 44.166,350.806 44.101,346.842 48.569 C 338.543 57.923,339.250 57.251,337.863 57.107 C 337.511 57.070,336.649 56.651,335.946 56.174 C 332.627 53.922,320.900 48.787,315.910 47.401 C 310.610 45.929,305.423 44.802,302.146 44.410 C 298.241 43.942,298.166 43.886,298.155 41.392 C 298.147 39.617,298.563 39.471,303.640 39.471 C 312.831 39.471,313.427 38.563,313.239 24.846 C 313.113 15.678,313.030 15.330,310.543 13.584 L 309.015 12.511 289.397 12.445 C 278.608 12.408,269.542 12.456,269.251 12.550 M279.295 74.035 C 272.614 75.296,268.909 76.256,266.608 77.322 C 266.026 77.591,265.046 77.917,264.430 78.047 C 263.813 78.177,263.120 78.511,262.889 78.789 C 262.658 79.067,262.244 79.295,261.968 79.295 C 261.018 79.295,256.613 81.868,251.278 85.540 C 246.039 89.144,237.053 98.521,235.464 102.041 C 235.286 102.437,234.885 102.971,234.574 103.229 C 234.263 103.488,234.009 103.896,234.009 104.137 C 234.009 104.377,233.713 104.953,233.352 105.415 C 232.991 105.877,232.574 106.652,232.425 107.137 C 232.276 107.621,231.881 108.414,231.547 108.899 C 231.213 109.383,230.828 110.243,230.690 110.809 C 230.553 111.375,230.134 112.229,229.758 112.707 C 229.382 113.184,229.075 113.971,229.075 114.455 C 229.075 114.939,228.772 115.830,228.401 116.434 C 228.030 117.039,227.611 118.326,227.468 119.295 C 227.326 120.264,226.997 121.383,226.737 121.781 C 226.477 122.180,226.102 124.073,225.903 125.989 C 225.705 127.904,225.362 130.116,225.142 130.903 C 224.606 132.818,224.638 141.783,225.187 143.779 C 225.425 144.647,225.750 146.735,225.908 148.420 C 226.066 150.106,226.435 152.013,226.728 152.659 C 227.022 153.304,227.367 154.546,227.497 155.419 C 227.627 156.291,227.943 157.336,228.199 157.741 C 228.455 158.146,228.851 159.177,229.079 160.032 C 229.307 160.887,229.704 161.824,229.961 162.115 C 230.219 162.405,230.543 163.119,230.681 163.700 C 230.819 164.282,231.116 164.996,231.342 165.286 C 231.568 165.577,232.371 167.044,233.126 168.546 C 233.881 170.048,234.616 171.278,234.759 171.278 C 234.902 171.278,235.115 171.581,235.232 171.951 C 235.350 172.322,235.876 173.176,236.402 173.850 C 236.927 174.523,237.595 175.438,237.885 175.883 C 240.317 179.602,248.007 186.848,252.863 189.996 C 257.144 192.770,258.084 193.321,260.793 194.644 C 280.328 204.183,304.867 202.799,322.943 191.138 C 324.329 190.244,325.542 189.414,325.639 189.294 C 325.736 189.173,326.736 188.454,327.863 187.696 C 333.403 183.964,342.455 173.158,345.414 166.743 C 346.007 165.457,346.699 164.009,346.953 163.524 C 347.433 162.607,349.076 158.288,350.103 155.242 C 353.363 145.577,353.430 129.746,350.254 119.824 C 349.335 116.953,347.556 112.177,346.972 111.013 C 346.729 110.529,346.097 109.181,345.567 108.018 C 344.773 106.275,341.599 101.089,340.408 99.589 C 334.737 92.445,329.690 87.702,323.524 83.721 C 322.652 83.158,321.383 82.337,320.705 81.897 C 320.026 81.457,319.075 80.930,318.590 80.725 C 318.106 80.521,317.471 80.205,317.181 80.022 C 316.185 79.397,312.643 77.885,312.175 77.885 C 311.918 77.885,311.155 77.589,310.479 77.228 C 309.804 76.866,308.696 76.461,308.018 76.328 C 307.339 76.195,306.229 75.858,305.551 75.580 C 304.872 75.302,302.811 74.839,300.969 74.552 C 299.128 74.264,296.907 73.872,296.035 73.682 C 293.273 73.077,283.247 73.289,279.295 74.035 M296.564 75.416 C 300.615 75.855,309.145 77.981,312.070 79.280 C 316.100 81.070,320.222 83.261,322.587 84.868 C 324.169 85.943,326.157 87.295,327.006 87.873 C 336.032 94.010,345.880 108.708,348.770 120.352 C 349.059 121.515,349.515 123.123,349.784 123.925 C 351.235 128.249,351.208 146.049,349.744 150.360 C 349.462 151.190,349.065 152.771,348.861 153.875 C 348.657 154.978,348.280 156.213,348.024 156.619 C 347.768 157.025,347.446 157.912,347.308 158.590 C 345.298 168.498,332.532 183.582,319.648 191.272 C 308.790 197.752,290.669 201.118,279.295 198.767 C 278.520 198.607,276.637 198.223,275.111 197.914 C 272.651 197.416,269.698 196.507,264.718 194.715 C 262.602 193.953,257.247 191.091,254.273 189.133 C 247.225 184.493,241.086 178.395,236.473 171.454 C 235.443 169.903,234.333 168.238,234.008 167.753 C 233.682 167.269,233.224 166.290,232.989 165.579 C 232.755 164.867,232.350 164.109,232.089 163.892 C 231.829 163.676,231.516 162.966,231.393 162.314 C 231.271 161.662,230.954 160.948,230.688 160.728 C 230.423 160.507,230.097 159.738,229.965 159.018 C 229.832 158.298,229.430 157.038,229.070 156.218 C 228.710 155.397,228.306 153.970,228.173 153.046 C 228.040 152.122,227.701 150.811,227.420 150.132 C 226.051 146.822,225.969 128.800,227.306 124.783 C 227.665 123.703,228.065 122.040,228.195 121.088 C 228.324 120.135,228.734 118.790,229.105 118.097 C 229.476 117.405,229.780 116.549,229.780 116.195 C 229.780 115.533,230.765 113.225,232.719 109.309 C 234.767 105.205,235.119 104.567,235.599 104.086 C 235.862 103.823,236.178 103.292,236.300 102.905 C 236.423 102.519,236.641 102.203,236.785 102.203 C 236.929 102.203,237.751 101.139,238.611 99.838 C 240.615 96.810,248.216 89.237,251.391 87.105 C 252.736 86.202,254.410 85.072,255.112 84.594 C 256.747 83.482,258.136 82.685,259.961 81.813 C 260.764 81.429,261.526 80.944,261.656 80.734 C 261.786 80.524,262.150 80.352,262.465 80.352 C 262.780 80.352,263.699 80.032,264.507 79.641 C 266.039 78.899,267.216 78.534,273.656 76.800 C 279.704 75.172,289.087 74.605,296.564 75.416 M252.687 98.573 C 251.373 99.050,249.890 100.935,249.669 102.409 C 249.239 105.275,249.520 105.637,261.748 117.947 C 274.757 131.044,274.701 130.976,273.939 132.801 C 273.041 134.950,273.465 140.961,274.698 143.557 C 277.575 149.613,284.647 153.391,290.917 152.222 C 292.278 151.968,295.015 151.751,296.998 151.739 L 300.604 151.718 301.932 150.390 L 303.260 149.063 303.275 145.280 C 303.283 143.011,303.460 141.190,303.715 140.728 C 306.364 135.939,301.696 126.621,295.060 123.453 L 292.500 122.230 287.118 122.349 L 281.736 122.467 270.663 111.366 C 256.636 97.302,256.487 97.196,252.687 98.573 M260.367 102.657 C 262.169 104.443,267.323 109.608,271.821 114.136 C 276.320 118.663,280.600 122.813,281.332 123.356 L 282.665 124.344 284.680 123.636 C 294.804 120.078,304.584 129.848,302.212 141.150 C 301.741 143.396,301.681 144.358,301.961 145.163 C 303.111 148.461,298.903 152.309,296.094 150.528 C 295.824 150.357,294.625 150.446,293.275 150.736 C 281.767 153.211,272.309 144.339,275.137 133.723 C 275.995 130.506,276.292 130.907,263.580 118.142 C 249.591 104.095,249.601 104.109,251.614 101.110 C 253.765 97.907,255.967 98.296,260.367 102.657 M159.383 130.639 C 159.722 130.728,160.278 130.728,160.617 130.639 C 160.956 130.551,160.678 130.478,160.000 130.478 C 159.322 130.478,159.044 130.551,159.383 130.639 M165.907 130.646 C 166.346 130.730,166.980 130.727,167.317 130.639 C 167.654 130.550,167.295 130.481,166.520 130.485 C 165.744 130.489,165.469 130.561,165.907 130.646 M194.255 136.337 C 193.921 136.549,193.889 136.858,194.138 137.477 C 194.455 138.264,195.271 144.980,195.804 151.189 C 195.928 152.643,196.247 154.388,196.513 155.066 C 196.778 155.744,197.141 157.349,197.319 158.632 C 197.497 159.914,197.874 161.421,198.156 161.980 C 198.438 162.538,198.778 163.709,198.912 164.581 C 199.045 165.454,199.364 166.487,199.619 166.877 C 199.875 167.268,200.200 168.117,200.342 168.763 C 200.584 169.865,201.455 172.033,202.980 175.330 C 203.338 176.106,203.813 177.137,204.036 177.621 C 204.679 179.024,205.471 180.572,205.838 181.145 C 206.024 181.436,206.501 182.308,206.898 183.084 C 208.041 185.315,208.794 186.605,209.276 187.155 C 209.521 187.436,210.230 188.463,210.852 189.438 C 216.932 198.975,227.262 209.079,237.959 215.952 C 239.799 217.134,240.351 217.693,240.543 218.567 C 240.745 219.486,240.844 219.576,241.116 219.090 C 241.297 218.767,241.675 218.502,241.956 218.502 C 243.362 218.502,241.148 215.999,238.793 214.926 C 238.294 214.698,237.885 214.405,237.885 214.273 C 237.885 214.142,237.466 213.843,236.953 213.609 C 236.003 213.176,235.784 213.021,232.070 210.143 C 225.679 205.190,216.818 196.116,213.607 191.236 C 212.292 189.237,208.845 184.070,208.251 183.207 C 207.897 182.694,207.504 181.859,207.377 181.354 C 207.250 180.848,207.033 180.364,206.895 180.278 C 206.605 180.099,204.688 176.235,204.047 174.537 C 203.809 173.907,203.493 173.392,203.344 173.392 C 203.196 173.392,202.964 172.797,202.829 172.070 C 202.694 171.344,202.299 170.273,201.952 169.692 C 201.604 169.110,201.209 168.016,201.075 167.261 C 200.940 166.506,200.619 165.554,200.361 165.147 C 200.103 164.739,199.778 163.692,199.638 162.819 C 199.499 161.947,199.110 160.520,198.773 159.648 C 198.436 158.775,198.052 156.970,197.920 155.637 C 197.788 154.303,197.436 152.638,197.138 151.936 C 196.749 151.022,196.528 148.756,196.359 143.930 C 196.098 136.532,195.777 135.372,194.255 136.337 M85.721 196.652 C 85.721 197.330,85.793 197.608,85.882 197.269 C 85.970 196.930,85.970 196.374,85.882 196.035 C 85.793 195.696,85.721 195.974,85.721 196.652 M85.721 220.264 C 85.721 220.943,85.793 221.220,85.882 220.881 C 85.970 220.542,85.970 219.987,85.882 219.648 C 85.793 219.308,85.721 219.586,85.721 220.264 M340.181 259.989 C 340.717 260.070,341.510 260.067,341.943 259.984 C 342.377 259.900,341.938 259.834,340.969 259.836 C 340.000 259.839,339.645 259.908,340.181 259.989 M110.308 266.256 C 110.966 266.934,111.583 267.489,111.680 267.489 C 111.777 267.489,111.318 266.934,110.661 266.256 C 110.003 265.577,109.386 265.022,109.289 265.022 C 109.192 265.022,109.651 265.577,110.308 266.256 M354.286 273.304 C 354.288 274.273,354.357 274.628,354.438 274.092 C 354.519 273.556,354.517 272.763,354.433 272.330 C 354.349 271.896,354.283 272.335,354.286 273.304 M161.683 286.778 C 162.512 286.853,163.781 286.852,164.503 286.776 C 165.224 286.700,164.546 286.639,162.996 286.641 C 161.445 286.642,160.854 286.704,161.683 286.778 " stroke="none" fill="#ffffff" fill-rule="evenodd"></path></g></svg>